<?xml version="1.0" encoding="UTF-8" standalone="no"?>
<!-- Created with Inkscape (http://www.inkscape.org/) -->

<svg
   xmlns:dc="http://purl.org/dc/elements/1.1/"
   xmlns:cc="http://creativecommons.org/ns#"
   xmlns:rdf="http://www.w3.org/1999/02/22-rdf-syntax-ns#"
   xmlns:svg="http://www.w3.org/2000/svg"
   xmlns="http://www.w3.org/2000/svg"
   xmlns:xlink="http://www.w3.org/1999/xlink"
   xmlns:sodipodi="http://sodipodi.sourceforge.net/DTD/sodipodi-0.dtd"
   xmlns:inkscape="http://www.inkscape.org/namespaces/inkscape"
   width="1712"
   height="1292"
   id="svg2"
   version="1.1"
   inkscape:version="0.47 r22583"
   sodipodi:docname="Vincristine.svg">
  <metadata
     id="metadata47">
    <rdf:RDF>
      <cc:Work
         rdf:about="">
        <dc:format>image/svg+xml</dc:format>
        <dc:type
           rdf:resource="http://purl.org/dc/dcmitype/StillImage" />
      </cc:Work>
    </rdf:RDF>
  </metadata>
  <defs
     id="defs45">
    <inkscape:perspective
       sodipodi:type="inkscape:persp3d"
       inkscape:vp_x="0 : 646 : 1"
       inkscape:vp_y="0 : 1000 : 0"
       inkscape:vp_z="1712 : 646 : 1"
       inkscape:persp3d-origin="856 : 430.66667 : 1"
       id="perspective49" />
    <inkscape:perspective
       id="perspective2895"
       inkscape:persp3d-origin="0.5 : 0.33333333 : 1"
       inkscape:vp_z="1 : 0.5 : 1"
       inkscape:vp_y="0 : 1000 : 0"
       inkscape:vp_x="0 : 0.5 : 1"
       sodipodi:type="inkscape:persp3d" />
    <inkscape:perspective
       id="perspective2917"
       inkscape:persp3d-origin="0.5 : 0.33333333 : 1"
       inkscape:vp_z="1 : 0.5 : 1"
       inkscape:vp_y="0 : 1000 : 0"
       inkscape:vp_x="0 : 0.5 : 1"
       sodipodi:type="inkscape:persp3d" />
  </defs>
  <sodipodi:namedview
     pagecolor="#ffffff"
     bordercolor="#666666"
     borderopacity="1"
     objecttolerance="10"
     gridtolerance="10"
     guidetolerance="10"
     inkscape:pageopacity="0"
     inkscape:pageshadow="2"
     inkscape:window-width="1920"
     inkscape:window-height="1027"
     id="namedview43"
     showgrid="false"
     inkscape:zoom="0.36532508"
     inkscape:cx="927.17396"
     inkscape:cy="531.69284"
     inkscape:window-x="-8"
     inkscape:window-y="-8"
     inkscape:window-maximized="1"
     inkscape:current-layer="svg2" />
  <path
     d="m 543.2699,235.69241 0,-72.47681 9.8382,0 38.0676,56.90369 0,-56.90369 9.1956,0 0,72.47681 -9.8383,0 -38.0676,-56.95313 0,56.95313 -9.1955,0 z"
     id="N"
     fill="#000" />
  <path
     d="m 222.9654,624.1924 0,-72.47681 9.5911,0 0,29.76197 37.6721,0 0,-29.76197 9.5911,0 0,72.47681 -9.5911,0 0,-34.16199 -37.6721,0 0,34.16199 -9.5911,0 z"
     id="H"
     fill="#000" />
  <path
     d="m 306.052,679.89332 c 0,-12.02998 3.2299,-21.44799 9.6899,-28.25409 6.4599,-6.80595 14.7986,-10.20896 25.0159,-10.20903 6.6906,8e-5 12.7221,1.59857 18.0945,4.79552 5.3722,3.1971 9.4674,7.6548 12.2854,13.37311 2.8179,5.71844 4.2269,12.20312 4.227,19.45404 -1e-4,7.34988 -1.4832,13.9252 -4.4495,19.72595 -2.9663,5.80079 -7.1686,10.19258 -12.6068,13.17536 -5.4382,2.98278 -11.3049,4.47418 -17.6001,4.47418 -6.8225,0 -12.9199,-1.64795 -18.2922,-4.94385 -5.3723,-3.29589 -9.4428,-7.79479 -12.2113,-13.4967 -2.7686,-5.70188 -4.1528,-11.73337 -4.1528,-18.09449 l 0,0 z m 9.8877,0.14833 c -1e-4,8.73415 2.3483,15.61433 7.0449,20.64057 4.6967,5.02625 10.5881,7.53936 17.6743,7.53936 7.218,0 13.1588,-2.53783 17.8226,-7.61352 4.6636,-5.07567 6.9955,-12.2772 6.9955,-21.60462 0,-5.89961 -0.9971,-11.04945 -2.991,-15.44952 -1.9941,-4.39997 -4.911,-7.81122 -8.7506,-10.23377 -3.8398,-2.42242 -8.1492,-3.63366 -12.9282,-3.63373 -6.7896,6e-5 -12.6315,2.33191 -17.5259,6.99554 -4.8945,4.66376 -7.3417,12.4503 -7.3416,23.35969 l 0,0 z"
     id="O"
     fill="#000" />
  <use
     transform="translate(556.8,-110.1)"
     xlink:href="#H"
     id="use7" />
  <use
     transform="translate(701.1,-500.4)"
     xlink:href="#H"
     id="use9" />
  <use
     transform="translate(1018.4653,151.99696)"
     xlink:href="#H"
     id="use11" />
  <use
     transform="translate(1170.4518,410.6124)"
     xlink:href="#H"
     id="use13" />
  <use
     transform="translate(-247.5,388.5)"
     xlink:href="#N"
     id="use15" />
  <use
     transform="translate(472.49579,682.46961)"
     xlink:href="#N"
     id="use17" />
  <use
     transform="translate(708.89569,273.21217)"
     xlink:href="#N"
     id="use19" />
  <use
     transform="translate(168.8,156.8)"
     xlink:href="#O"
     id="use21" />
  <use
     transform="translate(940.29559,440.75521)"
     xlink:href="#O"
     id="use23" />
  <use
     transform="translate(1176.9957,198.59749)"
     xlink:href="#O"
     id="use25" />
  <use
     transform="translate(535.9,-591.4)"
     xlink:href="#O"
     id="use27" />
  <use
     transform="translate(1286.6497,409.97769)"
     xlink:href="#O"
     id="use29" />
  <use
     transform="translate(735.69559,319.6124)"
     xlink:href="#O"
     id="use31" />
  <use
     transform="translate(1005.2518,319.6124)"
     xlink:href="#O"
     id="use33" />
  <use
     transform="translate(253.95646,230.64517)"
     xlink:href="#O"
     id="use35" />
  <use
     transform="translate(499.29559,319.6124)"
     xlink:href="#O"
     id="use37" />
  <path
     d="m 1140.9939,420.18173 -93.374,174.1264 111.0437,86.91077 4.7593,-5.06083 -80.2078,-94.79033 66.2056,-123.20488 87.7051,8.8433 1.6996,-6.70876 -97.8315,-40.11567 z m 142.6317,461.47928 -5.9501,3.50684 28.5195,76.78444 30.6085,-17.67185 -53.1782,-62.61986 3e-4,4.3e-4 z m 118.128,-68.46762 -3.442,5.9452 62.5137,53.51219 18.5155,-32.0177 -77.5872,-27.43969 z m -963.327,-666.60761 -96,170.96875 109.5937,91.46875 4.9688,-4.875 -76.5625,-96.875 68.5313,-121.375 80.5312,8.1875 1.7812,-6.65625 -92.8437,-40.84375 z m 394.2187,-22.53124 -27.6874,76.78124 5.9687,3.4375 52.5625,-62.40625 -30.8438,-17.8125 z m -262.6874,483.81249 -119.5626,96.03125 42.125,11.40625 82.3438,-102.5 -4.9062,-4.9375 z"
     id="path39"
     fill="#000" />
  <path
     d="m 600.53909,963.7118 16.2325,76.248 m 782.48161,-360.94001 118.2,-68.4 0,-136.5 -118.2,-68.1 -70.5,40.5 m -165.9,369 118.2,68.1 118.2,-68.1 0,-136.5 m -472.80001,136.5 -118.2,68.1 -118.2,-68.1 m 236.4,-136.5 -118.2,-68.4 -118.2,68.4 0,136.5 m 709.02761,273.52591 118.0198,-68.3086 -0.026,-86.35519 m -25.5835,-444.31069 -0.052,106.09354 m 8.8464,159.27156 15.304,-26.84563 m -32.5835,13.85036 12.8093,-22.12263 m -29.9668,9.40142 10.1926,-17.6737 m -27.1981,4.55641 7.576,-13.22477 m -24.8556,0.22949 5.0813,-8.50177 m -22.2388,-4.21944 2.3426,-4.32691 m -157.4829,-4.1004 29.5485,2.93531 m -23.1046,-23.86582 20.9886,2.14895 m -14.4227,-22.80539 12.0327,1.21053 m -5.8628,-22.01902 3.7468,0.30215 m -87.0973,355.34703 25.2332,18.32063 m -10.7136,-33.65171 21.0883,14.91178 m -6.4167,-30.63895 16.7914,11.89902 m -2.1198,-27.62619 12.4946,8.88625 m 2.177,-24.61342 8.1977,5.87349 m 6.5959,-21.32659 3.7788,2.58666 m 235.0253,129.32394 70.7666,40.8121 m -57.9573,-62.9347 70.7666,40.8121 m -339.4496,122.9729 -38.7,66.9 m 0,-236.4 38.7,66.9 m -38.7,-54.9 -85.8,0 m 85.8,-24 -85.8,0 m 390.6,-242.7 118.2,-68.1 m -354.6,-68.4 -118.2,68.4 m 118.2,-153.6 0,85.2 m -315.00001,367.2 -75.6,0 m 124.80001,-43.2 -39.00001,67.2 -85.8,0 m -200.4,-186.3 -58.3699,51.85922 m 767.56991,-188.35922 -118.2,-68.4 m -118.2,204.9 0,-136.5 m -236.40001,0 236.40001,0 m -236.40001,136.5 0,-136.5 m 70.50004,177 -70.50004,-40.5 m 236.40001,0 -70.5,40.5 m -477.6176,-678.61007 75.3,-43.5 118.2,68.1 m 205.2,116.7 -69,-116.7 -136.2,0 m -236.1,45.6 0,90.6 117.9,68.1 m -445.5,68.1 -135.3,-14.4 -55.5,-124.2 80.1,-110.4 135.6,14.4 55.2,124.2 m 247.5,246.6 117.9,-68.1 0,-136.2 m -235.8,136.2 117.9,68.1 m 236.1,-408.6 0,136.2 -118.2,68.1 m -235.8,136.2 0,-136.2 -129.6,-42.3 m 104.1,157.2 0,-93.6 m -61.5,143.1 87,-28.2 m -162.6,-3.6 -47.1,-64.5 m 80.1,-110.4 -80.1,110.4 m 50.7,-113.1 -62.4,85.8 m -149.7,-108 43.2,96.9 m 19.8,-183.6 105.6,11.1 m 497.7,194.1 14.7,-25.5 m -31.2,11.4 10.8,-18.6 m -27,4.2 6.3,-11.1 m -22.8,-3 2.4,-4.2 M 484.6773,789.8533 461.498,702.53374 m -72.0624,-19.02401 86.4,23.4 m -176.1,9.3 -51.6,51.6 m 468,32.4 -0.3,-106.8 m 184.5,-0.3 -92.1,-53.1 m 92.1,160.2 -92.1,53.1 m -135,-166.5 15.3,-26.7 m -32.4,13.8 12.6,-22.2 m -29.7,9.3 9.9,-17.7 m -27.3,4.8 7.8,-13.2 m -24.9,0.3 5.1,-8.7 m -22.2,-4.2 2.4,-4.2 M 509.2773,783.2533 488.1356,703.60973"
     style="fill:none;stroke:#000;stroke-width:7.5;stroke-linecap:square"
     id="path41" />
  <path
     style="fill:#000000"
     d="m 1158.1497,816.4849 1.8644,-6.61192 -73.8084,-36.38474 -10.0196,35.60291 81.9636,7.39375 z"
     id="path39-1"
     sodipodi:nodetypes="ccccc" />
  <use
     transform="translate(781.93372,188.06719)"
     xlink:href="#H"
     id="use7-7"
     x="0"
     y="0"
     width="1"
     height="1" />
</svg>
