<?xml version="1.0" standalone="no"?>
<!DOCTYPE svg PUBLIC "-//W3C//DTD SVG 20010904//EN"
 "http://www.w3.org/TR/2001/REC-SVG-20010904/DTD/svg10.dtd">
<svg version="1.0" xmlns="http://www.w3.org/2000/svg"
 width="940.000000pt" height="823.000000pt" viewBox="0 0 940.000000 823.000000"
 preserveAspectRatio="xMidYMid meet">

<g transform="translate(0.000000,823.000000) scale(0.100000,-0.100000)"
fill="#000000" stroke="none">
<path d="M4626 8175 c-34 -35 -32 -137 4 -170 41 -37 100 12 100 85 0 76 -62
126 -104 85z m62 -27 c7 -7 12 -36 12 -65 0 -49 -2 -53 -27 -59 -33 -9 -53 16
-53 64 0 61 36 92 68 60z"/>
<path d="M2977 8002 c-26 -27 -40 -59 -15 -34 23 23 28 12 28 -58 0 -56 3 -70
15 -70 12 0 15 17 15 95 0 52 -4 95 -8 95 -5 0 -20 -13 -35 -28z"/>
<path d="M3105 8010 c-20 -22 -6 -27 24 -8 10 6 26 8 35 5 22 -9 20 -38 -4
-44 -27 -7 -25 -21 3 -25 17 -2 22 -10 22 -33 0 -27 -4 -30 -33 -33 -22 -2
-34 2 -38 12 -7 18 -24 22 -24 6 0 -19 40 -50 63 -50 49 0 86 72 52 100 -12
10 -13 16 -4 27 9 10 9 20 1 38 -15 32 -70 35 -97 5z"/>
<path d="M3269 8013 c-9 -10 -14 -40 -14 -81 0 -51 4 -67 20 -78 47 -35 94 -3
102 69 8 64 -17 107 -61 107 -19 0 -39 -7 -47 -17z m71 -22 c11 -22 13 -80 4
-105 -4 -9 -18 -16 -34 -16 -30 0 -40 18 -40 77 0 53 48 84 70 44z"/>
<path d="M3429 8013 c-9 -10 -14 -40 -14 -81 0 -51 4 -67 20 -78 47 -35 94 -3
102 69 8 64 -17 107 -61 107 -19 0 -39 -7 -47 -17z m71 -22 c11 -22 13 -80 4
-105 -4 -9 -18 -16 -34 -16 -30 0 -40 18 -40 77 0 53 48 84 70 44z"/>
<path d="M3575 8000 c-18 -34 -19 -75 -4 -118 19 -56 89 -56 108 -1 15 44 14
85 -4 119 -13 25 -22 30 -50 30 -28 0 -37 -5 -50 -30z m74 -4 c7 -8 11 -37 9
-68 -3 -49 -5 -53 -30 -56 -35 -4 -52 27 -45 81 7 53 40 74 66 43z"/>
<path d="M3740 8015 c-18 -22 -24 -88 -11 -128 13 -39 38 -53 76 -43 41 11 59
100 30 156 -13 24 -22 30 -49 30 -18 0 -39 -7 -46 -15z m69 -19 c7 -8 11 -37
9 -68 -3 -49 -5 -53 -30 -56 -35 -4 -52 27 -45 81 7 53 40 74 66 43z"/>
<path d="M4620 7877 c0 -24 -2 -24 -137 -31 -76 -3 -190 -11 -253 -16 -73 -6
-116 -6 -118 0 -2 6 -10 10 -18 10 -7 0 -11 -6 -8 -14 4 -11 -12 -17 -68 -26
-194 -30 -478 -105 -654 -171 -73 -27 -76 -27 -81 -8 -3 10 -12 19 -20 19 -11
0 -13 -7 -9 -24 5 -22 0 -27 -72 -56 -200 -84 -417 -199 -600 -322 -34 -23
-47 -26 -58 -17 -14 11 -15 11 -26 -27 -2 -7 -50 -47 -108 -90 -109 -80 -283
-230 -404 -346 l-70 -68 -26 25 -26 25 -85 -92 c-47 -51 -109 -124 -139 -161
l-53 -68 28 -29 28 -29 -40 -53 c-56 -75 -112 -155 -133 -192 -56 -98 -92
-151 -103 -152 -27 -2 -29 -5 -19 -17 8 -10 7 -22 -6 -46 -21 -40 -107 -213
-132 -266 -25 -54 -43 -97 -75 -180 -14 -38 -35 -92 -46 -119 -10 -27 -19 -54
-19 -59 0 -6 -7 -30 -16 -54 -13 -32 -21 -42 -37 -40 -27 3 -33 -19 -6 -26 17
-5 20 -11 15 -29 -56 -192 -107 -459 -127 -670 -9 -88 -15 -118 -25 -118 -8 0
-14 -7 -14 -15 0 -8 6 -15 13 -15 9 0 12 -51 12 -223 0 -200 14 -423 34 -549
8 -43 6 -47 -15 -52 -35 -9 -31 -36 5 -36 27 0 29 -3 35 -47 7 -54 39 -194 67
-298 25 -90 119 -377 129 -390 12 -17 19 -55 9 -55 -5 0 -9 -7 -9 -16 0 -11 5
-14 16 -10 11 4 21 -8 37 -47 73 -178 242 -483 346 -623 30 -41 32 -48 17 -56
-9 -5 -16 -16 -16 -23 0 -18 5 -18 29 -5 16 8 34 -10 122 -123 57 -73 181
-211 276 -307 123 -125 169 -178 162 -186 -13 -16 9 -30 23 -16 7 7 44 -17
115 -75 159 -129 288 -219 473 -329 76 -45 85 -54 82 -77 -3 -31 21 -37 37 -9
9 15 12 15 33 3 22 -14 93 -49 193 -96 114 -53 229 -97 383 -148 89 -29 159
-57 155 -61 -13 -13 19 -25 38 -13 14 8 39 6 106 -11 160 -40 411 -79 631 -98
61 -6 72 -9 72 -25 0 -11 7 -19 15 -19 8 0 15 8 15 19 0 17 14 19 233 24 206
4 428 25 565 53 21 4 32 3 32 -5 0 -6 7 -11 16 -11 10 0 14 6 11 14 -4 11 5
16 36 21 130 18 485 126 673 203 68 27 72 28 83 10 16 -26 33 -22 29 8 -3 28
-6 26 137 97 179 88 263 137 455 267 52 36 106 64 120 65 19 0 24 5 23 20 -2
15 18 35 74 75 42 30 177 154 299 276 197 195 224 219 240 207 25 -18 38 -5
20 22 -14 22 -12 27 52 110 76 98 240 332 249 355 6 13 58 102 91 155 7 11 19
34 27 52 11 24 20 31 32 26 13 -5 15 -2 10 17 -4 17 6 50 34 109 98 203 200
484 236 648 4 15 14 23 32 25 31 4 31 22 1 26 -12 2 -20 9 -17 15 38 107 92
462 104 687 5 88 10 118 22 127 11 9 13 15 5 20 -7 5 -14 61 -18 138 -9 192
-34 436 -56 555 -24 129 -24 127 0 135 29 9 26 37 -3 30 -22 -6 -25 -1 -41 62
-47 188 -124 429 -176 553 -17 41 -34 84 -37 95 -4 11 -13 31 -22 44 -12 18
-12 26 -3 29 20 6 14 32 -8 32 -25 0 -26 17 -1 25 47 15 45 30 -12 137 -79
146 -79 146 -110 125 -15 -9 -28 -17 -30 -17 -2 0 -21 28 -42 63 -54 88 -159
243 -205 304 -34 44 -37 53 -25 63 8 7 15 19 15 26 0 16 -26 19 -35 4 -10 -15
-15 -10 -138 133 -121 140 -266 284 -384 381 -54 44 -70 63 -62 72 12 15 -3
27 -23 19 -8 -3 -54 25 -103 61 -103 77 -206 149 -250 174 -16 10 -60 36 -96
58 -36 22 -107 62 -158 88 -81 42 -91 50 -89 72 2 14 -3 27 -9 29 -7 3 -13 -2
-13 -11 0 -26 -15 -26 -79 5 -34 16 -97 43 -139 60 -42 16 -86 34 -97 39 -40
19 -184 66 -290 95 -148 41 -180 53 -183 68 -4 22 -32 22 -32 1 0 -10 -6 -14
-14 -11 -16 6 -77 17 -251 46 -129 21 -365 41 -482 41 -71 0 -73 1 -73 25 0
16 -6 25 -15 25 -9 0 -15 -9 -15 -23z m190 -57 c273 -18 457 -44 665 -92 214
-49 464 -131 650 -213 90 -40 358 -175 375 -189 8 -7 23 -16 32 -19 26 -9 294
-190 384 -260 234 -179 522 -468 690 -691 111 -148 264 -380 264 -401 0 -2
-20 -16 -45 -31 -44 -25 -53 -38 -37 -48 5 -3 33 -52 63 -110 52 -101 69 -119
94 -98 6 5 23 14 38 20 25 11 28 10 36 -11 5 -12 22 -51 38 -87 136 -298 233
-645 288 -1030 13 -90 19 -210 23 -424 3 -261 1 -319 -17 -465 -24 -184 -52
-339 -81 -448 -11 -40 -20 -78 -20 -85 0 -15 -86 -280 -124 -381 -65 -174
-199 -446 -294 -597 -22 -36 -55 -87 -72 -115 -166 -270 -497 -632 -799 -874
-101 -81 -390 -281 -406 -281 -5 0 -16 -6 -24 -14 -43 -38 -408 -215 -561
-272 -84 -31 -327 -111 -360 -117 -14 -3 -50 -12 -80 -20 -294 -78 -647 -114
-1025 -103 -518 15 -1028 143 -1500 377 -99 49 -189 95 -200 101 -11 7 -42 26
-70 42 -121 72 -352 229 -375 255 -3 4 -50 42 -105 86 -185 148 -490 472 -632
674 -66 94 -153 222 -153 227 0 3 -17 31 -37 62 -92 143 -242 461 -304 645
-16 48 -35 104 -43 125 -30 82 -78 270 -106 412 -52 266 -65 410 -65 715 0
220 4 324 18 430 26 207 76 457 117 590 11 33 30 96 44 140 14 44 39 116 56
160 17 44 35 92 39 106 5 14 13 34 19 45 6 10 34 69 62 129 94 201 249 463
363 611 l40 52 45 -32 44 -31 17 25 c16 24 46 60 176 206 l64 71 -35 34 c-19
18 -34 38 -34 44 0 12 114 124 245 241 159 142 459 354 630 445 149 79 359
180 405 194 14 4 43 16 65 26 51 23 226 82 335 112 206 58 439 101 655 122
277 26 338 28 525 15z"/>
<path d="M4660 7665 c0 -118 1 -125 20 -125 11 0 20 7 20 14 0 8 21 35 47 59
l47 44 -42 50 c-23 27 -42 57 -42 66 0 11 -8 17 -25 17 l-25 0 0 -125z"/>
<path d="M4830 7738 c0 -24 -3 -80 -7 -125 l-6 -83 87 0 c70 0 86 3 86 15 0 9
20 30 45 47 40 29 58 61 38 70 -18 7 -63 78 -63 97 0 20 -6 21 -90 21 l-90 0
0 -42z"/>
<path d="M5161 7658 c-23 -176 -27 -155 32 -163 64 -7 219 -41 309 -66 80 -23
75 -23 81 0 4 16 91 71 112 71 3 0 -2 -16 -10 -36 -30 -72 -27 -76 92 -117
105 -36 108 -37 123 -18 17 21 43 35 82 45 l27 6 -22 -52 c-11 -28 -17 -53
-12 -55 6 -2 69 -32 141 -67 116 -56 132 -62 141 -47 6 9 36 25 67 34 31 10
56 20 56 22 0 2 -6 29 -14 59 -8 30 -12 64 -9 75 5 19 -11 29 -130 86 -75 36
-143 65 -151 65 -15 0 -46 -52 -46 -77 0 -7 -7 -13 -15 -13 -8 0 -15 6 -15 13
0 8 -7 28 -16 46 -9 18 -14 41 -11 52 4 15 -3 23 -31 35 -56 23 -181 64 -196
64 -7 0 -20 -21 -28 -46 -8 -25 -18 -46 -24 -46 -14 -2 -54 74 -54 102 0 23
-7 27 -82 47 -125 32 -266 61 -329 68 l-56 6 -12 -93z"/>
<path d="M4025 7514 c-161 -33 -264 -57 -320 -74 -33 -10 -69 -20 -80 -22 -11
-2 -20 -8 -21 -13 -1 -25 -26 -92 -39 -109 -24 -31 -18 -44 29 -65 24 -10 54
-29 66 -41 22 -22 23 -22 79 -6 31 8 88 25 127 36 39 11 78 20 87 20 8 0 57 9
107 21 90 21 91 22 85 47 -3 14 -10 61 -15 105 -10 87 -18 118 -28 116 -4 -1
-38 -7 -77 -15z"/>
<path d="M6407 7209 c-32 -55 -56 -107 -53 -115 3 -8 20 -22 37 -32 17 -9 85
-53 151 -96 117 -78 120 -79 146 -64 15 9 48 19 74 22 l47 7 -6 64 c-4 42 -2
69 5 78 13 15 7 20 -153 122 -49 32 -110 71 -134 87 -25 15 -47 28 -50 28 -3
0 -32 -46 -64 -101z"/>
<path d="M3255 7280 c-3 -5 -15 -10 -25 -10 -14 0 -19 -7 -19 -27 0 -16 -9
-53 -19 -83 -22 -62 -23 -60 54 -85 27 -9 54 -23 60 -31 9 -11 18 -12 38 -4
29 11 33 30 12 68 -8 15 -29 62 -47 105 -32 75 -41 87 -54 67z"/>
<path d="M2990 7153 c-25 -14 -62 -35 -82 -47 -20 -12 -61 -36 -90 -54 -29
-18 -73 -45 -98 -60 l-45 -28 -7 -84 c-5 -58 -4 -87 4 -91 6 -4 35 -10 64 -14
32 -4 57 -13 62 -22 9 -15 13 -14 162 86 14 10 64 39 112 65 98 55 96 41 30
161 -18 33 -37 72 -43 88 -6 15 -14 27 -17 27 -4 -1 -27 -13 -52 -27z"/>
<path d="M4548 7153 c50 -2 134 -2 185 0 50 1 9 3 -93 3 -102 0 -143 -2 -92
-3z"/>
<path d="M4185 7132 c-49 -9 -83 -17 -75 -19 8 -1 65 6 125 16 61 11 94 19 75
19 -19 0 -75 -8 -125 -16z"/>
<path d="M4921 7146 c2 -2 36 -6 74 -9 54 -4 61 -4 30 3 -40 9 -112 13 -104 6z"/>
<path d="M5095 7120 c17 -4 41 -8 55 -8 22 0 22 1 -5 8 -16 4 -41 8 -55 8 -22
0 -22 -1 5 -8z"/>
<path d="M4000 7100 c-20 -6 -21 -8 -5 -8 11 0 31 4 45 8 20 6 21 8 5 8 -11 0
-31 -4 -45 -8z"/>
<path d="M5218 7103 c7 -3 16 -2 19 1 4 3 -2 6 -13 5 -11 0 -14 -3 -6 -6z"/>
<path d="M5295 7084 c28 -7 55 -13 60 -13 17 2 -69 27 -90 27 -11 0 3 -6 30
-14z"/>
<path d="M3925 7080 c-13 -5 -14 -9 -5 -9 8 0 24 4 35 9 13 5 14 9 5 9 -8 0
-24 -4 -35 -9z"/>
<path d="M3835 7060 c-13 -6 -15 -9 -5 -9 8 0 22 4 30 9 18 12 2 12 -25 0z"/>
<path d="M5405 7060 c11 -5 27 -9 35 -9 9 0 8 4 -5 9 -11 5 -27 9 -35 9 -9 0
-8 -4 5 -9z"/>
<path d="M3770 7040 c-18 -12 -2 -12 25 0 13 6 15 9 5 9 -8 0 -22 -4 -30 -9z"/>
<path d="M5470 7040 c8 -5 22 -9 30 -9 10 0 8 3 -5 9 -27 12 -43 12 -25 0z"/>
<path d="M5560 7016 c14 -7 36 -16 50 -20 14 -3 7 3 -15 13 -45 22 -73 27 -35
7z"/>
<path d="M3670 7010 c-8 -5 -10 -10 -5 -10 6 0 17 5 25 10 8 5 11 10 5 10 -5
0 -17 -5 -25 -10z"/>
<path d="M6883 6988 c-11 -13 -45 -57 -75 -98 l-55 -75 44 -34 c40 -31 45 -32
61 -18 15 13 122 29 122 18 0 -2 -16 -23 -34 -46 l-35 -42 38 -37 c33 -32 39
-35 51 -21 9 10 30 15 71 15 l59 0 0 62 c0 41 5 67 15 78 14 16 12 20 -25 54
-22 20 -43 36 -48 36 -4 -1 -23 -21 -42 -45 -29 -37 -36 -42 -42 -27 -10 26
-9 101 2 121 7 15 1 24 -35 50 -24 17 -45 31 -47 31 -3 0 -14 -10 -25 -22z"/>
<path d="M4331 6938 c4 -29 8 -63 8 -75 1 -14 7 -23 17 -23 12 0 14 7 10 28
-2 15 -8 48 -11 75 -4 28 -11 47 -19 47 -9 0 -11 -13 -5 -52z"/>
<path d="M5651 6987 c9 -8 89 -36 89 -32 0 6 -69 35 -83 35 -6 0 -8 -2 -6 -3z"/>
<path d="M3545 6965 c-25 -12 -26 -14 -5 -9 14 4 29 10 35 15 12 12 5 11 -30
-6z"/>
<path d="M4186 6918 c7 -82 10 -88 34 -88 16 0 20 5 16 18 -3 9 -8 35 -11 57
-10 63 -15 75 -31 75 -11 0 -13 -13 -8 -62z"/>
<path d="M3475 6940 c-3 -6 1 -7 9 -4 18 7 21 14 7 14 -6 0 -13 -4 -16 -10z"/>
<path d="M5775 6940 c3 -4 14 -10 25 -13 11 -3 18 -2 15 3 -3 4 -14 10 -25 13
-11 3 -18 2 -15 -3z"/>
<path d="M3430 6920 c-8 -5 -10 -10 -5 -10 6 0 17 5 25 10 8 5 11 10 5 10 -5
0 -17 -5 -25 -10z"/>
<path d="M5860 6906 c0 -2 7 -7 16 -10 8 -3 12 -2 9 4 -6 10 -25 14 -25 6z"/>
<path d="M3354 6884 c-18 -14 -18 -15 4 -4 12 6 22 13 22 15 0 8 -5 6 -26 -11z"/>
<path d="M5910 6880 c8 -5 20 -10 25 -10 6 0 3 5 -5 10 -8 5 -19 10 -25 10 -5
0 -3 -5 5 -10z"/>
<path d="M2544 6845 c3 -13 3 -43 0 -65 l-7 -41 -33 32 -34 33 0 -35 c0 -18
-3 -57 -6 -85 l-6 -51 77 -7 c42 -4 80 -5 83 -1 3 3 -4 15 -16 28 -12 13 -22
25 -22 28 0 11 86 -4 96 -16 6 -8 15 -10 24 -5 11 7 11 11 -1 28 -8 11 -40 57
-72 101 -57 81 -96 107 -83 56z"/>
<path d="M3278 6854 c-39 -21 -35 -28 5 -8 37 19 44 24 31 24 -5 -1 -21 -8
-36 -16z"/>
<path d="M5984 6846 c11 -9 24 -16 30 -16 12 0 7 5 -24 19 -24 11 -24 11 -6
-3z"/>
<path d="M3199 6809 l-24 -20 28 17 c15 9 27 18 27 20 0 8 -8 4 -31 -17z"/>
<path d="M6064 6806 c11 -9 24 -16 30 -16 12 0 7 5 -24 19 -24 11 -24 11 -6
-3z"/>
<path d="M3114 6764 c-18 -14 -18 -15 4 -4 12 6 22 13 22 15 0 8 -5 6 -26 -11z"/>
<path d="M6180 6746 c0 -3 9 -10 20 -16 11 -6 20 -8 20 -6 0 3 -9 10 -20 16
-11 6 -20 8 -20 6z"/>
<path d="M2989 6689 l-24 -20 28 17 c15 9 27 18 27 20 0 8 -8 4 -31 -17z"/>
<path d="M6254 6701 c7 -11 46 -35 46 -28 0 3 -12 12 -26 22 -15 9 -23 12 -20
6z"/>
<path d="M2893 6629 c-35 -22 -46 -37 -15 -20 22 13 58 40 52 41 -3 0 -20 -10
-37 -21z"/>
<path d="M4485 6634 c-11 -1 -66 -8 -123 -14 -57 -7 -101 -15 -98 -17 3 -3 42
0 88 7 46 7 166 16 268 20 l185 7 -150 0 c-82 0 -159 -1 -170 -3z"/>
<path d="M4811 6626 c2 -2 40 -6 84 -9 60 -4 69 -3 35 3 -46 9 -127 13 -119 6z"/>
<path d="M6370 6625 c0 -2 21 -18 47 -35 26 -18 41 -25 34 -17 -13 16 -81 60
-81 52z"/>
<path d="M4993 6603 c9 -2 25 -2 35 0 9 3 1 5 -18 5 -19 0 -27 -2 -17 -5z"/>
<path d="M4117 6583 c-32 -9 -56 -17 -54 -19 2 -2 40 4 83 15 43 11 68 19 54
19 -14 0 -51 -7 -83 -15z"/>
<path d="M5088 6593 c6 -2 18 -2 25 0 6 3 1 5 -13 5 -14 0 -19 -2 -12 -5z"/>
<path d="M5175 6574 c28 -7 55 -13 60 -13 17 2 -69 27 -90 27 -11 0 3 -6 30
-14z"/>
<path d="M4008 6553 c7 -3 16 -2 19 1 4 3 -2 6 -13 5 -11 0 -14 -3 -6 -6z"/>
<path d="M5290 6550 c8 -5 22 -9 30 -9 10 0 8 3 -5 9 -27 12 -43 12 -25 0z"/>
<path d="M2754 6528 c-41 -30 -52 -42 -29 -30 26 15 72 51 64 52 -4 0 -19 -10
-35 -22z"/>
<path d="M3950 6540 c-18 -12 -2 -12 25 0 13 6 15 9 5 9 -8 0 -22 -4 -30 -9z"/>
<path d="M5355 6530 c27 -12 43 -12 25 0 -8 5 -22 9 -30 9 -10 0 -8 -3 5 -9z"/>
<path d="M3908 6523 c7 -3 16 -2 19 1 4 3 -2 6 -13 5 -11 0 -14 -3 -6 -6z"/>
<path d="M3820 6500 c-25 -10 -38 -19 -30 -19 17 1 101 37 85 38 -5 0 -30 -9
-55 -19z"/>
<path d="M4550 6467 c0 -24 3 -105 7 -180 l6 -137 44 0 43 0 0 45 0 45 109 0
108 0 38 35 38 34 -29 43 c-16 24 -33 46 -38 50 -5 3 -58 9 -117 13 l-109 7 0
44 0 44 -50 0 -50 0 0 -43z"/>
<path d="M5450 6502 c8 -5 26 -13 40 -16 17 -5 20 -4 10 2 -8 5 -26 13 -40 16
-17 5 -20 4 -10 -2z"/>
<path d="M6565 6478 c16 -15 34 -28 39 -28 5 0 -4 10 -20 22 -44 33 -53 36
-19 6z"/>
<path d="M3700 6455 c-14 -8 -20 -14 -15 -14 6 0 21 6 35 14 14 8 21 14 15 14
-5 0 -21 -6 -35 -14z"/>
<path d="M7000 6383 l0 -87 36 35 36 34 -5 -67 c-2 -38 -2 -68 1 -68 3 0 21
14 39 32 l33 32 0 -49 c0 -28 -6 -55 -14 -64 -13 -14 -13 -19 3 -39 l17 -24
97 77 c53 42 97 79 97 83 0 4 -9 18 -19 31 -12 16 -21 20 -25 12 -8 -12 -116
-16 -116 -4 0 4 14 22 32 40 l32 33 -67 0 c-37 0 -67 3 -67 7 0 4 14 22 32 40
l32 33 -87 0 -87 0 0 -87z"/>
<path d="M5590 6450 c8 -5 20 -10 25 -10 6 0 3 5 -5 10 -8 5 -19 10 -25 10 -5
0 -3 -5 5 -10z"/>
<path d="M2897 6434 c-7 -8 41 -80 71 -107 37 -34 32 0 -9 57 -39 55 -49 63
-62 50z"/>
<path d="M5654 6426 c11 -9 24 -16 30 -16 12 0 7 5 -24 19 -24 11 -24 11 -6
-3z"/>
<path d="M6620 6436 c0 -2 8 -10 18 -17 15 -13 16 -12 3 4 -13 16 -21 21 -21
13z"/>
<path d="M3600 6410 c-9 -6 -10 -10 -3 -10 6 0 15 5 18 10 8 12 4 12 -15 0z"/>
<path d="M5730 6396 c0 -3 9 -10 20 -16 11 -6 20 -8 20 -6 0 3 -9 10 -20 16
-11 6 -20 8 -20 6z"/>
<path d="M2569 6373 c-13 -16 -12 -17 4 -4 9 7 17 15 17 17 0 8 -8 3 -21 -13z"/>
<path d="M3520 6375 c-14 -8 -20 -14 -14 -15 5 0 19 7 30 15 24 18 16 19 -16
0z"/>
<path d="M4960 6333 c-24 -124 -31 -108 57 -123 43 -7 108 -21 144 -31 74 -21
109 -24 109 -9 0 6 16 18 35 27 28 13 34 21 29 37 -3 12 -10 25 -15 31 -5 5
-9 19 -9 31 0 26 -30 37 -196 74 -140 31 -140 31 -154 -37z"/>
<path d="M5810 6356 c0 -3 9 -10 20 -16 11 -6 20 -8 20 -6 0 3 -9 10 -20 16
-11 6 -20 8 -20 6z"/>
<path d="M2529 6333 c-13 -16 -12 -17 4 -4 16 13 21 21 13 21 -2 0 -10 -8 -17
-17z"/>
<path d="M3438 6334 c-38 -20 -36 -28 2 -9 17 9 30 18 30 20 0 7 -1 6 -32 -11z"/>
<path d="M1951 6295 c-24 -33 -31 -49 -23 -58 5 -6 13 -37 17 -68 10 -80 11
-81 83 -68 46 8 66 8 76 0 10 -9 19 -4 38 21 13 18 28 38 31 45 5 7 -12 30
-40 56 -65 61 -133 117 -141 117 -4 0 -22 -21 -41 -45z"/>
<path d="M5894 6311 c7 -11 46 -35 46 -28 0 3 -12 12 -26 22 -15 9 -23 12 -20
6z"/>
<path d="M2489 6293 c-13 -16 -12 -17 4 -4 16 13 21 21 13 21 -2 0 -10 -8 -17
-17z"/>
<path d="M3319 6263 c-13 -17 -13 -17 6 -3 11 8 22 16 24 17 2 2 0 3 -6 3 -6
0 -17 -8 -24 -17z"/>
<path d="M2449 6253 c-13 -16 -12 -17 4 -4 9 7 17 15 17 17 0 8 -8 3 -21 -13z"/>
<path d="M3795 6262 c-6 -4 -46 -23 -90 -42 -44 -18 -82 -35 -84 -36 -5 -4 69
-154 76 -154 5 0 62 24 161 67 18 8 30 18 27 23 -3 4 2 24 10 44 18 43 15 52
-31 71 -19 8 -34 19 -34 24 0 13 -22 14 -35 3z"/>
<path d="M5982 6254 c10 -10 20 -16 22 -13 3 3 -5 11 -17 18 -21 13 -21 12 -5
-5z"/>
<path d="M5518 6212 c-6 -15 -21 -50 -34 -79 l-22 -51 70 -32 c39 -17 102 -49
142 -72 39 -22 85 -49 102 -58 52 -30 175 -120 239 -174 93 -79 93 -80 108
-68 6 6 28 12 47 14 34 3 35 4 42 58 7 53 6 56 -25 83 -151 133 -362 272 -537
354 -122 57 -119 57 -132 25z"/>
<path d="M2409 6213 c-13 -16 -12 -17 4 -4 9 7 17 15 17 17 0 8 -8 3 -21 -13z"/>
<path d="M3235 6210 c-3 -6 1 -7 9 -4 18 7 21 14 7 14 -6 0 -13 -4 -16 -10z"/>
<path d="M3200 6190 c-9 -6 -10 -10 -3 -10 6 0 15 5 18 10 8 12 4 12 -15 0z"/>
<path d="M6080 6196 c0 -3 20 -19 45 -36 25 -17 45 -29 45 -26 0 3 -20 19 -45
36 -25 17 -45 29 -45 26z"/>
<path d="M2369 6173 c-13 -16 -12 -17 4 -4 9 7 17 15 17 17 0 8 -8 3 -21 -13z"/>
<path d="M4255 6149 c-32 -5 -80 -15 -105 -23 -25 -8 -61 -18 -82 -21 -31 -6
-40 -14 -62 -57 -14 -27 -26 -54 -26 -59 0 -6 15 -16 33 -24 19 -8 39 -20 46
-28 10 -13 21 -12 79 4 37 10 103 26 147 36 l81 18 -15 83 c-8 46 -19 81 -25
81 -6 -1 -38 -5 -71 -10z"/>
<path d="M1548 6121 c-9 -17 -10 -25 -2 -28 6 -2 52 -30 102 -63 50 -33 96
-60 101 -60 18 0 23 41 7 59 -9 10 -16 31 -16 47 0 68 -3 70 -95 69 -79 0 -85
-2 -97 -24z"/>
<path d="M2329 6133 c-13 -16 -12 -17 4 -4 9 7 17 15 17 17 0 8 -8 3 -21 -13z"/>
<path d="M3105 6119 c-59 -45 -67 -57 -12 -18 42 29 65 50 55 49 -2 0 -21 -14
-43 -31z"/>
<path d="M7275 6085 c-4 -35 -13 -69 -21 -76 -11 -9 -11 -15 3 -35 8 -13 19
-24 23 -24 9 0 125 79 175 118 27 22 28 24 14 48 -14 22 -23 25 -101 29 l-86
4 -7 -64z"/>
<path d="M4490 6110 c0 -5 14 -10 30 -10 l30 0 0 -86 c0 -64 3 -85 13 -82 8 3
13 32 15 86 l3 82 29 0 c17 0 30 5 30 10 0 6 -32 10 -75 10 -43 0 -75 -4 -75
-10z"/>
<path d="M4660 6025 c0 -78 3 -95 15 -95 11 0 15 12 15 45 0 40 2 45 23 45 21
0 67 -55 67 -80 0 -5 7 -10 15 -10 21 0 19 10 -10 52 -24 36 -24 37 -5 43 25
8 35 46 20 74 -9 18 -20 21 -75 21 l-65 0 0 -95z m115 45 c0 -22 -5 -25 -42
-28 -42 -3 -43 -2 -43 28 0 30 1 31 43 28 37 -3 42 -6 42 -28z"/>
<path d="M6692 6051 c-51 -46 -52 -48 -33 -65 18 -16 21 -15 72 32 47 43 52
51 40 66 -7 9 -16 16 -20 16 -3 -1 -30 -22 -59 -49z"/>
<path d="M6980 6076 c0 -2 8 -10 18 -17 15 -13 16 -12 3 4 -13 16 -21 21 -21
13z"/>
<path d="M6250 6067 c0 -2 19 -19 43 -37 23 -19 36 -26 28 -17 -15 19 -71 61
-71 54z"/>
<path d="M7025 6020 c10 -11 20 -20 23 -20 3 0 -3 9 -13 20 -10 11 -20 20 -23
20 -3 0 3 -9 13 -20z"/>
<path d="M2181 5953 c-19 -27 -25 -40 -15 -31 18 16 59 78 51 78 -2 0 -18 -21
-36 -47z"/>
<path d="M6340 5996 c0 -2 8 -10 18 -17 15 -13 16 -12 3 4 -13 16 -21 21 -21
13z"/>
<path d="M7512 5980 c-18 -11 -46 -19 -64 -18 -27 3 -32 -1 -39 -27 -5 -16
-22 -39 -39 -50 -36 -24 -38 -39 -5 -61 23 -15 27 -15 74 15 81 49 135 91 137
105 1 7 -6 22 -15 34 l-16 22 -33 -20z"/>
<path d="M7050 5986 c0 -2 8 -10 18 -17 15 -13 16 -12 3 4 -13 16 -21 21 -21
13z"/>
<path d="M6380 5956 c0 -2 8 -10 18 -17 15 -13 16 -12 3 4 -13 16 -21 21 -21
13z"/>
<path d="M6420 5916 c0 -2 8 -10 18 -17 15 -13 16 -12 3 4 -13 16 -21 21 -21
13z"/>
<path d="M2849 5893 c-13 -16 -12 -17 4 -4 9 7 17 15 17 17 0 8 -8 3 -21 -13z"/>
<path d="M7140 5873 c0 -6 8 -17 18 -24 16 -13 16 -13 2 6 -8 11 -16 22 -17
24 -2 2 -3 0 -3 -6z"/>
<path d="M2809 5853 c-13 -16 -12 -17 4 -4 9 7 17 15 17 17 0 8 -8 3 -21 -13z"/>
<path d="M2081 5817 c-13 -21 -12 -21 5 -5 10 10 16 20 13 22 -3 3 -11 -5 -18
-17z"/>
<path d="M6500 5836 c0 -2 8 -10 18 -17 15 -13 16 -12 3 4 -13 16 -21 21 -21
13z"/>
<path d="M2769 5813 c-13 -16 -12 -17 4 -4 9 7 17 15 17 17 0 8 -8 3 -21 -13z"/>
<path d="M7170 5823 c0 -6 8 -17 18 -24 16 -13 16 -13 2 6 -8 11 -16 22 -17
24 -2 2 -3 0 -3 -6z"/>
<path d="M1617 5802 c-25 -27 -21 -50 13 -67 30 -16 54 -48 43 -59 -3 -3 -26
6 -50 20 -24 14 -48 22 -53 19 -12 -8 -13 -35 -2 -35 5 0 14 -19 21 -42 7 -24
17 -55 22 -69 l10 -26 62 19 c33 10 70 17 81 16 13 -2 22 3 24 15 3 12 -9 22
-42 37 -25 10 -46 23 -46 28 0 16 38 21 57 7 38 -26 61 -27 69 -3 17 50 13 56
-70 99 -45 23 -85 45 -90 50 -15 14 -31 11 -49 -9z"/>
<path d="M6540 5796 c0 -2 8 -10 18 -17 15 -13 16 -12 3 4 -13 16 -21 21 -21
13z"/>
<path d="M4415 5750 c-19 -5 -6 -6 35 -3 36 3 67 7 69 9 8 7 -73 2 -104 -6z"/>
<path d="M4798 5753 c12 -2 30 -2 40 0 9 3 -1 5 -23 4 -22 0 -30 -2 -17 -4z"/>
<path d="M6600 5723 c18 -24 35 -43 37 -43 7 0 -35 56 -54 71 -9 8 -2 -5 17
-28z"/>
<path d="M7220 5753 c0 -6 8 -17 18 -24 16 -13 16 -13 2 6 -8 11 -16 22 -17
24 -2 2 -3 0 -3 -6z"/>
<path d="M4915 5734 c33 -7 67 -13 75 -12 23 1 -82 26 -110 26 -14 0 2 -6 35
-14z"/>
<path d="M4348 5733 c6 -2 18 -2 25 0 6 3 1 5 -13 5 -14 0 -19 -2 -12 -5z"/>
<path d="M4308 5723 c7 -3 16 -2 19 1 4 3 -2 6 -13 5 -11 0 -14 -3 -6 -6z"/>
<path d="M2013 5708 c-15 -20 -25 -38 -20 -38 3 0 12 11 21 25 17 26 16 35 -1
13z"/>
<path d="M5055 5710 c27 -12 43 -12 25 0 -8 5 -22 9 -30 9 -10 0 -8 -3 5 -9z"/>
<path d="M4190 5700 c-18 -12 -2 -12 25 0 13 6 15 9 5 9 -8 0 -22 -4 -30 -9z"/>
<path d="M7250 5701 c0 -6 4 -13 10 -16 6 -3 7 1 4 9 -7 18 -14 21 -14 7z"/>
<path d="M5115 5690 c27 -12 43 -12 25 0 -8 5 -22 9 -30 9 -10 0 -8 -3 5 -9z"/>
<path d="M7008 5664 c-58 -36 -72 -54 -42 -54 19 0 114 67 114 81 0 15 -12 10
-72 -27z"/>
<path d="M2644 5668 l-19 -23 23 19 c21 18 27 26 19 26 -2 0 -12 -10 -23 -22z"/>
<path d="M4148 5683 c7 -3 16 -2 19 1 4 3 -2 6 -13 5 -11 0 -14 -3 -6 -6z"/>
<path d="M4080 5665 c-14 -8 -20 -14 -15 -14 6 0 21 6 35 14 14 8 21 14 15 14
-5 0 -21 -6 -35 -14z"/>
<path d="M5210 5660 c19 -11 40 -19 45 -19 6 0 -6 8 -25 19 -19 11 -39 19 -45
19 -5 0 6 -8 25 -19z"/>
<path d="M1960 5625 c-7 -9 -11 -17 -9 -20 3 -2 10 5 17 15 14 24 10 26 -8 5z"/>
<path d="M2610 5625 c-7 -9 -11 -17 -9 -20 3 -2 10 5 17 15 14 24 10 26 -8 5z"/>
<path d="M3970 5620 c-19 -11 -30 -19 -25 -19 6 0 26 8 45 19 19 11 31 19 25
19 -5 0 -26 -8 -45 -19z"/>
<path d="M5290 5635 c0 -7 61 -37 66 -33 2 3 -12 12 -31 21 -19 9 -35 15 -35
12z"/>
<path d="M7160 5625 c-14 -8 -32 -12 -40 -10 -23 7 -113 -47 -127 -74 -6 -14
-23 -31 -37 -38 -14 -8 -26 -20 -26 -29 0 -30 32 -25 96 15 36 23 69 41 74 41
5 0 15 6 22 14 8 7 33 23 56 35 45 23 49 30 30 49 -15 15 -17 15 -48 -3z"/>
<path d="M7300 5620 c6 -11 13 -20 16 -20 2 0 0 9 -6 20 -6 11 -13 20 -16 20
-2 0 0 -9 6 -20z"/>
<path d="M5380 5596 c0 -3 9 -10 20 -16 11 -6 20 -8 20 -6 0 3 -9 10 -20 16
-11 6 -20 8 -20 6z"/>
<path d="M6730 5555 c17 -25 33 -45 36 -45 3 0 -9 20 -26 45 -17 25 -33 45
-36 45 -3 0 9 -20 26 -45z"/>
<path d="M3880 5575 c-14 -8 -20 -14 -14 -15 5 0 19 7 30 15 24 18 16 19 -16
0z"/>
<path d="M5450 5556 c0 -3 9 -10 20 -16 11 -6 20 -8 20 -6 0 3 -9 10 -20 16
-11 6 -20 8 -20 6z"/>
<path d="M7340 5554 c0 -6 7 -19 16 -30 14 -18 14 -18 3 6 -14 31 -19 36 -19
24z"/>
<path d="M3800 5530 c-9 -6 -10 -10 -3 -10 6 0 15 5 18 10 8 12 4 12 -15 0z"/>
<path d="M2533 5518 c-15 -20 -25 -38 -20 -38 3 0 12 11 21 25 17 26 16 35 -1
13z"/>
<path d="M1896 5503 c-6 -14 -5 -15 5 -6 7 7 10 15 7 18 -3 3 -9 -2 -12 -12z"/>
<path d="M3749 5499 l-24 -20 28 17 c15 9 27 18 27 20 0 8 -8 4 -31 -17z"/>
<path d="M6050 5463 l0 -57 55 54 c30 30 55 56 55 57 0 2 -25 3 -55 3 l-55 0
0 -57z"/>
<path d="M5540 5496 c0 -2 7 -7 16 -10 8 -3 12 -2 9 4 -6 10 -25 14 -25 6z"/>
<path d="M7385 5460 c9 -16 18 -30 21 -30 2 0 -2 14 -11 30 -9 17 -18 30 -21
30 -2 0 2 -13 11 -30z"/>
<path d="M5587 5469 c7 -7 15 -10 18 -7 3 3 -2 9 -12 12 -14 6 -15 5 -6 -5z"/>
<path d="M3017 5415 l-38 -44 12 -60 12 -61 56 3 c53 2 58 4 89 44 31 41 40
63 25 63 -5 0 -32 23 -61 50 -29 28 -53 50 -55 49 -1 0 -19 -20 -40 -44z"/>
<path d="M3680 5450 c-9 -6 -10 -10 -3 -10 6 0 15 5 18 10 8 12 4 12 -15 0z"/>
<path d="M1450 5446 c0 -2 13 -34 30 -70 16 -36 27 -66 25 -66 -2 0 -27 9 -55
20 l-51 20 -10 -28 c-24 -62 -109 -327 -109 -340 0 -7 -9 -46 -19 -85 -30
-111 -59 -277 -75 -437 -26 -245 -26 -241 -7 -247 19 -7 91 -74 91 -85 0 -4
-25 -8 -57 -8 l-56 0 7 -146 c7 -159 14 -206 27 -198 11 7 100 -67 93 -78 -3
-4 -20 -8 -37 -8 -46 0 -59 -12 -51 -43 3 -15 10 -27 16 -27 14 0 98 -60 98
-70 0 -4 -22 -11 -50 -15 -27 -4 -50 -10 -50 -15 0 -4 7 -38 15 -76 8 -38 19
-95 25 -126 l11 -57 65 -30 c35 -16 64 -34 64 -39 0 -5 -21 -15 -47 -22 -27
-7 -49 -14 -51 -15 -7 -5 22 -54 29 -49 5 2 36 -9 70 -27 71 -36 73 -35 110
49 11 25 25 42 35 42 11 0 14 5 10 16 -3 9 -6 21 -6 29 0 10 -7 10 -37 -1 -21
-7 -46 -13 -56 -14 -16 0 -16 3 3 40 11 21 29 48 40 58 l21 19 -26 123 c-14
67 -25 123 -25 124 0 0 -23 -1 -51 -3 l-51 -3 25 38 c13 22 34 44 46 49 15 7
20 16 17 30 -3 11 -6 26 -6 33 0 12 -38 10 -94 -5 -15 -4 -12 4 15 42 19 27
42 50 52 53 15 4 18 11 13 35 -3 16 -6 87 -6 158 l0 129 -50 0 c-27 0 -50 4
-50 8 0 12 74 82 86 82 7 0 13 36 17 88 17 270 95 644 178 853 10 26 20 61 21
79 3 29 -1 34 -29 44 -60 21 -58 31 12 61 37 15 63 31 58 35 -4 4 -28 14 -53
23 -25 8 -70 25 -100 36 -59 23 -60 23 -60 17z"/>
<path d="M1856 5423 c-6 -14 -5 -15 5 -6 7 7 10 15 7 18 -3 3 -9 -2 -12 -12z"/>
<path d="M3634 5418 l-19 -23 23 19 c21 18 27 26 19 26 -2 0 -12 -10 -23 -22z"/>
<path d="M6195 5432 l-51 -3 -11 -57 -10 -57 40 -55 c23 -30 44 -59 48 -64 4
-4 23 4 43 19 40 31 43 26 20 -41 -15 -44 -15 -49 2 -80 10 -19 20 -34 21 -34
1 0 17 8 35 19 43 24 112 64 116 67 8 5 -50 84 -58 79 -5 -3 -29 -1 -52 6 -40
10 -42 12 -23 26 11 8 26 18 34 23 12 6 8 16 -19 51 -81 105 -80 104 -135 101z"/>
<path d="M6810 5433 c0 -6 8 -17 18 -24 16 -13 16 -13 2 6 -8 11 -16 22 -17
24 -2 2 -3 0 -3 -6z"/>
<path d="M7427 5375 c9 -19 18 -33 21 -31 4 5 -26 66 -33 66 -3 0 3 -16 12
-35z"/>
<path d="M7704 5383 c-10 -41 -42 -100 -56 -106 -9 -3 -10 -8 -3 -15 10 -11
77 10 160 48 11 5 32 14 48 20 15 5 27 17 27 26 0 8 -6 14 -12 11 -7 -2 -41 7
-76 20 -78 29 -80 29 -88 -4z"/>
<path d="M2453 5388 c-15 -20 -25 -38 -20 -38 3 0 12 11 21 25 17 26 16 35 -1
13z"/>
<path d="M3584 5378 l-19 -23 23 19 c21 18 27 26 19 26 -2 0 -12 -10 -23 -22z"/>
<path d="M2694 5362 c-8 -12 -12 -26 -10 -31 3 -5 35 -27 71 -49 l64 -41 21
28 c17 25 18 30 5 41 -8 7 -17 27 -21 45 -6 34 -6 34 -60 32 -45 -2 -58 -6
-70 -25z"/>
<path d="M4706 5303 c-4 -49 -9 -116 -12 -150 l-6 -63 40 0 39 0 17 108 c9 59
16 126 16 150 l0 42 -44 0 -44 0 -6 -87z"/>
<path d="M5732 5353 c66 -57 79 -63 23 -11 -27 26 -53 47 -58 48 -4 0 12 -17
35 -37z"/>
<path d="M4820 5313 c-11 -67 -30 -218 -27 -218 1 0 33 -8 71 -18 38 -10 73
-14 76 -10 4 5 19 49 34 98 15 50 34 108 41 131 l13 41 -83 21 c-46 12 -90 22
-98 22 -11 0 -18 -19 -27 -67z"/>
<path d="M6860 5351 c5 -11 15 -23 21 -27 6 -3 3 5 -6 20 -20 30 -30 35 -15 7z"/>
<path d="M7178 5298 c-55 -29 -71 -56 -25 -42 48 14 116 50 113 59 -5 18 -30
13 -88 -17z"/>
<path d="M2400 5300 c-6 -11 -8 -20 -6 -20 3 0 10 9 16 20 6 11 8 20 6 20 -3
0 -10 -9 -16 -20z"/>
<path d="M7461 5300 c14 -31 19 -36 19 -24 0 6 -7 19 -16 30 -14 18 -14 18 -3
-6z"/>
<path d="M1795 5299 c-4 -6 -5 -12 -2 -15 2 -3 7 2 10 11 7 17 1 20 -8 4z"/>
<path d="M4098 5274 l-28 -15 41 -82 c22 -45 50 -102 62 -127 12 -25 23 -47
24 -49 2 -2 14 1 28 7 l24 11 -25 58 c-14 32 -32 72 -39 88 -8 17 -23 51 -34
78 -12 26 -22 47 -24 47 -1 -1 -14 -7 -29 -16z"/>
<path d="M5121 5248 c-58 -135 -91 -215 -91 -221 0 -8 94 -57 110 -57 11 0
103 -62 136 -91 26 -24 28 -24 56 4 44 44 158 178 158 185 0 11 -66 72 -78 72
-6 0 -12 4 -14 9 -7 18 -225 140 -251 141 -4 0 -16 -19 -26 -42z"/>
<path d="M5820 5276 c0 -2 8 -10 18 -17 15 -13 16 -12 3 4 -13 16 -21 21 -21
13z"/>
<path d="M6910 5260 c6 -11 13 -20 16 -20 2 0 0 9 -6 20 -6 11 -13 20 -16 20
-2 0 0 -9 6 -20z"/>
<path d="M1772 5235 c-17 -37 -14 -45 4 -12 9 16 14 31 11 33 -2 2 -9 -7 -15
-21z"/>
<path d="M2360 5220 c-6 -11 -8 -20 -6 -20 3 0 10 9 16 20 6 11 8 20 6 20 -3
0 -10 -9 -16 -20z"/>
<path d="M5868 5225 c6 -11 23 -31 39 -45 l28 -25 -30 35 c-47 55 -48 56 -37
35z"/>
<path d="M7491 5225 c0 -5 8 -26 19 -45 11 -19 19 -30 19 -25 0 6 -8 26 -19
45 -11 19 -19 31 -19 25z"/>
<path d="M1947 5206 c-7 -19 121 -72 136 -57 9 9 1 14 -93 54 -14 6 -28 12
-31 14 -4 2 -9 -3 -12 -11z"/>
<path d="M7784 5185 c-4 -18 -18 -31 -45 -42 -43 -17 -50 -40 -21 -66 16 -15
24 -14 102 15 47 16 95 32 108 35 14 4 22 13 22 27 0 35 -12 42 -70 41 -30 0
-63 4 -72 9 -13 6 -19 2 -24 -19z"/>
<path d="M6950 5180 c6 -11 13 -20 16 -20 2 0 0 9 -6 20 -6 11 -13 20 -16 20
-2 0 0 -9 6 -20z"/>
<path d="M2320 5140 c-6 -11 -8 -20 -6 -20 3 0 10 9 16 20 6 11 8 20 6 20 -3
0 -10 -9 -16 -20z"/>
<path d="M3331 5113 c-19 -27 -25 -40 -15 -31 18 16 59 78 51 78 -2 0 -18 -21
-36 -47z"/>
<path d="M5930 5146 c0 -2 8 -10 18 -17 15 -13 16 -12 3 4 -13 16 -21 21 -21
13z"/>
<path d="M6635 5113 c-38 -19 -71 -36 -72 -37 -2 -1 2 -16 9 -33 9 -23 17 -30
37 -29 14 0 38 -3 53 -7 25 -7 29 -4 43 30 9 21 20 40 26 43 10 7 -8 70 -19
70 -4 -1 -38 -17 -77 -37z"/>
<path d="M7288 5111 c-49 -19 -65 -30 -59 -39 6 -11 14 -10 42 2 19 8 49 20
67 26 17 7 32 19 32 26 0 18 -2 17 -82 -15z"/>
<path d="M6980 5114 c0 -6 7 -19 16 -30 14 -18 14 -18 3 6 -14 31 -19 36 -19
24z"/>
<path d="M7530 5115 c0 -5 5 -17 10 -25 5 -8 10 -10 10 -5 0 6 -5 17 -10 25
-5 8 -10 11 -10 5z"/>
<path d="M1716 5095 c-9 -26 -7 -32 5 -12 6 10 9 21 6 23 -2 3 -7 -2 -11 -11z"/>
<path d="M2290 5069 c-7 -11 -10 -23 -7 -25 2 -2 9 7 15 21 14 30 7 33 -8 4z"/>
<path d="M5996 5067 c3 -10 9 -15 12 -12 3 3 0 11 -7 18 -10 9 -11 8 -5 -6z"/>
<path d="M7550 5065 c0 -5 5 -17 10 -25 5 -8 10 -10 10 -5 0 6 -5 17 -10 25
-5 8 -10 11 -10 5z"/>
<path d="M1696 5025 c-9 -26 -7 -32 5 -12 6 10 9 21 6 23 -2 3 -7 -2 -11 -11z"/>
<path d="M6021 5023 c7 -12 15 -20 18 -17 3 2 -3 12 -13 22 -17 16 -18 16 -5
-5z"/>
<path d="M7016 5027 c3 -10 9 -15 12 -12 3 3 0 11 -7 18 -10 9 -11 8 -5 -6z"/>
<path d="M3235 4974 c-9 -15 -12 -23 -6 -20 11 7 35 46 28 46 -3 0 -12 -12
-22 -26z"/>
<path d="M7332 4981 c-56 -19 -69 -27 -59 -37 8 -9 147 36 147 47 0 14 -30 10
-88 -10z"/>
<path d="M7570 4995 c0 -5 5 -17 10 -25 5 -8 10 -10 10 -5 0 6 -5 17 -10 25
-5 8 -10 11 -10 5z"/>
<path d="M1681 4983 c-1 -6 -4 -20 -7 -30 -5 -17 -5 -17 6 0 6 10 9 23 6 30
-3 9 -5 9 -5 0z"/>
<path d="M2239 4944 c-5 -15 -8 -29 -5 -31 2 -2 8 10 14 26 13 38 5 41 -9 5z"/>
<path d="M6070 4955 c0 -5 5 -17 10 -25 5 -8 10 -10 10 -5 0 6 -5 17 -10 25
-5 8 -10 11 -10 5z"/>
<path d="M7591 4940 c0 -8 4 -22 9 -30 12 -18 12 -2 0 25 -6 13 -9 15 -9 5z"/>
<path d="M7056 4920 c3 -14 11 -32 16 -40 6 -10 7 -7 2 10 -3 14 -11 32 -16
40 -6 10 -7 7 -2 -10z"/>
<path d="M3203 4918 c-15 -20 -25 -38 -20 -38 3 0 12 11 21 25 17 26 16 35 -1
13z"/>
<path d="M2720 4899 c0 -8 7 -23 15 -33 8 -11 15 -27 15 -37 0 -9 6 -19 13
-22 13 -5 107 33 107 43 0 3 -26 14 -57 26 -32 12 -66 24 -75 29 -12 5 -18 3
-18 -6z"/>
<path d="M6462 4875 c-7 -14 -12 -33 -12 -41 0 -8 -6 -17 -14 -20 -11 -4 -10
-16 7 -65 11 -34 25 -58 31 -55 6 3 36 12 66 22 93 28 91 25 68 92 -20 56 -23
59 -67 72 -25 8 -51 16 -57 17 -6 2 -16 -8 -22 -22z"/>
<path d="M8205 4880 c-22 -4 -73 -13 -112 -20 -40 -6 -73 -15 -73 -18 1 -7
123 -92 132 -92 3 0 26 32 52 70 25 39 45 70 44 69 -2 -1 -21 -5 -43 -9z"/>
<path d="M1641 4839 c-7 -22 -11 -43 -8 -45 2 -2 9 14 16 37 7 22 11 43 8 45
-2 2 -9 -14 -16 -37z"/>
<path d="M2206 4840 c-9 -22 -16 -46 -16 -53 1 -6 10 10 20 37 11 28 18 51 16
53 -2 2 -11 -14 -20 -37z"/>
<path d="M3600 4871 c0 -6 4 -11 9 -11 5 0 16 -6 23 -13 7 -7 38 -30 68 -52
30 -22 58 -44 62 -49 4 -6 10 -8 13 -4 3 3 -11 19 -32 35 -89 69 -143 104
-143 94z"/>
<path d="M6116 4867 c3 -10 9 -15 12 -12 3 3 0 11 -7 18 -10 9 -11 8 -5 -6z"/>
<path d="M7611 4860 c0 -8 4 -24 9 -35 5 -13 9 -14 9 -5 0 8 -4 24 -9 35 -5
13 -9 14 -9 5z"/>
<path d="M7337 4843 c-41 -14 -46 -19 -41 -37 9 -31 8 -30 71 -11 68 21 76 26
67 48 -8 21 -34 21 -97 0z"/>
<path d="M3150 4820 c-6 -11 -8 -20 -6 -20 3 0 10 9 16 20 6 11 8 20 6 20 -3
0 -10 -9 -16 -20z"/>
<path d="M3560 4821 c-11 -22 -9 -24 149 -127 68 -44 86 -52 93 -40 11 19 2
39 -21 51 -33 17 -136 89 -139 98 -4 7 -56 37 -66 37 -3 0 -10 -9 -16 -19z"/>
<path d="M6130 4831 c0 -6 4 -13 10 -16 6 -3 7 1 4 9 -7 18 -14 21 -14 7z"/>
<path d="M7091 4815 c1 -19 18 -51 18 -35 0 8 -4 22 -9 30 -5 8 -9 11 -9 5z"/>
<path d="M6150 4795 c0 -5 5 -17 10 -25 5 -8 10 -10 10 -5 0 6 -5 17 -10 25
-5 8 -10 11 -10 5z"/>
<path d="M7632 4790 c0 -8 4 -26 8 -40 6 -20 8 -21 8 -5 0 11 -3 29 -8 40 -5
12 -8 14 -8 5z"/>
<path d="M3120 4749 c-7 -11 -10 -23 -7 -25 2 -2 9 7 15 21 14 30 7 33 -8 4z"/>
<path d="M7111 4750 c0 -8 4 -24 9 -35 5 -13 9 -14 9 -5 0 8 -4 24 -9 35 -5
13 -9 14 -9 5z"/>
<path d="M1606 4681 c-9 -38 -16 -78 -15 -88 0 -10 9 20 20 66 10 47 17 86 15
89 -2 2 -11 -28 -20 -67z"/>
<path d="M3796 4726 c3 -8 13 -17 22 -21 13 -5 13 -2 -3 15 -21 24 -26 25 -19
6z"/>
<path d="M2161 4674 c-7 -25 -10 -48 -8 -51 3 -2 10 17 16 43 7 25 10 48 8 51
-3 2 -10 -17 -16 -43z"/>
<path d="M6192 4689 c6 -16 12 -28 14 -26 5 5 -13 57 -20 57 -3 0 0 -14 6 -31z"/>
<path d="M6867 4714 c-3 -3 -36 -14 -74 -24 -59 -15 -68 -20 -68 -41 0 -16 8
-25 28 -30 49 -13 78 -49 39 -49 -10 0 -27 -6 -38 -14 -19 -14 -19 -15 1 -21
11 -3 35 -14 53 -23 l33 -16 39 43 c45 49 44 64 -3 50 -17 -5 -35 -9 -40 -9
-12 0 23 60 39 67 7 3 14 18 14 33 0 28 -12 45 -23 34z"/>
<path d="M3481 4689 c-5 -13 -6 -27 -2 -31 11 -13 230 -118 244 -118 8 0 18 7
21 16 7 19 -9 33 -69 64 -44 22 -66 35 -106 62 -15 9 -39 20 -53 24 -21 5 -28
2 -35 -17z"/>
<path d="M7651 4674 c0 -11 3 -14 6 -6 3 7 2 16 -1 19 -3 4 -6 -2 -5 -13z"/>
<path d="M7900 4639 c-17 -28 -40 -53 -51 -56 -22 -6 -23 -15 -8 -98 l10 -61
97 13 c123 16 122 16 122 -2 0 -8 9 -15 19 -15 10 0 41 -18 67 -40 l49 -40 43
50 c24 27 50 50 58 50 8 0 14 8 14 18 0 16 -8 17 -107 10 -58 -5 -108 -6 -110
-4 -2 2 -9 36 -15 75 -7 48 -15 71 -24 71 -7 0 -37 18 -66 40 -29 22 -56 40
-60 40 -3 0 -20 -23 -38 -51z"/>
<path d="M3077 4633 c-9 -25 -16 -48 -14 -50 2 -2 12 17 22 42 9 26 15 48 13
50 -2 2 -12 -17 -21 -42z"/>
<path d="M7131 4665 c0 -5 6 -32 13 -60 8 -27 14 -41 14 -30 0 21 -25 107 -27
90z"/>
<path d="M7662 4635 c0 -11 4 -33 8 -50 7 -27 8 -27 8 -5 0 14 -4 36 -8 50 -6
20 -8 21 -8 5z"/>
<path d="M6222 4605 c0 -5 6 -26 13 -45 7 -19 14 -28 14 -20 0 8 -6 29 -14 45
-7 17 -13 26 -13 20z"/>
<path d="M3429 4562 c-5 -15 -14 -38 -19 -52 -26 -73 -50 -189 -60 -301 -19
-201 17 -458 85 -606 8 -17 15 -36 15 -42 0 -7 15 -4 38 8 20 11 58 29 84 41
54 24 141 64 147 67 2 2 -1 8 -6 15 -6 7 -24 54 -39 103 -28 87 -29 98 -29
285 1 183 2 200 27 280 41 129 45 118 -52 157 -47 18 -94 38 -105 43 -64 31
-75 31 -86 2z"/>
<path d="M2130 4515 c-7 -36 -10 -68 -8 -70 3 -3 10 25 17 61 6 37 10 68 8 71
-3 2 -10 -26 -17 -62z"/>
<path d="M3046 4524 c-4 -14 -5 -28 -3 -31 3 -2 8 8 11 23 4 14 5 28 3 31 -3
2 -8 -8 -11 -23z"/>
<path d="M7162 4530 c0 -14 2 -19 5 -12 2 6 2 18 0 25 -3 6 -5 1 -5 -13z"/>
<path d="M7682 4530 c0 -14 2 -19 5 -12 2 6 2 18 0 25 -3 6 -5 1 -5 -13z"/>
<path d="M1575 4475 c-4 -31 -5 -58 -3 -61 3 -2 8 21 12 52 4 31 5 59 2 61 -2
3 -8 -21 -11 -52z"/>
<path d="M6251 4500 c0 -3 8 -45 19 -95 14 -60 18 -73 15 -39 -4 42 -31 149
-34 134z"/>
<path d="M3026 4444 c-4 -20 -5 -38 -3 -40 3 -3 8 11 11 32 4 20 5 38 3 40 -3
3 -8 -11 -11 -32z"/>
<path d="M6593 4434 c-10 -14 -26 -33 -35 -42 -34 -32 -22 -43 40 -37 92 9
122 15 122 24 0 9 -52 51 -87 70 -19 10 -24 8 -40 -15z"/>
<path d="M7172 4435 c0 -16 2 -22 5 -12 2 9 2 23 0 30 -3 6 -5 -1 -5 -18z"/>
<path d="M7693 4405 c0 -22 2 -30 4 -17 2 12 2 30 0 40 -3 9 -5 -1 -4 -23z"/>
<path d="M2112 4400 c0 -19 2 -27 5 -17 2 9 2 25 0 35 -3 9 -5 1 -5 -18z"/>
<path d="M1563 4360 c0 -25 2 -35 4 -22 2 12 2 32 0 45 -2 12 -4 2 -4 -23z"/>
<path d="M7187 4340 c3 -36 9 -139 13 -230 l8 -165 -4 185 c-2 102 -9 205 -14
230 -8 39 -8 37 -3 -20z"/>
<path d="M4010 4269 c0 -100 2 -110 18 -107 12 2 18 14 20 40 2 20 11 43 21
52 17 15 20 13 49 -34 30 -48 56 -69 69 -57 3 4 -11 34 -31 67 -20 34 -36 65
-36 68 0 4 14 24 31 45 l30 37 -24 0 c-17 0 -37 -15 -66 -47 l-40 -48 -1 48
c0 40 -3 47 -20 47 -19 0 -20 -7 -20 -111z"/>
<path d="M4242 4364 c-17 -12 -22 -24 -20 -46 3 -30 20 -44 86 -69 42 -15 40
-43 -5 -47 -22 -2 -35 3 -46 18 -9 13 -20 18 -31 14 -20 -8 -20 -14 -1 -41 32
-46 139 -37 151 12 13 51 2 67 -59 88 -43 14 -57 23 -55 36 4 21 51 26 68 7
13 -16 50 -22 50 -8 -1 44 -93 68 -138 36z"/>
<path d="M4422 4273 c3 -93 5 -108 21 -111 14 -3 17 4 17 47 l0 51 44 0 45 0
3 -47 c2 -36 7 -49 21 -51 15 -3 17 7 17 107 0 104 -1 111 -20 111 -17 0 -20
-7 -20 -46 l0 -45 -42 3 c-43 3 -43 3 -46 46 -3 34 -7 42 -23 42 -19 0 -20 -6
-17 -107z"/>
<path d="M4623 4363 c3 -10 15 -45 27 -78 59 -167 71 -167 131 -2 34 94 34 97
11 97 -14 0 -25 -20 -46 -85 -15 -47 -29 -85 -30 -85 -2 0 -16 38 -31 85 -22
69 -31 85 -47 85 -15 0 -19 -5 -15 -17z"/>
<path d="M4940 4360 c-11 -11 -20 -24 -20 -30 0 -16 31 -12 51 6 21 19 49 12
49 -13 0 -9 -22 -40 -49 -68 -27 -27 -51 -59 -53 -70 -3 -18 3 -20 67 -20 58
0 70 3 73 18 3 14 -4 17 -37 17 -23 0 -41 3 -41 6 0 4 18 26 40 50 46 50 49
72 17 102 -29 27 -71 28 -97 2z"/>
<path d="M5202 4373 c-20 -8 -42 -59 -42 -96 0 -100 60 -148 115 -92 21 20 25
33 25 88 0 53 -4 67 -23 85 -22 21 -48 26 -75 15z m53 -98 c0 -60 -3 -70 -19
-73 -26 -5 -36 15 -36 74 0 52 14 77 40 72 12 -3 15 -19 15 -73z"/>
<path d="M3006 4308 c-13 -112 -16 -246 -7 -313 9 -66 9 -65 4 31 -3 56 0 152
7 213 6 62 10 115 7 117 -2 2 -7 -19 -11 -48z"/>
<path d="M7705 4080 c0 -157 3 -258 6 -225 9 77 9 360 0 445 -3 36 -6 -63 -6
-220z"/>
<path d="M7935 4280 c-22 -28 -48 -50 -57 -50 -16 0 -18 -11 -18 -80 l0 -80
35 0 c19 0 35 -4 35 -8 0 -14 -35 -42 -53 -42 -11 0 -17 -8 -17 -24 0 -29 28
-36 147 -36 l85 0 -7 -80 c-7 -75 -6 -80 12 -80 12 0 33 -18 52 -44 l32 -45
-58 -3 -58 -3 -2 -45 c-3 -44 -19 -148 -29 -182 -4 -13 0 -18 14 -18 13 0 31
-17 51 -50 17 -27 36 -50 43 -50 7 0 31 14 52 30 22 17 50 30 62 30 19 0 24 8
34 53 11 49 29 209 25 215 -1 1 -25 5 -54 9 -28 3 -51 9 -51 13 0 13 79 70 98
70 16 0 20 10 26 53 3 28 6 73 6 98 0 44 -2 47 -31 53 -17 3 -67 6 -110 6 -46
0 -79 4 -79 10 0 6 -6 10 -13 10 -7 0 -26 14 -42 30 l-29 30 42 0 42 0 0 80
c0 66 -3 81 -18 89 -10 5 -40 28 -67 50 -27 23 -52 41 -55 41 -3 -1 -23 -23
-45 -50z"/>
<path d="M5780 4300 c-41 -11 -89 -19 -107 -20 -39 0 -46 -10 -38 -52 l6 -33
92 8 c51 5 116 11 145 13 l53 6 -3 46 c-3 46 -4 47 -38 49 -19 1 -69 -7 -110
-17z"/>
<path d="M1553 4230 c0 -47 2 -66 4 -42 2 23 2 61 0 85 -2 23 -4 4 -4 -43z"/>
<path d="M2097 4173 c-3 -65 -2 -163 2 -218 5 -81 7 -59 7 118 1 119 0 217 -1
217 -1 0 -5 -53 -8 -117z"/>
<path d="M6294 4105 c0 -77 2 -107 3 -67 2 40 2 103 0 140 -2 37 -3 4 -3 -73z"/>
<path d="M5100 4179 c0 -14 5 -19 17 -17 26 5 29 38 4 38 -15 0 -21 -6 -21
-21z"/>
<path d="M5795 4173 c-77 -6 -141 -12 -142 -12 -2 -1 -3 -16 -3 -35 l0 -33
141 -7 c78 -4 143 -5 146 -3 2 3 3 27 1 53 l-3 49 -140 -12z"/>
<path d="M5645 3975 c-4 -46 -4 -89 0 -95 3 -5 19 -10 34 -10 15 0 61 -9 102
-20 41 -11 88 -20 105 -20 l31 0 12 78 c24 153 25 139 -10 146 -17 3 -84 6
-149 6 l-118 0 -7 -85z"/>
<path d="M6782 3893 c-6 -82 -14 -160 -18 -175 -5 -22 -3 -28 10 -28 9 0 25
-13 34 -30 20 -35 31 -37 65 -10 14 11 32 20 39 20 10 0 18 21 26 64 19 101
36 272 29 290 -5 13 -22 16 -90 16 l-83 0 -12 -147z"/>
<path d="M4257 3985 c-43 -37 -43 -68 -1 -40 l24 15 0 -80 c0 -73 2 -80 20
-80 19 0 20 7 20 110 0 125 -3 128 -63 75z"/>
<path d="M4408 4009 c-10 -5 -18 -16 -18 -24 0 -23 20 -28 34 -9 8 10 20 15
30 11 22 -9 20 -34 -4 -47 -26 -14 -25 -23 3 -35 31 -14 31 -59 -1 -63 -13 -2
-25 3 -28 12 -9 24 -44 20 -44 -4 0 -13 12 -26 35 -37 42 -20 79 -8 97 33 10
22 9 31 -5 57 -13 21 -15 33 -7 41 40 40 -39 97 -92 65z"/>
<path d="M4565 4000 c-15 -17 -17 -26 -9 -48 8 -20 7 -33 -4 -49 -21 -34 -8
-71 33 -90 42 -20 79 -8 97 33 10 22 9 31 -5 57 -13 21 -15 33 -7 41 17 17 11
44 -12 60 -31 22 -71 20 -93 -4z m73 -33 c4 -20 -25 -34 -40 -19 -15 15 -1 44
19 40 10 -2 19 -11 21 -21z m2 -72 c18 -22 8 -50 -19 -50 -32 0 -49 28 -32 49
17 20 35 20 51 1z"/>
<path d="M4730 3909 c0 -100 2 -110 18 -107 12 2 18 14 20 40 2 20 11 43 21
52 17 15 20 13 49 -34 30 -48 56 -69 69 -57 3 4 -11 34 -31 67 -20 34 -36 65
-36 68 0 4 14 24 31 45 l30 37 -24 0 c-17 0 -37 -15 -66 -47 l-40 -48 -1 48
c0 40 -3 47 -20 47 -19 0 -20 -7 -20 -111z"/>
<path d="M4940 3916 c0 -105 8 -129 35 -106 9 7 15 8 20 0 12 -19 46 -10 76
19 33 33 36 58 13 102 -14 28 -19 31 -60 27 -44 -3 -44 -3 -44 29 0 26 -4 33
-20 33 -19 0 -20 -7 -20 -104z m112 -12 c9 -18 9 -30 1 -42 -22 -36 -73 -21
-73 22 0 48 53 63 72 20z"/>
<path d="M1553 3930 c0 -47 2 -66 4 -42 2 23 2 61 0 85 -2 23 -4 4 -4 -43z"/>
<path d="M7186 3851 c-4 -46 -5 -86 -2 -88 6 -6 19 143 14 159 -3 7 -8 -25
-12 -71z"/>
<path d="M3012 3890 c0 -19 2 -27 5 -17 2 9 2 25 0 35 -3 9 -5 1 -5 -18z"/>
<path d="M6271 3829 c-7 -34 -10 -63 -8 -65 2 -3 10 23 17 56 7 33 11 63 8 65
-2 2 -10 -23 -17 -56z"/>
<path d="M2617 3870 c-27 -5 -51 -11 -53 -13 -7 -6 32 -219 55 -302 24 -89 68
-221 79 -242 8 -13 92 -53 113 -53 4 0 14 18 22 39 9 22 20 42 26 45 5 4 -7
55 -30 123 -42 125 -86 302 -91 368 -3 38 -5 40 -38 42 -19 0 -57 -3 -83 -7z"/>
<path d="M1561 3813 c-1 -38 21 -192 25 -178 2 6 -3 55 -10 110 -8 55 -14 86
-15 68z"/>
<path d="M3021 3794 c0 -11 3 -14 6 -6 3 7 2 16 -1 19 -3 4 -6 -2 -5 -13z"/>
<path d="M7693 3755 c0 -22 2 -30 4 -17 2 12 2 30 0 40 -3 9 -5 -1 -4 -23z"/>
<path d="M2111 3765 c-1 -27 32 -192 36 -180 1 6 -6 53 -16 105 -11 52 -20 86
-20 75z"/>
<path d="M3031 3755 c1 -21 27 -98 28 -80 0 6 -6 30 -13 55 -8 25 -15 36 -15
25z"/>
<path d="M6251 3734 c0 -11 3 -14 6 -6 3 7 2 16 -1 19 -3 4 -6 -2 -5 -13z"/>
<path d="M7172 3720 c0 -19 2 -27 5 -17 2 9 2 25 0 35 -3 9 -5 1 -5 -18z"/>
<path d="M5540 3643 c-23 -49 -55 -107 -71 -130 l-28 -42 52 -44 c29 -24 80
-65 114 -90 l62 -47 20 26 c12 15 21 30 21 33 0 4 8 16 18 27 22 23 122 220
122 239 0 12 -63 43 -120 60 -14 4 -29 11 -35 15 -8 5 -102 40 -110 40 -1 0
-21 -39 -45 -87z m35 -243 c3 -5 1 -10 -4 -10 -6 0 -11 5 -11 10 0 6 2 10 4
10 3 0 8 -4 11 -10z m35 -31 c0 -6 -4 -7 -10 -4 -5 3 -10 11 -10 16 0 6 5 7
10 4 6 -3 10 -11 10 -16z m30 -19 c0 -5 -4 -10 -10 -10 -5 0 -10 5 -10 10 0 6
5 10 10 10 6 0 10 -4 10 -10z m31 -23 c-1 -12 -15 -9 -19 4 -3 6 1 10 8 8 6
-3 11 -8 11 -12z"/>
<path d="M6226 3634 c-9 -26 -14 -49 -12 -51 2 -2 11 17 20 43 9 26 14 49 12
51 -2 2 -11 -17 -20 -43z"/>
<path d="M1816 3641 c-64 -8 -75 -31 -14 -30 60 2 101 12 106 27 4 13 -7 13
-92 3z"/>
<path d="M7147 3568 c-10 -44 -17 -82 -14 -84 2 -2 12 32 22 76 10 44 16 82
14 84 -2 3 -13 -31 -22 -76z"/>
<path d="M7666 3559 c-9 -50 -15 -93 -13 -95 2 -3 12 36 22 86 10 50 16 93 13
95 -2 3 -12 -36 -22 -86z"/>
<path d="M3071 3610 c0 -8 4 -22 9 -30 12 -18 12 -2 0 25 -6 13 -9 15 -9 5z"/>
<path d="M1592 3550 c0 -14 2 -19 5 -12 2 6 2 18 0 25 -3 6 -5 1 -5 -13z"/>
<path d="M2151 3525 c1 -21 27 -98 28 -80 0 6 -6 30 -13 55 -8 25 -15 36 -15
25z"/>
<path d="M6183 3513 c-3 -10 -8 -22 -11 -27 -3 -5 0 -6 5 -3 11 7 25 47 17 47
-3 0 -7 -8 -11 -17z"/>
<path d="M1601 3504 c0 -11 3 -14 6 -6 3 7 2 16 -1 19 -3 4 -6 -2 -5 -13z"/>
<path d="M1612 3465 c0 -11 4 -31 8 -45 6 -20 8 -21 8 -5 0 11 -4 31 -8 45 -6
20 -8 21 -8 5z"/>
<path d="M3120 3475 c0 -5 5 -17 10 -25 5 -8 10 -10 10 -5 0 6 -5 17 -10 25
-5 8 -10 11 -10 5z"/>
<path d="M3840 3454 c0 -6 -35 -38 -77 -70 -113 -84 -133 -101 -133 -112 0
-10 109 -127 112 -122 2 3 47 50 101 106 l97 100 -50 55 c-27 30 -49 49 -50
43z"/>
<path d="M6150 3430 c-6 -11 -8 -20 -6 -20 3 0 10 9 16 20 6 11 8 20 6 20 -3
0 -10 -9 -16 -20z"/>
<path d="M7112 3417 c-17 -47 -14 -59 4 -18 8 19 13 39 12 43 -2 5 -9 -6 -16
-25z"/>
<path d="M2181 3414 c0 -11 3 -14 6 -6 3 7 2 16 -1 19 -3 4 -6 -2 -5 -13z"/>
<path d="M5389 3404 c-10 -13 -8 -19 17 -43 16 -15 64 -60 106 -100 73 -70 77
-72 88 -51 10 19 6 27 -47 77 -32 30 -79 72 -104 94 -41 34 -48 37 -60 23z"/>
<path d="M7631 3379 c-7 -22 -11 -43 -8 -45 2 -2 9 14 16 37 7 22 11 43 8 45
-2 2 -9 -14 -16 -37z"/>
<path d="M3150 3404 c0 -6 7 -19 16 -30 14 -18 14 -18 3 6 -14 31 -19 36 -19
24z"/>
<path d="M2191 3370 c0 -8 4 -22 9 -30 12 -18 12 -2 0 25 -6 13 -9 15 -9 5z"/>
<path d="M1632 3360 c0 -8 6 -31 13 -50 7 -19 13 -28 13 -20 0 8 -6 31 -13 50
-7 19 -13 28 -13 20z"/>
<path d="M6110 3350 c-6 -11 -8 -20 -6 -20 3 0 10 9 16 20 6 11 8 20 6 20 -3
0 -10 -9 -16 -20z"/>
<path d="M5316 3332 c-16 -19 -15 -22 36 -78 29 -33 59 -65 66 -72 7 -8 24
-29 38 -48 22 -28 29 -32 45 -23 10 5 19 17 19 27 -1 9 -42 61 -94 115 -89 95
-93 97 -110 79z"/>
<path d="M6583 3171 c-45 -93 -102 -200 -128 -239 -46 -69 -47 -71 -35 -109 7
-21 15 -44 17 -52 2 -10 14 -12 41 -8 20 4 43 2 51 -2 16 -10 37 16 102 124
77 127 174 330 181 380 2 15 -9 24 -52 41 -102 40 -86 53 -177 -135z"/>
<path d="M3200 3310 c6 -11 13 -20 16 -20 2 0 0 9 -6 20 -6 11 -13 20 -16 20
-2 0 0 -9 6 -20z"/>
<path d="M2211 3315 c1 -19 18 -51 18 -35 0 8 -4 22 -9 30 -5 8 -9 11 -9 5z"/>
<path d="M7611 3304 c0 -11 3 -14 6 -6 3 7 2 16 -1 19 -3 4 -6 -2 -5 -13z"/>
<path d="M7071 3279 c-6 -18 -9 -34 -7 -36 2 -2 9 10 15 28 6 18 9 34 7 36 -2
2 -9 -10 -15 -28z"/>
<path d="M5241 3276 c-9 -11 -6 -20 12 -42 12 -16 44 -61 70 -100 26 -40 56
-79 66 -88 16 -15 19 -15 36 4 18 20 15 28 -48 100 -7 8 -35 43 -61 78 -50 66
-57 70 -75 48z"/>
<path d="M6073 3278 c-15 -20 -25 -38 -20 -38 3 0 12 11 21 25 17 26 16 35 -1
13z"/>
<path d="M7601 3253 c-1 -6 -4 -20 -7 -30 -5 -17 -5 -17 6 0 6 10 9 23 6 30
-3 9 -5 9 -5 0z"/>
<path d="M2230 3245 c0 -5 5 -17 10 -25 5 -8 10 -10 10 -5 0 6 -5 17 -10 25
-5 8 -10 11 -10 5z"/>
<path d="M1671 3210 c0 -8 4 -22 9 -30 12 -18 12 -2 0 25 -6 13 -9 15 -9 5z"/>
<path d="M5085 3183 c-72 -37 -156 -62 -282 -84 l-72 -12 4 -56 c3 -31 7 -95
11 -143 7 -102 -3 -96 129 -74 127 21 283 72 355 116 8 6 30 16 48 24 17 8 32
19 32 24 0 19 -132 234 -145 238 -5 2 -41 -13 -80 -33z"/>
<path d="M3270 3191 c5 -11 15 -23 21 -27 6 -3 3 5 -6 20 -20 30 -30 35 -15 7z"/>
<path d="M2250 3195 c0 -5 5 -17 10 -25 5 -8 10 -10 10 -5 0 6 -5 17 -10 25
-5 8 -10 11 -10 5z"/>
<path d="M7576 3185 c-3 -9 -6 -22 -5 -28 0 -7 5 -1 10 12 5 13 8 26 5 28 -2
2 -6 -3 -10 -12z"/>
<path d="M4178 3167 c-24 -38 -121 -238 -117 -241 8 -8 136 -58 165 -66 31 -7
32 -6 49 44 36 107 65 220 57 227 -4 3 -20 11 -37 17 -16 5 -46 17 -67 26 -35
15 -37 15 -50 -7z"/>
<path d="M5985 3144 c-9 -15 -12 -23 -6 -20 11 7 35 46 28 46 -3 0 -12 -12
-22 -26z"/>
<path d="M7022 3145 c-17 -37 -14 -45 4 -12 9 16 14 31 11 33 -2 2 -9 -7 -15
-21z"/>
<path d="M1690 3155 c0 -5 5 -17 10 -25 5 -8 10 -10 10 -5 0 6 -5 17 -10 25
-5 8 -10 11 -10 5z"/>
<path d="M2270 3134 c0 -6 7 -19 16 -30 14 -18 14 -18 3 6 -14 31 -19 36 -19
24z"/>
<path d="M5949 3093 c-13 -16 -12 -17 4 -4 16 13 21 21 13 21 -2 0 -10 -8 -17
-17z"/>
<path d="M7541 3069 c-6 -18 -9 -34 -7 -36 2 -2 9 10 15 28 6 18 9 34 7 36 -2
2 -9 -10 -15 -28z"/>
<path d="M1710 3085 c0 -5 5 -17 10 -25 5 -8 10 -10 10 -5 0 6 -5 17 -10 25
-5 8 -10 11 -10 5z"/>
<path d="M3358 3075 c6 -11 23 -31 39 -45 l28 -25 -30 35 c-47 55 -48 56 -37
35z"/>
<path d="M4486 3075 c-3 -9 -6 -31 -6 -48 0 -17 -7 -73 -17 -124 -9 -51 -14
-95 -12 -97 2 -2 14 -7 27 -10 16 -6 22 -3 22 8 0 9 5 16 10 16 6 0 10 -7 10
-15 0 -10 11 -15 35 -15 l34 0 4 58 3 57 2 -57 2 -58 40 0 40 0 0 99 c0 54 -3
119 -6 145 -6 42 -9 46 -35 46 -27 0 -28 -1 -32 -62 l-3 -63 -2 63 -2 62 -32
0 c-18 0 -43 3 -54 6 -14 4 -23 0 -28 -11z m54 -55 c0 -11 -4 -20 -10 -20 -5
0 -10 9 -10 20 0 11 5 20 10 20 6 0 10 -9 10 -20z m-23 -182 c-3 -7 -5 -2 -5
12 0 14 2 19 5 13 2 -7 2 -19 0 -25z"/>
<path d="M6993 3073 c-3 -10 -8 -22 -11 -27 -3 -5 0 -6 5 -3 11 7 25 47 17 47
-3 0 -7 -8 -11 -17z"/>
<path d="M1465 3039 c-60 -21 -112 -40 -116 -41 -3 -2 1 -24 9 -51 7 -26 18
-45 23 -41 14 8 120 -36 113 -47 -2 -5 -23 -14 -44 -20 -42 -13 -47 -23 -29
-62 8 -18 22 -27 50 -31 21 -3 54 -14 73 -23 44 -20 59 -10 76 52 7 25 19 50
26 56 16 13 18 47 5 67 -8 14 -57 7 -67 -9 -6 -10 -44 -13 -44 -4 0 14 44 91
58 101 12 9 12 16 -4 51 l-19 41 -110 -39z"/>
<path d="M2310 3045 c0 -5 5 -17 10 -25 5 -8 10 -10 10 -5 0 6 -5 17 -10 25
-5 8 -10 11 -10 5z"/>
<path d="M1730 3035 c0 -5 5 -17 10 -25 5 -8 10 -10 10 -5 0 6 -5 17 -10 25
-5 8 -10 11 -10 5z"/>
<path d="M6957 2991 c-4 -17 -3 -21 5 -13 5 5 8 16 6 23 -3 8 -7 3 -11 -10z"/>
<path d="M7516 2995 c-9 -26 -7 -32 5 -12 6 10 9 21 6 23 -2 3 -7 -2 -11 -11z"/>
<path d="M3420 2996 c0 -2 8 -10 18 -17 15 -13 16 -12 3 4 -13 16 -21 21 -21
13z"/>
<path d="M1751 2975 c0 -5 6 -21 14 -35 8 -14 14 -20 14 -15 0 6 -6 21 -14 35
-8 14 -14 21 -14 15z"/>
<path d="M2350 2951 c0 -6 4 -13 10 -16 6 -3 7 1 4 9 -7 18 -14 21 -14 7z"/>
<path d="M3460 2956 c0 -2 8 -10 18 -17 15 -13 16 -12 3 4 -13 16 -21 21 -21
13z"/>
<path d="M5816 2943 c-6 -14 -5 -15 5 -6 7 7 10 15 7 18 -3 3 -9 -2 -12 -12z"/>
<path d="M6935 2949 c-4 -6 -5 -12 -2 -15 2 -3 7 2 10 11 7 17 1 20 -8 4z"/>
<path d="M7495 2949 c-4 -6 -5 -12 -2 -15 2 -3 7 2 10 11 7 17 1 20 -8 4z"/>
<path d="M3500 2916 c0 -2 8 -10 18 -17 15 -13 16 -12 3 4 -13 16 -21 21 -21
13z"/>
<path d="M6916 2903 c-6 -14 -5 -15 5 -6 7 7 10 15 7 18 -3 3 -9 -2 -12 -12z"/>
<path d="M7467 2875 c-24 -50 -20 -58 4 -12 11 22 19 41 17 43 -3 2 -12 -12
-21 -31z"/>
<path d="M1790 2871 c0 -6 4 -13 10 -16 6 -3 7 1 4 9 -7 18 -14 21 -14 7z"/>
<path d="M2390 2873 c0 -6 8 -17 18 -24 16 -13 16 -13 2 6 -8 11 -16 22 -17
24 -2 2 -3 0 -3 -6z"/>
<path d="M3573 2850 c19 -16 38 -30 41 -30 4 0 -9 14 -27 30 -19 17 -38 30
-41 30 -4 0 9 -13 27 -30z"/>
<path d="M7845 2817 c-60 -143 -123 -276 -170 -362 -53 -95 -54 -99 -37 -118
14 -16 45 -117 38 -124 -1 -2 -25 12 -53 31 l-50 33 -16 -26 c-15 -25 -14 -28
2 -38 12 -8 20 -29 24 -64 4 -29 5 -55 3 -57 -2 -2 -23 10 -47 27 -32 24 -45
28 -55 20 -18 -15 -18 -28 2 -50 8 -9 14 -29 12 -44 l-3 -27 -27 22 c-23 17
-28 18 -28 6 0 -9 -6 -13 -13 -10 -8 3 -20 -2 -27 -11 -11 -14 -8 -21 23 -49
21 -19 37 -43 37 -55 0 -17 6 -21 33 -21 17 0 43 -9 57 -20 14 -11 30 -20 36
-20 14 0 26 28 18 41 -3 5 2 9 11 9 12 0 7 8 -14 26 -46 38 -40 48 24 41 47
-5 56 -3 65 14 9 16 3 24 -41 56 l-52 37 34 9 c19 5 55 7 80 5 41 -4 48 -2 62
21 15 25 15 26 -34 53 -52 30 -63 48 -28 48 12 0 39 5 61 12 29 9 41 9 50 0 9
-9 21 4 51 56 45 76 137 266 190 392 l36 85 -27 12 c-15 6 -54 21 -87 33 -33
12 -74 28 -91 35 -31 13 -31 13 -49 -28z"/>
<path d="M6876 2835 c-9 -26 -7 -32 5 -12 6 10 9 21 6 23 -2 3 -7 -2 -11 -11z"/>
<path d="M1810 2831 c0 -6 4 -13 10 -16 6 -3 7 1 4 9 -7 18 -14 21 -14 7z"/>
<path d="M2440 2790 c6 -11 13 -20 16 -20 2 0 0 9 -6 20 -6 11 -13 20 -16 20
-2 0 0 -9 6 -20z"/>
<path d="M7430 2790 c-6 -11 -8 -20 -6 -20 3 0 10 9 16 20 6 11 8 20 6 20 -3
0 -10 -9 -16 -20z"/>
<path d="M5634 2784 c-18 -14 -18 -15 4 -4 12 6 22 13 22 15 0 8 -5 6 -26 -11z"/>
<path d="M6319 2742 c-24 -31 -90 -105 -148 -165 -104 -107 -105 -108 -105
-157 -1 -53 5 -60 54 -60 16 0 33 -7 38 -15 7 -13 27 2 104 77 83 81 238 258
238 272 0 2 -31 27 -69 55 l-69 50 -43 -57z"/>
<path d="M1851 2750 c14 -31 19 -36 19 -24 0 6 -7 19 -16 30 -14 18 -14 18 -3
-6z"/>
<path d="M5589 2753 c-13 -16 -12 -17 4 -4 9 7 17 15 17 17 0 8 -8 3 -21 -13z"/>
<path d="M6830 2755 c-7 -9 -11 -17 -9 -20 3 -2 10 5 17 15 14 24 10 26 -8 5z"/>
<path d="M3704 2751 c3 -5 22 -18 42 -30 19 -12 33 -17 30 -12 -3 5 -22 18
-42 30 -19 12 -33 17 -30 12z"/>
<path d="M7391 2703 c-10 -26 -10 -27 4 -9 8 11 15 23 15 28 0 15 -7 8 -19
-19z"/>
<path d="M2490 2711 c0 -6 4 -13 10 -16 6 -3 7 1 4 9 -7 18 -14 21 -14 7z"/>
<path d="M5514 2704 c-18 -14 -18 -15 4 -4 12 6 22 13 22 15 0 8 -5 6 -26 -11z"/>
<path d="M1885 2676 c10 -14 19 -26 22 -26 7 0 -17 39 -28 46 -6 3 -3 -5 6
-20z"/>
<path d="M3824 2676 c11 -9 24 -16 30 -16 12 0 7 5 -24 19 -24 11 -24 11 -6
-3z"/>
<path d="M2510 2673 c0 -6 8 -17 18 -24 16 -13 16 -13 2 6 -8 11 -16 22 -17
24 -2 2 -3 0 -3 -6z"/>
<path d="M5384 2634 c-18 -14 -18 -14 6 -3 31 14 36 19 24 19 -6 0 -19 -7 -30
-16z"/>
<path d="M6750 2630 c-6 -11 -8 -20 -6 -20 3 0 10 9 16 20 6 11 8 20 6 20 -3
0 -10 -9 -16 -20z"/>
<path d="M7350 2630 c-6 -11 -8 -20 -6 -20 3 0 10 9 16 20 6 11 8 20 6 20 -3
0 -10 -9 -16 -20z"/>
<path d="M3900 2636 c0 -3 9 -10 20 -16 11 -6 20 -8 20 -6 0 3 -9 10 -20 16
-11 6 -20 8 -20 6z"/>
<path d="M1930 2590 c6 -11 13 -20 16 -20 2 0 0 9 -6 20 -6 11 -13 20 -16 20
-2 0 0 -9 6 -20z"/>
<path d="M3353 2561 c-44 -51 -52 -78 -31 -99 8 -8 18 -5 40 13 16 14 36 25
44 25 8 0 14 10 14 23 0 13 6 32 14 43 10 13 11 23 4 31 -19 24 -43 13 -85
-36z"/>
<path d="M3984 2596 c11 -9 24 -16 30 -16 12 0 7 5 -24 19 -24 11 -24 11 -6
-3z"/>
<path d="M5310 2600 c-8 -5 -10 -10 -5 -10 6 0 17 5 25 10 8 5 11 10 5 10 -5
0 -17 -5 -25 -10z"/>
<path d="M2570 2594 c0 -5 14 -25 31 -44 l30 -35 -27 40 c-16 22 -29 42 -31
44 -2 2 -3 0 -3 -5z"/>
<path d="M5270 2580 c-9 -6 -10 -10 -3 -10 6 0 15 5 18 10 8 12 4 12 -15 0z"/>
<path d="M4070 2560 c8 -5 20 -10 25 -10 6 0 3 5 -5 10 -8 5 -19 10 -25 10 -5
0 -3 -5 5 -10z"/>
<path d="M5195 2555 c-25 -12 -26 -14 -5 -9 28 7 60 23 45 23 -5 0 -23 -6 -40
-14z"/>
<path d="M7301 2543 c-10 -26 -10 -27 4 -9 8 11 15 23 15 28 0 15 -7 8 -19
-19z"/>
<path d="M1950 2551 c0 -6 4 -13 10 -16 6 -3 7 1 4 9 -7 18 -14 21 -14 7z"/>
<path d="M4120 2540 c8 -5 20 -10 25 -10 6 0 3 5 -5 10 -8 5 -19 10 -25 10 -5
0 -3 -5 5 -10z"/>
<path d="M5075 2520 c-13 -5 -14 -9 -5 -9 8 0 24 4 35 9 13 5 14 9 5 9 -8 0
-24 -4 -35 -9z"/>
<path d="M6654 2503 c-30 -41 -39 -62 -15 -33 23 27 44 60 38 60 -2 0 -12 -12
-23 -27z"/>
<path d="M4240 2505 c19 -7 44 -14 55 -14 11 0 0 7 -25 15 -57 17 -77 17 -30
-1z"/>
<path d="M5005 2500 c-13 -5 -14 -9 -5 -9 8 0 24 4 35 9 13 5 14 9 5 9 -8 0
-24 -4 -35 -9z"/>
<path d="M1990 2483 c0 -6 8 -17 18 -24 16 -13 16 -13 2 6 -8 11 -16 22 -17
24 -2 2 -3 0 -3 -6z"/>
<path d="M4410 2474 c79 -19 382 -22 450 -6 l45 11 -49 -4 c-143 -14 -251 -16
-336 -6 -52 6 -113 13 -135 16 -23 2 -12 -2 25 -11z"/>
<path d="M4918 2483 c6 -2 18 -2 25 0 6 3 1 5 -13 5 -14 0 -19 -2 -12 -5z"/>
<path d="M7260 2475 c-7 -9 -11 -17 -9 -20 3 -2 10 5 17 15 14 24 10 26 -8 5z"/>
<path d="M2670 2456 c0 -2 8 -10 18 -17 15 -13 16 -12 3 4 -13 16 -21 21 -21
13z"/>
<path d="M6595 2429 c-4 -6 -5 -12 -2 -15 2 -3 7 2 10 11 7 17 1 20 -8 4z"/>
<path d="M7235 2429 c-4 -6 -5 -12 -2 -15 2 -3 7 2 10 11 7 17 1 20 -8 4z"/>
<path d="M2050 2390 c6 -11 13 -20 16 -20 2 0 0 9 -6 20 -6 11 -13 20 -16 20
-2 0 0 -9 6 -20z"/>
<path d="M2720 2404 c0 -11 129 -146 178 -186 l47 -40 -51 49 c-28 26 -78 78
-112 115 -34 37 -62 65 -62 62z"/>
<path d="M5950 2385 c-13 -16 -178 -127 -239 -161 -26 -15 -34 -27 -37 -54 -2
-19 -5 -44 -6 -54 -2 -13 6 -22 27 -29 17 -5 38 -16 47 -24 15 -14 25 -10 95
32 83 50 208 136 231 159 11 11 6 23 -35 80 -50 69 -62 76 -83 51z"/>
<path d="M3717 2308 c-35 -66 -36 -74 -21 -85 13 -10 19 -9 31 3 9 8 28 18 44
21 39 7 43 16 28 61 -7 20 -13 44 -13 52 -1 8 -8 16 -16 17 -10 2 -28 -22 -53
-69z"/>
<path d="M7193 2368 c-15 -20 -25 -38 -20 -38 3 0 12 11 21 25 17 26 16 35 -1
13z"/>
<path d="M2076 2347 c3 -10 9 -15 12 -12 3 3 0 11 -7 18 -10 9 -11 8 -5 -6z"/>
<path d="M5437 2346 c-24 -9 -27 -14 -21 -41 4 -16 15 -46 25 -65 11 -19 19
-40 19 -47 0 -19 17 -24 42 -13 16 8 28 28 40 68 9 31 15 60 12 64 -3 4 -20
10 -39 14 -20 3 -39 12 -43 18 -5 9 -15 9 -35 2z"/>
<path d="M3366 2334 c-3 -9 -20 -14 -45 -14 l-40 0 3 -60 c3 -58 5 -62 44 -91
l41 -30 46 70 c25 39 45 75 45 79 0 4 -20 19 -44 34 -36 21 -46 24 -50 12z"/>
<path d="M3887 2242 c-41 -105 -37 -113 42 -76 39 19 52 30 48 42 -20 64 -37
97 -49 100 -9 2 -24 -22 -41 -66z"/>
<path d="M2120 2286 c0 -2 8 -10 18 -17 15 -13 16 -12 3 4 -13 16 -21 21 -21
13z"/>
<path d="M2161 2233 c7 -12 15 -20 18 -17 3 2 -3 12 -13 22 -17 16 -18 16 -5
-5z"/>
<path d="M4157 2178 c-8 -29 -17 -67 -21 -85 -6 -36 -14 -33 119 -58 l91 -18
34 32 c19 17 38 31 42 31 15 0 8 23 -17 56 -14 18 -25 37 -25 43 0 13 -20 18
-106 31 -39 5 -78 12 -87 15 -12 5 -19 -6 -30 -47z"/>
<path d="M7064 2188 l-19 -23 23 19 c12 11 22 21 22 23 0 8 -8 2 -26 -19z"/>
<path d="M2190 2191 c0 -6 4 -13 10 -16 6 -3 7 1 4 9 -7 18 -14 21 -14 7z"/>
<path d="M6359 2183 c-13 -16 -12 -17 4 -4 16 13 21 21 13 21 -2 0 -10 -8 -17
-17z"/>
<path d="M2957 2159 c7 -7 15 -10 18 -7 3 3 -2 9 -12 12 -14 6 -15 5 -6 -5z"/>
<path d="M4580 2131 c0 -21 -3 -59 -6 -85 l-7 -46 102 0 c77 0 101 3 101 13 0
8 11 24 25 37 34 32 32 48 -11 87 -35 32 -39 33 -120 33 l-84 0 0 -39z"/>
<path d="M7029 2143 c-13 -16 -12 -17 4 -4 16 13 21 21 13 21 -2 0 -10 -8 -17
-17z"/>
<path d="M6310 2140 c-9 -6 -10 -10 -3 -10 6 0 15 5 18 10 8 12 4 12 -15 0z"/>
<path d="M3000 2126 c0 -2 8 -10 18 -17 15 -13 16 -12 3 4 -13 16 -21 21 -21
13z"/>
<path d="M6246 2090 c-22 -17 -35 -30 -30 -30 9 1 83 59 74 59 -3 0 -23 -13
-44 -29z"/>
<path d="M2290 2075 c23 -32 90 -105 90 -97 -1 4 -24 32 -52 62 -29 30 -46 46
-38 35z"/>
<path d="M3060 2076 c0 -2 8 -10 18 -17 15 -13 16 -12 3 4 -13 16 -21 21 -21
13z"/>
<path d="M3112 2034 c10 -10 20 -16 22 -13 3 3 -5 11 -17 18 -21 13 -21 12 -5
-5z"/>
<path d="M3970 2026 c0 -8 -16 -20 -35 -26 -40 -13 -41 -19 -19 -61 8 -17 13
-37 10 -44 -3 -8 6 -17 22 -23 87 -33 385 -95 429 -90 28 3 28 4 33 85 6 92 5
93 -75 93 -43 0 -186 31 -279 61 -72 23 -86 24 -86 5z"/>
<path d="M3151 2007 c2 -1 13 -9 24 -17 19 -14 19 -14 6 3 -7 9 -18 17 -24 17
-6 0 -8 -1 -6 -3z"/>
<path d="M6899 1993 c-13 -16 -12 -17 4 -4 16 13 21 21 13 21 -2 0 -10 -8 -17
-17z"/>
<path d="M6088 1974 c-21 -13 -38 -26 -38 -29 0 -6 69 35 76 46 7 13 4 11 -38
-17z"/>
<path d="M3214 1961 c7 -11 46 -35 46 -28 0 3 -12 12 -26 22 -15 9 -23 12 -20
6z"/>
<path d="M6859 1953 c-13 -16 -12 -17 4 -4 16 13 21 21 13 21 -2 0 -10 -8 -17
-17z"/>
<path d="M2390 1956 c0 -2 8 -10 18 -17 15 -13 16 -12 3 4 -13 16 -21 21 -21
13z"/>
<path d="M3271 1927 c2 -1 13 -9 24 -17 19 -14 19 -14 6 3 -7 9 -18 17 -24 17
-6 0 -8 -1 -6 -3z"/>
<path d="M6819 1913 c-13 -16 -12 -17 4 -4 16 13 21 21 13 21 -2 0 -10 -8 -17
-17z"/>
<path d="M2430 1916 c0 -2 8 -10 18 -17 15 -13 16 -12 3 4 -13 16 -21 21 -21
13z"/>
<path d="M5986 1905 c-11 -8 -15 -15 -9 -15 6 0 16 7 23 15 16 19 11 19 -14 0z"/>
<path d="M3340 1887 c0 -3 12 -12 26 -22 15 -9 23 -12 20 -6 -7 11 -46 35 -46
28z"/>
<path d="M6779 1873 c-13 -16 -12 -17 4 -4 16 13 21 21 13 21 -2 0 -10 -8 -17
-17z"/>
<path d="M2470 1876 c0 -2 8 -10 18 -17 15 -13 16 -12 3 4 -13 16 -21 21 -21
13z"/>
<path d="M5910 1860 c-9 -6 -10 -10 -3 -10 6 0 15 5 18 10 8 12 4 12 -15 0z"/>
<path d="M7290 1849 c0 -6 -6 -9 -12 -6 -7 2 -23 -5 -35 -15 -20 -19 -21 -27
-16 -107 l6 -86 -45 43 -44 42 -44 -45 c-34 -35 -41 -48 -32 -57 7 -7 12 -39
12 -74 l0 -62 63 -7 c34 -4 68 -12 75 -18 10 -8 24 1 57 33 25 24 45 50 45 56
0 7 -19 29 -42 48 l-42 36 77 0 c77 0 90 7 62 30 -9 7 -13 15 -10 18 3 3 16
-5 29 -17 20 -19 25 -20 35 -7 7 8 14 21 15 28 1 7 5 18 9 24 4 7 -24 40 -72
83 -80 72 -91 79 -91 60z"/>
<path d="M3414 1841 c7 -11 46 -35 46 -28 0 3 -12 12 -26 22 -15 9 -23 12 -20
6z"/>
<path d="M5864 1834 c-18 -14 -18 -15 4 -4 12 6 22 13 22 15 0 8 -5 6 -26 -11z"/>
<path d="M6739 1833 c-13 -16 -12 -17 4 -4 16 13 21 21 13 21 -2 0 -10 -8 -17
-17z"/>
<path d="M2560 1792 c30 -28 58 -51 62 -52 4 0 -11 17 -35 38 -67 60 -87 71
-27 14z"/>
<path d="M5784 1794 c-18 -14 -18 -14 6 -3 31 14 36 19 24 19 -6 0 -19 -7 -30
-16z"/>
<path d="M6694 1788 l-19 -23 23 19 c21 18 27 26 19 26 -2 0 -12 -10 -23 -22z"/>
<path d="M3500 1796 c0 -3 9 -10 20 -16 11 -6 20 -8 20 -6 0 3 -9 10 -20 16
-11 6 -20 8 -20 6z"/>
<path d="M3561 1766 c10 -9 69 -36 69 -32 0 6 -55 36 -66 36 -4 0 -5 -2 -3 -4z"/>
<path d="M5690 1750 c-19 -11 -30 -19 -25 -19 6 0 26 8 45 19 19 11 31 19 25
19 -5 0 -26 -8 -45 -19z"/>
<path d="M2640 1726 c0 -2 8 -10 18 -17 15 -13 16 -12 3 4 -13 16 -21 21 -21
13z"/>
<path d="M3674 1716 c11 -9 24 -16 30 -16 12 0 7 5 -24 19 -24 11 -24 11 -6
-3z"/>
<path d="M5593 1710 c-13 -5 -23 -11 -23 -14 0 -7 40 6 46 15 6 10 6 10 -23
-1z"/>
<path d="M3340 1564 c-50 -96 -68 -140 -61 -147 13 -13 10 -17 50 63 18 36 48
95 67 131 19 37 34 71 34 78 0 33 -25 -3 -90 -125z"/>
<path d="M5490 1670 c-19 -11 -30 -19 -25 -19 6 0 26 8 45 19 19 11 31 19 25
19 -5 0 -26 -8 -45 -19z"/>
<path d="M2700 1676 c0 -2 8 -10 18 -17 15 -13 16 -12 3 4 -13 16 -21 21 -21
13z"/>
<path d="M3790 1670 c8 -5 20 -10 25 -10 6 0 3 5 -5 10 -8 5 -19 10 -25 10 -5
0 -3 -5 5 -10z"/>
<path d="M6526 1650 c-22 -17 -35 -30 -30 -30 9 1 83 59 74 59 -3 0 -23 -13
-44 -29z"/>
<path d="M2752 1634 c9 -10 32 -28 50 -38 39 -22 29 -11 -27 29 -23 17 -33 21
-23 9z"/>
<path d="M5395 1640 c-13 -6 -15 -9 -5 -9 8 0 22 4 30 9 18 12 2 12 -25 0z"/>
<path d="M3910 1630 c8 -5 22 -9 30 -9 10 0 8 3 -5 9 -27 12 -43 12 -25 0z"/>
<path d="M5335 1620 c-13 -6 -15 -9 -5 -9 8 0 22 4 30 9 18 12 2 12 -25 0z"/>
<path d="M4040 1595 c19 -7 44 -14 55 -14 11 0 0 7 -25 15 -57 17 -77 17 -30
-1z"/>
<path d="M5205 1590 c-33 -10 -53 -19 -45 -19 8 0 42 8 75 18 33 11 53 19 45
19 -8 0 -42 -8 -75 -18z"/>
<path d="M4128 1573 c7 -3 16 -2 19 1 4 3 -2 6 -13 5 -11 0 -14 -3 -6 -6z"/>
<path d="M4215 1560 c17 -4 41 -8 55 -8 22 0 22 1 -5 8 -16 4 -41 8 -55 8 -22
0 -22 -1 5 -8z"/>
<path d="M5054 1564 c-5 -2 -53 -11 -105 -19 -85 -13 -88 -14 -24 -9 68 5 200
31 160 32 -11 0 -25 -2 -31 -4z"/>
<path d="M6373 1539 c-24 -17 -43 -32 -43 -35 0 -3 20 9 45 26 25 17 45 33 45
35 0 7 -2 6 -47 -26z"/>
<path d="M6967 1546 c-25 -20 -27 -25 -14 -38 12 -11 14 -29 10 -75 l-6 -60
64 -7 c35 -4 69 -12 76 -18 15 -12 63 15 63 35 -1 6 -38 51 -83 99 l-82 87
-28 -23z"/>
<path d="M2860 1556 c0 -2 8 -10 18 -17 15 -13 16 -12 3 4 -13 16 -21 21 -21
13z"/>
<path d="M4335 1540 c40 -9 112 -13 104 -6 -2 2 -35 6 -74 9 -54 4 -61 4 -30
-3z"/>
<path d="M2900 1527 c0 -3 12 -12 26 -22 15 -9 23 -12 20 -6 -7 11 -46 35 -46
28z"/>
<path d="M4633 1523 c9 -2 25 -2 35 0 9 3 1 5 -18 5 -19 0 -27 -2 -17 -5z"/>
<path d="M6270 1469 c-22 -18 -22 -19 -3 -10 12 6 25 16 28 21 9 15 3 12 -25
-11z"/>
<path d="M2992 1464 c10 -10 20 -16 22 -13 3 3 -5 11 -17 18 -21 13 -21 12 -5
-5z"/>
<path d="M3030 1446 c0 -3 9 -10 20 -16 11 -6 20 -8 20 -6 0 3 -9 10 -20 16
-11 6 -20 8 -20 6z"/>
<path d="M5360 1413 c0 -37 25 -106 40 -111 8 -3 9 7 5 34 -15 87 -45 138 -45
77z"/>
<path d="M3104 1401 c7 -11 46 -35 46 -28 0 3 -12 12 -26 22 -15 9 -23 12 -20
6z"/>
<path d="M6144 1394 c-18 -14 -18 -15 4 -4 12 6 22 13 22 15 0 8 -5 6 -26 -11z"/>
<path d="M3995 1388 c-12 -41 -26 -120 -22 -125 12 -11 25 8 31 44 4 21 9 50
12 66 6 27 -13 40 -21 15z"/>
<path d="M3170 1366 c0 -3 14 -12 30 -21 17 -9 30 -13 30 -11 0 3 -13 12 -30
21 -16 9 -30 13 -30 11z"/>
<path d="M6068 1354 c-38 -20 -36 -28 2 -9 17 9 30 18 30 20 0 7 -1 6 -32 -11z"/>
<path d="M6733 1351 c-19 -16 -20 -21 -9 -37 8 -11 10 -28 6 -38 -6 -19 -7
-18 -22 3 -19 27 -24 21 -33 -42 -4 -26 -11 -49 -15 -52 -5 -3 -18 11 -30 30
-12 19 -25 35 -29 35 -4 0 -28 -14 -54 -30 -39 -25 -46 -33 -38 -48 8 -16 -2
-108 -13 -120 -3 -2 -17 16 -32 40 -16 23 -29 45 -30 47 -2 1 -30 -12 -63 -30
-43 -24 -61 -40 -61 -53 0 -14 -3 -17 -11 -9 -8 8 -19 8 -39 0 l-28 -11 22
-45 c12 -25 21 -54 18 -63 -2 -10 2 -18 8 -18 6 0 25 -22 42 -50 30 -49 31
-49 59 -34 16 8 29 22 29 30 0 13 3 14 13 5 10 -8 24 -4 58 17 24 16 52 31 62
35 21 8 22 30 2 47 -21 17 -46 70 -33 70 23 0 94 -24 110 -38 16 -14 58 -9 58
7 0 4 15 16 34 26 l33 18 -28 42 c-16 24 -29 45 -29 48 0 3 27 -2 60 -10 67
-17 82 -13 57 15 -10 10 -17 22 -17 25 0 13 28 7 52 -12 24 -19 25 -19 53 3
l28 23 -61 77 c-34 42 -67 86 -72 97 -13 24 -29 24 -57 0z"/>
<path d="M4206 1318 c-4 -24 -9 -58 -12 -75 -5 -25 -3 -33 8 -33 11 0 18 20
26 67 6 36 9 70 6 75 -12 18 -22 6 -28 -34z"/>
<path d="M3250 1326 c0 -3 14 -12 30 -21 17 -9 30 -13 30 -11 0 3 -13 12 -30
21 -16 9 -30 13 -30 11z"/>
<path d="M5988 1314 c-38 -20 -36 -28 2 -9 17 9 30 18 30 20 0 7 -1 6 -32 -11z"/>
<path d="M4720 1250 c0 -56 3 -70 15 -70 17 0 18 11 9 88 -10 75 -24 64 -24
-18z"/>
<path d="M2597 1286 c-3 -8 -28 -17 -64 -21 l-58 -6 1 -87 2 -87 48 -32 c27
-18 54 -37 61 -43 7 -5 14 -10 17 -10 7 0 136 201 136 212 0 6 -124 88 -134
88 -2 0 -6 -6 -9 -14z"/>
<path d="M3330 1285 c0 -7 61 -37 66 -33 2 3 -12 12 -31 21 -19 9 -35 15 -35
12z"/>
<path d="M5913 1280 c-13 -5 -23 -11 -23 -14 0 -7 40 6 46 15 6 10 6 10 -23
-1z"/>
<path d="M3425 1240 c3 -4 14 -10 25 -13 11 -3 18 -2 15 3 -3 4 -14 10 -25 13
-11 3 -18 2 -15 -3z"/>
<path d="M5825 1240 c-3 -6 1 -7 9 -4 18 7 21 14 7 14 -6 0 -13 -4 -16 -10z"/>
<path d="M5780 1220 c-8 -5 -10 -10 -5 -10 6 0 17 5 25 10 8 5 11 10 5 10 -5
0 -17 -5 -25 -10z"/>
<path d="M3160 1154 c-12 -27 -35 -75 -50 -106 -15 -32 -24 -58 -20 -58 10 0
142 48 148 54 6 7 -23 101 -42 135 -14 25 -14 25 -36 -25z"/>
<path d="M3540 1194 c0 -7 52 -25 57 -20 2 2 -10 8 -26 14 -17 6 -31 9 -31 6z"/>
<path d="M5700 1190 c-8 -5 -10 -10 -5 -10 6 0 17 5 25 10 8 5 11 10 5 10 -5
0 -17 -5 -25 -10z"/>
<path d="M3646 1156 c50 -22 82 -27 39 -7 -22 11 -47 20 -55 20 -8 0 -1 -6 16
-13z"/>
<path d="M5968 1157 c-16 -6 -28 -17 -28 -25 0 -7 21 -62 47 -122 l46 -108 44
21 c25 12 43 28 43 38 0 9 9 45 20 79 11 35 19 64 18 65 -2 2 -28 10 -59 19
-31 9 -62 23 -69 31 -14 17 -24 17 -62 2z"/>
<path d="M5590 1150 c-8 -5 -10 -10 -5 -10 6 0 17 5 25 10 8 5 11 10 5 10 -5
0 -17 -5 -25 -10z"/>
<path d="M5548 1133 c7 -3 16 -2 19 1 4 3 -2 6 -13 5 -11 0 -14 -3 -6 -6z"/>
<path d="M3748 1123 c7 -3 16 -2 19 1 4 3 -2 6 -13 5 -11 0 -14 -3 -6 -6z"/>
<path d="M3362 1083 c-12 -34 -32 -83 -68 -169 -10 -23 -27 -36 -69 -54 -30
-13 -55 -24 -55 -24 0 -1 9 -28 20 -60 12 -32 18 -66 15 -76 -6 -20 -2 -24 36
-33 22 -6 27 -2 38 31 8 20 21 55 30 77 10 22 26 60 36 85 20 48 35 73 42 67
2 -3 -2 -16 -8 -30 -9 -21 -9 -30 1 -42 19 -23 39 -18 46 10 4 16 19 31 38 40
58 26 60 29 41 65 -12 23 -15 45 -11 71 4 24 2 40 -6 45 -6 4 -14 2 -16 -4 -2
-8 -15 -3 -34 13 -22 19 -34 23 -43 15 -9 -8 -14 -8 -17 0 -2 6 -9 -6 -16 -27z
m69 -34 c-5 -13 -10 -19 -10 -12 -1 15 10 45 15 40 3 -2 0 -15 -5 -28z"/>
<path d="M3790 1110 c8 -5 22 -9 30 -9 10 0 8 3 -5 9 -27 12 -43 12 -25 0z"/>
<path d="M5435 1105 c-40 -19 -16 -19 26 0 19 8 27 14 19 14 -8 0 -28 -7 -45
-14z"/>
<path d="M3950 1070 c30 -11 64 -19 75 -19 11 0 -9 9 -45 19 -82 24 -103 24
-30 0z"/>
<path d="M5358 1083 c7 -3 16 -2 19 1 4 3 -2 6 -13 5 -11 0 -14 -3 -6 -6z"/>
<path d="M5260 1064 c-25 -7 -36 -13 -25 -13 11 0 40 6 65 13 56 18 22 18 -40
0z"/>
<path d="M4105 1040 c17 -4 41 -8 55 -8 22 0 22 1 -5 8 -16 4 -41 8 -55 8 -22
0 -22 -1 5 -8z"/>
<path d="M5148 1043 c6 -2 18 -2 25 0 6 3 1 5 -13 5 -14 0 -19 -2 -12 -5z"/>
<path d="M5025 1025 l-70 -14 63 6 c35 3 76 9 90 13 42 13 -2 10 -83 -5z"/>
<path d="M4215 1021 c31 -9 102 -14 94 -7 -2 2 -31 6 -64 9 -39 4 -50 3 -30
-2z"/>
<path d="M4515 999 c66 -4 172 -4 235 0 95 6 73 7 -120 7 -198 0 -216 -1 -115
-7z"/>
<path d="M5518 993 c-15 -4 -15 -9 -3 -49 7 -24 11 -44 9 -44 -10 0 -60 35
-74 52 -15 18 -18 18 -101 -4 l-86 -23 19 -80 c10 -44 18 -93 16 -110 -3 -29
-6 -30 -73 -42 -38 -7 -96 -16 -127 -19 -52 -5 -58 -8 -58 -28 0 -13 -16 -43
-35 -67 l-35 -44 50 -45 c28 -25 50 -51 50 -58 0 -15 75 -10 212 15 l88 15 -6
42 c-3 22 -12 70 -20 104 -8 35 -12 67 -9 72 3 5 24 11 48 15 82 13 126 27
121 39 -2 6 7 29 20 51 l24 39 13 -42 c13 -43 35 -55 45 -24 3 9 19 45 36 80
16 35 28 65 26 66 -1 1 -25 15 -53 31 -27 15 -57 35 -65 45 -8 9 -23 15 -32
13z"/>
<path d="M5945 900 c-22 -10 -68 -29 -103 -42 -51 -19 -62 -27 -58 -41 2 -10
-6 -39 -20 -64 -13 -25 -24 -52 -24 -59 0 -7 20 -22 44 -33 24 -10 54 -29 66
-41 l21 -21 67 26 c37 15 89 35 116 46 27 10 50 20 52 21 3 3 -7 27 -41 103
-8 17 -23 51 -34 78 -22 52 -28 54 -86 27z"/>
<path d="M4157 893 c-4 -3 -7 -23 -7 -43 0 -43 -20 -152 -30 -163 -4 -4 -49 1
-100 13 -115 25 -127 25 -134 2 -3 -9 -21 -25 -38 -35 -73 -40 -72 -39 -38
-93 16 -26 30 -61 30 -76 0 -25 4 -28 33 -28 17 0 57 -7 87 -15 30 -8 97 -20
148 -25 52 -6 104 -13 116 -16 22 -5 23 -1 38 118 9 67 15 124 14 126 -2 1
-23 6 -46 10 l-44 7 45 34 c24 19 48 38 53 42 4 4 -10 30 -33 59 -23 28 -41
60 -41 71 0 13 -7 19 -23 19 -13 0 -27 -3 -30 -7z"/>
<path d="M4324 855 c-3 -20 -7 -80 -8 -134 l-1 -96 38 -3 c34 -3 42 1 83 47
58 65 74 66 74 5 l0 -47 53 49 52 49 3 -52 c2 -33 8 -53 15 -52 7 0 31 25 55
55 24 30 47 54 52 54 6 0 10 -25 10 -55 l0 -55 50 0 c31 0 50 4 50 11 0 7 20
37 45 67 l46 55 -51 44 c-27 25 -50 51 -50 59 0 10 -14 14 -51 14 l-52 0 6
-54 c3 -30 3 -57 -1 -60 -9 -10 -92 76 -92 96 0 10 -7 18 -15 18 -12 0 -15
-13 -15 -55 0 -30 -3 -55 -7 -55 -4 0 -29 21 -55 47 l-48 47 0 -47 c0 -26 -4
-47 -8 -47 -13 0 -82 88 -82 104 0 11 -9 16 -29 16 -16 0 -36 3 -45 6 -11 4
-17 -4 -22 -31z"/>
<path d="M3573 790 c-3 -10 -14 -22 -25 -26 -11 -3 -35 -15 -54 -26 l-33 -19
24 -56 c14 -31 25 -66 25 -79 0 -39 27 -28 43 19 34 99 57 173 57 183 0 22
-32 25 -37 4z"/>
<path d="M3710 747 c0 -8 -23 -24 -51 -37 -28 -13 -53 -28 -55 -32 -3 -5 8
-33 25 -62 17 -32 28 -62 25 -73 -4 -16 1 -22 21 -27 35 -9 41 -3 50 41 3 21
15 67 26 102 27 89 26 101 -11 101 -18 0 -30 -5 -30 -13z"/>
<path d="M6257 7772 c-26 -27 -40 -59 -15 -34 23 23 28 12 28 -58 0 -40 4 -70
10 -70 6 0 10 38 10 95 0 52 -1 95 -3 95 -2 0 -15 -13 -30 -28z"/>
<path d="M6387 7782 c-25 -28 -23 -126 3 -152 27 -27 65 -26 84 2 22 30 22
131 0 152 -21 22 -67 20 -87 -2z m73 -21 c23 -44 4 -132 -28 -131 -37 1 -58
103 -27 133 22 22 42 21 55 -2z"/>
<path d="M6547 7782 c-25 -28 -23 -126 3 -152 27 -27 65 -26 84 2 22 30 22
131 0 152 -21 22 -67 20 -87 -2z m73 -21 c23 -44 4 -132 -28 -131 -37 1 -58
103 -27 133 22 22 42 21 55 -2z"/>
<path d="M6707 7782 c-25 -28 -23 -126 3 -152 27 -27 65 -26 84 2 22 30 22
131 0 152 -21 22 -67 20 -87 -2z m73 -21 c23 -44 4 -132 -28 -131 -37 1 -58
103 -27 133 22 22 42 21 55 -2z"/>
<path d="M6859 7783 c-9 -10 -14 -41 -14 -80 0 -70 15 -93 60 -93 60 0 88 126
39 175 -20 20 -68 19 -85 -2z m71 -22 c23 -44 4 -132 -28 -131 -26 1 -37 23
-37 75 0 39 5 59 15 65 23 15 38 12 50 -9z"/>
<path d="M1042 6967 c-27 -29 -28 -41 -2 -27 19 10 20 8 20 -65 0 -43 4 -75
10 -75 6 0 10 38 10 95 0 52 -4 95 -8 95 -5 0 -18 -10 -30 -23z"/>
<path d="M1175 6968 c-11 -16 -12 -24 -4 -27 7 -2 16 4 21 13 11 20 51 21 67
2 16 -20 4 -41 -53 -92 -25 -23 -46 -46 -46 -53 0 -7 23 -11 65 -11 51 0 65 3
65 15 0 11 -12 15 -45 15 l-45 0 40 36 c22 20 43 47 46 61 14 55 -77 89 -111
41z"/>
<path d="M1326 6961 c-43 -83 14 -188 82 -152 25 14 38 84 25 138 -8 36 -11
38 -50 41 -38 3 -43 0 -57 -27z m84 -10 c11 -22 13 -64 4 -98 -5 -17 -14 -23
-34 -23 -20 0 -29 6 -34 23 -16 60 0 117 34 117 11 0 24 -9 30 -19z"/>
<path d="M1486 6961 c-43 -83 14 -188 82 -152 25 14 38 84 25 138 -8 36 -11
38 -50 41 -38 3 -43 0 -57 -27z m84 -10 c11 -22 13 -64 4 -98 -5 -17 -14 -23
-34 -23 -20 0 -29 6 -34 23 -16 60 0 117 34 117 11 0 24 -9 30 -19z"/>
<path d="M1646 6961 c-43 -83 14 -188 82 -152 25 14 38 84 25 138 -8 36 -11
38 -50 41 -38 3 -43 0 -57 -27z m84 -10 c5 -11 10 -34 10 -51 0 -44 -17 -70
-44 -70 -25 0 -36 21 -36 73 0 39 17 67 40 67 11 0 24 -9 30 -19z"/>
<path d="M1800 6971 c-5 -11 -10 -45 -10 -75 0 -61 22 -96 60 -96 38 0 60 35
60 96 0 76 -11 94 -60 94 -29 0 -42 -5 -50 -19z m80 -20 c11 -22 13 -64 4 -98
-5 -17 -14 -23 -34 -23 -20 0 -29 6 -34 23 -16 60 0 117 34 117 11 0 24 -9 30
-19z"/>
<path d="M7625 6688 c-18 -27 -1 -39 19 -13 15 21 55 17 70 -7 9 -15 1 -27
-47 -76 -32 -32 -54 -61 -51 -65 4 -4 34 -7 66 -7 45 0 58 3 58 15 0 11 -12
15 -44 15 l-43 0 43 44 c66 65 58 116 -17 116 -28 0 -42 -6 -54 -22z"/>
<path d="M7785 6680 c-42 -82 15 -187 83 -151 27 14 39 89 23 142 -11 37 -14
39 -51 39 -34 0 -42 -4 -55 -30z m85 -9 c24 -46 5 -121 -30 -121 -24 0 -40 28
-40 70 0 42 16 70 40 70 11 0 24 -9 30 -19z"/>
<path d="M7940 6691 c-5 -11 -10 -45 -10 -75 0 -61 22 -96 60 -96 38 0 60 35
60 96 0 76 -11 94 -60 94 -29 0 -42 -5 -50 -19z m80 -20 c24 -46 5 -121 -30
-121 -24 0 -40 28 -40 70 0 42 16 70 40 70 11 0 24 -9 30 -19z"/>
<path d="M8100 6691 c-5 -11 -10 -45 -10 -75 0 -61 22 -96 60 -96 38 0 60 35
60 96 0 76 -11 94 -60 94 -29 0 -42 -5 -50 -19z m80 -20 c24 -46 5 -121 -30
-121 -24 0 -40 28 -40 70 0 42 16 70 40 70 11 0 24 -9 30 -19z"/>
<path d="M8260 6691 c-5 -11 -10 -45 -10 -75 0 -61 22 -96 60 -96 38 0 60 35
60 96 0 76 -11 94 -60 94 -29 0 -42 -5 -50 -19z m80 -20 c24 -46 5 -121 -30
-121 -24 0 -40 28 -40 70 0 42 16 70 40 70 11 0 24 -9 30 -19z"/>
<path d="M639 6671 c-33 -33 -38 -75 -14 -120 25 -49 92 -55 136 -12 33 33 37
67 14 112 -29 55 -92 64 -136 20z m111 -20 c42 -80 -45 -163 -99 -95 -25 32
-27 61 -5 92 20 30 88 31 104 3z"/>
<path d="M910 6685 c0 -8 5 -15 10 -15 6 0 10 7 10 15 0 8 -4 15 -10 15 -5 0
-10 -7 -10 -15z"/>
<path d="M970 6605 l0 -95 55 0 c30 0 55 5 55 10 0 6 -20 10 -45 10 l-45 0 0
85 c0 50 -4 85 -10 85 -6 0 -10 -38 -10 -95z"/>
<path d="M1241 6691 c-18 -11 -17 -147 0 -168 13 -15 39 -17 39 -3 0 6 -4 10
-10 10 -15 0 -13 97 3 103 9 4 9 8 1 14 -7 4 -14 18 -15 30 -3 17 -8 20 -18
14z"/>
<path d="M1470 6605 c0 -57 4 -95 10 -95 6 0 10 20 10 45 0 38 3 45 20 45 13
0 32 -17 52 -45 45 -64 67 -62 28 3 -20 32 -20 32 0 52 46 46 14 90 -66 90
l-54 0 0 -95z m115 55 c12 -20 -17 -40 -56 -40 -35 0 -39 3 -39 25 0 23 4 25
44 25 25 0 48 -5 51 -10z"/>
<path d="M820 6578 c0 -80 18 -92 22 -15 2 43 7 54 26 62 32 14 27 23 -13 22
l-35 -1 0 -68z"/>
<path d="M910 6580 c0 -40 4 -70 10 -70 6 0 10 30 10 70 0 40 -4 70 -10 70 -6
0 -10 -30 -10 -70z"/>
<path d="M1099 6628 c5 -13 16 -47 26 -77 17 -50 17 -55 2 -66 -22 -16 -22
-37 0 -33 12 2 28 33 50 98 38 109 36 103 22 98 -7 -2 -20 -24 -30 -48 l-17
-45 -16 37 c-9 21 -16 42 -16 48 0 5 -7 10 -15 10 -11 0 -12 -5 -6 -22z"/>
<path d="M1290 6465 c0 -12 15 -15 75 -15 60 0 75 3 75 15 0 12 -15 15 -75 15
-60 0 -75 -3 -75 -15z"/>
<path d="M8135 6007 c-36 -31 -43 -91 -16 -134 18 -29 26 -33 65 -33 37 0 48
5 70 31 30 35 33 67 11 110 -27 51 -87 63 -130 26z m99 -23 c25 -24 21 -90 -6
-108 -51 -36 -98 -7 -98 59 0 22 5 46 12 53 17 17 74 15 92 -4z"/>
<path d="M8400 6015 c0 -8 5 -15 10 -15 6 0 10 7 10 15 0 8 -4 15 -10 15 -5 0
-10 -7 -10 -15z"/>
<path d="M8460 5936 l0 -96 55 0 c30 0 55 5 55 10 0 6 -18 10 -40 10 l-39 0
-3 82 c-2 54 -7 83 -15 86 -10 3 -13 -20 -13 -92z"/>
<path d="M8730 6016 c-17 -21 -16 -142 2 -163 12 -15 38 -17 38 -3 0 6 -4 10
-10 10 -15 0 -13 97 3 103 9 4 9 8 1 14 -7 4 -14 19 -15 32 -4 23 -5 23 -19 7z"/>
<path d="M8960 5935 l0 -95 55 0 c30 0 55 5 55 10 0 6 -20 10 -45 10 l-45 0 0
85 c0 50 -4 85 -10 85 -6 0 -10 -38 -10 -95z"/>
<path d="M8310 5908 c0 -80 18 -92 22 -15 2 43 7 54 26 62 32 14 27 23 -13 22
l-35 -1 0 -68z"/>
<path d="M8400 5910 c0 -40 4 -70 10 -70 6 0 10 30 10 70 0 40 -4 70 -10 70
-6 0 -10 -30 -10 -70z"/>
<path d="M8589 5958 c40 -106 46 -158 20 -158 -5 0 -9 -4 -9 -10 0 -17 29 -11
38 8 18 33 62 175 57 180 -9 9 -22 -10 -35 -51 -14 -44 -25 -41 -41 13 -7 22
-18 40 -25 40 -10 0 -11 -6 -5 -22z"/>
<path d="M8780 5790 c0 -6 32 -10 75 -10 43 0 75 4 75 10 0 6 -32 10 -75 10
-43 0 -75 -4 -75 -10z"/>
<path d="M155 5410 c-29 -30 -29 -54 0 -30 13 11 15 3 15 -64 0 -44 4 -76 10
-76 6 0 10 40 10 100 0 55 -1 100 -3 100 -2 0 -16 -13 -32 -30z"/>
<path d="M315 5410 c-29 -30 -29 -54 0 -30 13 11 15 3 15 -64 0 -44 4 -76 10
-76 6 0 10 40 10 100 0 55 -1 100 -3 100 -2 0 -16 -13 -32 -30z"/>
<path d="M472 5433 c-19 -7 -42 -58 -42 -93 0 -103 108 -138 125 -40 17 98
-21 158 -83 133z m58 -42 c24 -46 5 -121 -30 -121 -24 0 -40 28 -40 70 0 42
16 70 40 70 11 0 24 -9 30 -19z"/>
<path d="M610 5420 c-16 -16 -20 -33 -20 -80 0 -65 21 -100 60 -100 39 0 60
35 60 100 0 65 -21 100 -60 100 -11 0 -29 -9 -40 -20z m70 -29 c24 -46 5 -121
-30 -121 -24 0 -40 28 -40 70 0 42 16 70 40 70 11 0 24 -9 30 -19z"/>
<path d="M770 5420 c-16 -16 -20 -33 -20 -80 0 -65 21 -100 60 -100 39 0 60
35 60 100 0 65 -21 100 -60 100 -11 0 -29 -9 -40 -20z m70 -29 c24 -46 5 -121
-30 -121 -24 0 -40 28 -40 70 0 42 16 70 40 70 11 0 24 -9 30 -19z"/>
<path d="M930 5420 c-16 -16 -20 -33 -20 -80 0 -65 21 -100 60 -100 39 0 60
35 60 100 0 65 -21 100 -60 100 -11 0 -29 -9 -40 -20z m70 -29 c24 -46 5 -121
-30 -121 -24 0 -40 28 -40 70 0 42 16 70 40 70 11 0 24 -9 30 -19z"/>
<path d="M8439 5041 c-13 -11 -21 -23 -17 -27 5 -4 17 1 28 11 13 12 27 15 45
11 30 -8 29 -26 -3 -41 -28 -12 -28 -33 -1 -37 31 -4 46 -32 30 -52 -17 -21
-57 -21 -69 0 -5 9 -15 15 -22 12 -22 -7 26 -48 55 -48 14 0 34 9 45 20 21 21
27 65 10 75 -5 3 -7 18 -4 34 11 54 -50 80 -97 42z"/>
<path d="M8613 5052 c-47 -30 -40 -162 9 -178 67 -21 109 58 77 143 -12 32
-26 43 -54 43 -11 0 -25 -4 -32 -8z m55 -24 c7 -7 12 -38 12 -69 0 -43 -4 -58
-16 -63 -30 -12 -53 4 -60 39 -14 74 26 131 64 93z"/>
<path d="M8773 5052 c-47 -30 -40 -162 9 -178 67 -21 109 58 77 143 -12 32
-26 43 -54 43 -11 0 -25 -4 -32 -8z m55 -24 c7 -7 12 -38 12 -69 0 -43 -4 -58
-16 -63 -30 -12 -53 4 -60 39 -14 74 26 131 64 93z"/>
<path d="M8916 5045 c-38 -38 -27 -157 15 -170 32 -11 65 2 77 30 22 49 11
125 -22 147 -19 13 -54 9 -70 -7z m68 -27 c25 -36 18 -111 -11 -123 -9 -3 -24
-3 -34 0 -16 5 -19 17 -19 64 0 78 31 106 64 59z"/>
<path d="M9076 5045 c-38 -38 -27 -157 15 -170 32 -11 65 2 77 30 22 49 11
125 -22 147 -19 13 -54 9 -70 -7z m68 -27 c25 -36 18 -111 -11 -123 -9 -3 -24
-3 -34 0 -16 5 -19 17 -19 64 0 78 31 106 64 59z"/>
<path d="M52 3407 c-29 -30 -30 -52 -2 -37 19 10 20 8 20 -60 0 -40 4 -70 10
-70 6 0 10 38 10 95 0 52 -4 95 -8 95 -5 0 -18 -10 -30 -23z"/>
<path d="M203 3422 c-47 -30 -40 -162 9 -178 67 -21 109 58 77 143 -12 32 -26
43 -54 43 -11 0 -25 -4 -32 -8z m55 -24 c7 -7 12 -38 12 -69 0 -43 -4 -58 -16
-63 -30 -12 -53 4 -60 39 -14 74 26 131 64 93z"/>
<path d="M353 3422 c-42 -27 -42 -146 1 -174 18 -12 63 -9 75 5 28 34 25 132
-5 162 -16 16 -51 20 -71 7z m61 -34 c25 -36 18 -111 -11 -123 -9 -3 -24 -3
-34 0 -27 9 -28 119 -1 134 24 15 29 14 46 -11z"/>
<path d="M513 3422 c-42 -27 -42 -146 1 -174 18 -12 63 -9 75 5 28 34 25 132
-5 162 -16 16 -51 20 -71 7z m61 -34 c25 -36 18 -111 -11 -123 -9 -3 -24 -3
-34 0 -27 9 -28 119 -1 134 24 15 29 14 46 -11z"/>
<path d="M673 3422 c-30 -19 -43 -105 -22 -145 16 -29 28 -37 61 -37 48 0 73
79 47 147 -12 32 -26 43 -54 43 -11 0 -25 -4 -32 -8z m61 -34 c25 -36 18 -111
-11 -123 -9 -3 -24 -3 -34 0 -27 9 -28 119 -1 134 24 15 29 14 46 -11z"/>
<path d="M816 3411 c-40 -44 -27 -155 19 -167 60 -15 88 20 82 105 -3 38 -9
58 -22 67 -26 19 -59 17 -79 -5z m68 -23 c32 -45 13 -128 -29 -128 -34 0 -49
105 -19 134 21 21 30 20 48 -6z"/>
<path d="M8436 3251 c-25 -33 -46 -64 -46 -70 0 -5 19 -11 43 -13 35 -2 43 -7
45 -25 4 -28 22 -31 22 -3 0 10 8 23 18 29 16 9 16 10 0 16 -14 6 -18 19 -18
66 0 32 -4 59 -9 59 -4 0 -29 -27 -55 -59z m44 -26 c0 -32 -2 -35 -30 -35 -16
0 -30 3 -30 7 0 7 51 63 57 63 2 0 3 -16 3 -35z"/>
<path d="M8573 3302 c-47 -30 -40 -162 9 -178 67 -21 109 58 77 143 -12 32
-26 43 -54 43 -11 0 -25 -4 -32 -8z m55 -24 c7 -7 12 -38 12 -69 0 -60 -13
-76 -51 -64 -16 5 -19 17 -19 64 0 55 11 81 35 81 6 0 16 -5 23 -12z"/>
<path d="M8733 3302 c-47 -30 -40 -162 9 -178 67 -21 109 58 77 143 -12 32
-26 43 -54 43 -11 0 -25 -4 -32 -8z m55 -24 c7 -7 12 -38 12 -69 0 -43 -4 -58
-16 -63 -30 -12 -53 4 -60 39 -14 74 26 131 64 93z"/>
<path d="M8893 3302 c-47 -30 -40 -162 9 -178 67 -21 109 58 77 143 -12 32
-26 43 -54 43 -11 0 -25 -4 -32 -8z m55 -24 c7 -7 12 -38 12 -69 0 -43 -4 -58
-16 -63 -30 -12 -53 4 -60 39 -14 74 26 131 64 93z"/>
<path d="M9043 3302 c-42 -27 -42 -146 1 -174 18 -12 63 -9 75 5 28 34 25 132
-5 162 -16 16 -51 20 -71 7z m61 -34 c25 -36 18 -111 -11 -123 -9 -3 -24 -3
-34 0 -27 9 -28 119 -1 134 24 15 29 14 46 -11z"/>
<path d="M887 1802 c-44 -48 2 -129 58 -104 31 14 35 -6 7 -31 -23 -21 -36
-21 -52 -2 -16 19 -30 19 -30 0 0 -36 69 -46 100 -13 26 28 29 128 4 152 -21
22 -67 20 -87 -2z m77 -24 c16 -26 -4 -53 -40 -53 -35 0 -45 33 -18 59 20 20
43 18 58 -6z"/>
<path d="M1041 1806 c-17 -20 -25 -78 -17 -121 8 -41 40 -61 80 -51 47 12 61
130 20 171 -19 19 -68 20 -83 1z m69 -25 c23 -44 4 -132 -28 -131 -26 1 -37
23 -37 75 0 39 5 59 15 65 23 15 38 12 50 -9z"/>
<path d="M1201 1806 c-17 -20 -25 -78 -17 -121 8 -41 40 -61 80 -51 47 12 61
130 20 171 -19 19 -68 20 -83 1z m69 -25 c23 -44 4 -132 -28 -131 -26 1 -37
23 -37 75 0 39 5 59 15 65 23 15 38 12 50 -9z"/>
<path d="M1361 1806 c-17 -20 -25 -78 -17 -121 8 -41 40 -61 80 -51 47 12 61
130 20 171 -19 19 -68 20 -83 1z m69 -25 c23 -44 4 -132 -28 -131 -26 1 -37
23 -37 75 0 39 5 59 15 65 23 15 38 12 50 -9z"/>
<path d="M1524 1812 c-49 -32 -43 -162 8 -178 11 -3 30 -3 43 0 46 12 59 131
19 171 -16 16 -51 20 -70 7z m54 -24 c17 -17 15 -113 -3 -128 -24 -20 -54 -3
-61 35 -14 74 26 131 64 93z"/>
<path d="M7544 1560 c-9 -55 -9 -55 37 -55 29 0 45 -5 53 -17 24 -39 -43 -80
-70 -43 -20 26 -37 14 -19 -13 20 -28 75 -30 98 -4 39 43 5 108 -51 100 -25
-4 -28 -1 -24 19 4 19 11 23 43 23 28 0 39 4 39 15 0 11 -12 15 -50 15 l-50 0
-6 -40z"/>
<path d="M7716 1581 c-26 -28 -31 -90 -12 -134 14 -36 18 -38 53 -35 28 2 41
9 51 28 18 35 9 130 -14 147 -26 19 -58 16 -78 -6z m74 -30 c25 -47 3 -121
-35 -121 -28 0 -46 78 -29 124 9 22 51 20 64 -3z"/>
<path d="M7875 1580 c-25 -28 -31 -99 -11 -139 15 -29 21 -32 54 -29 27 2 40
9 50 28 18 35 9 130 -14 147 -26 19 -58 16 -79 -7z m75 -29 c25 -47 3 -121
-35 -121 -28 0 -46 78 -29 124 9 22 51 20 64 -3z"/>
<path d="M8030 1580 c-15 -15 -20 -33 -20 -76 0 -76 11 -94 60 -94 49 0 60 18
60 94 0 61 -22 96 -60 96 -11 0 -29 -9 -40 -20z m70 -29 c24 -46 5 -121 -30
-121 -34 0 -50 57 -34 118 8 28 49 30 64 3z"/>
<path d="M8190 1580 c-15 -15 -20 -33 -20 -76 0 -76 11 -94 60 -94 49 0 60 18
60 94 0 61 -22 96 -60 96 -11 0 -29 -9 -40 -20z m70 -29 c24 -46 5 -121 -30
-121 -34 0 -50 57 -34 118 8 28 49 30 64 3z"/>
<path d="M2528 569 c-21 -11 -23 -40 -6 -57 8 -8 8 -15 -1 -26 -20 -24 -9 -69
22 -86 24 -13 30 -13 55 0 30 17 41 62 22 85 -8 10 -8 19 1 34 26 41 -44 79
-93 50z m67 -34 c0 -22 -31 -33 -47 -17 -17 17 -1 44 24 40 15 -2 23 -10 23
-23z m5 -60 c15 -18 10 -45 -12 -59 -35 -22 -74 27 -48 59 16 19 44 19 60 0z"/>
<path d="M2679 563 c-9 -10 -14 -41 -14 -80 0 -70 15 -93 62 -93 28 0 63 51
63 92 0 33 -17 80 -33 90 -21 13 -64 9 -78 -9z m71 -22 c23 -44 4 -132 -28
-131 -37 1 -58 103 -27 133 22 22 42 21 55 -2z"/>
<path d="M2837 562 c-25 -28 -23 -126 3 -152 11 -11 29 -20 40 -20 11 0 29 9
40 20 26 26 29 130 4 154 -21 22 -67 20 -87 -2z m73 -21 c23 -44 4 -132 -28
-131 -37 1 -58 103 -27 133 22 22 42 21 55 -2z"/>
<path d="M2997 562 c-25 -28 -23 -126 3 -152 11 -11 29 -20 40 -20 11 0 29 9
40 20 26 26 29 130 4 154 -21 22 -67 20 -87 -2z m74 -23 c21 -40 0 -129 -31
-129 -35 0 -55 104 -25 133 22 23 42 21 56 -4z"/>
<path d="M3149 563 c-9 -10 -14 -41 -14 -80 0 -70 15 -93 60 -93 60 0 88 126
39 175 -20 20 -68 19 -85 -2z m71 -22 c23 -44 4 -132 -28 -131 -26 1 -37 23
-37 75 0 39 5 59 15 65 23 15 38 12 50 -9z"/>
<path d="M6107 552 c-27 -29 -23 -125 5 -152 26 -24 46 -25 76 -4 15 10 22 25
22 48 0 44 -29 71 -70 63 -33 -7 -35 -5 -20 24 12 21 50 25 68 7 15 -15 26 -4
19 17 -9 22 -79 20 -100 -3z m73 -76 c21 -26 8 -61 -24 -64 -43 -5 -61 32 -30
62 19 20 38 20 54 2z"/>
<path d="M6260 551 c-5 -11 -10 -45 -10 -75 0 -61 22 -96 60 -96 38 0 60 35
60 96 0 76 -11 94 -60 94 -29 0 -42 -5 -50 -19z m80 -20 c11 -22 13 -64 4 -98
-5 -17 -14 -23 -34 -23 -20 0 -29 6 -34 23 -16 60 0 117 34 117 11 0 24 -9 30
-19z"/>
<path d="M6409 531 c-16 -53 -4 -128 23 -142 68 -36 125 69 83 151 -13 26 -21
30 -55 30 -37 0 -40 -2 -51 -39z m81 0 c11 -22 13 -80 4 -105 -9 -22 -51 -20
-64 3 -24 46 -5 121 30 121 11 0 24 -9 30 -19z"/>
<path d="M6577 563 c-26 -45 -17 -157 15 -174 68 -36 125 69 83 151 -13 26
-21 30 -55 30 -21 0 -41 -3 -43 -7z m73 -32 c11 -22 13 -64 4 -98 -8 -29 -49
-31 -64 -4 -24 46 -5 121 30 121 11 0 24 -9 30 -19z"/>
<path d="M6737 563 c-26 -45 -17 -157 15 -174 68 -36 125 69 83 151 -13 26
-21 30 -55 30 -21 0 -41 -3 -43 -7z m73 -32 c11 -22 13 -64 4 -98 -8 -29 -49
-31 -64 -4 -24 46 -5 121 30 121 11 0 24 -9 30 -19z"/>
<path d="M4270 235 c0 -11 12 -15 49 -15 l49 0 -28 -52 c-36 -69 -45 -108 -25
-108 10 0 17 14 21 40 4 22 20 61 35 85 16 25 29 50 29 55 0 6 -29 10 -65 10
-51 0 -65 -3 -65 -15z"/>
<path d="M4462 243 c-19 -7 -42 -58 -42 -93 0 -17 7 -45 16 -61 14 -27 19 -30
56 -27 37 3 43 7 50 33 13 44 2 128 -19 143 -17 12 -38 14 -61 5z m58 -42 c24
-46 5 -121 -30 -121 -34 0 -50 57 -34 118 8 28 49 30 64 3z"/>
<path d="M4622 243 c-19 -7 -42 -58 -42 -93 0 -17 7 -45 16 -61 14 -27 19 -30
56 -27 37 3 43 7 50 33 13 44 2 128 -19 143 -17 12 -38 14 -61 5z m58 -42 c24
-46 5 -121 -30 -121 -34 0 -50 57 -34 118 8 28 49 30 64 3z"/>
<path d="M4782 243 c-19 -7 -42 -58 -42 -93 0 -17 7 -44 15 -60 13 -26 21 -30
55 -30 37 0 40 2 51 39 15 51 4 128 -21 141 -20 11 -37 12 -58 3z m58 -42 c24
-46 5 -121 -30 -121 -34 0 -50 57 -34 118 8 28 49 30 64 3z"/>
<path d="M4920 230 c-15 -15 -20 -33 -20 -76 0 -76 11 -94 60 -94 49 0 60 18
60 94 0 61 -22 96 -60 96 -11 0 -29 -9 -40 -20z m70 -29 c24 -46 5 -121 -30
-121 -34 0 -50 57 -34 118 8 28 49 30 64 3z"/>
</g>
</svg>
