<?xml version="1.0" encoding="UTF-8"?>
<svg version="1.1" viewBox="0 0 550.92 551.09" xmlns="http://www.w3.org/2000/svg" xmlns:xlink="http://www.w3.org/1999/xlink">
 <g transform="translate(-79.448 -67.781)">
  <g id="a" transform="translate(88.583 -177.18)" fill="none" stroke="#000" stroke-width=".88583">
   <path d="m531.5 520.87h-265.75s265.75-70.866 265.75-70.866"/>
   <path d="m351.86 497.85c-6.364 5.552-5.4801 18.175 2.6517 23.02"/>
   <path d="m383.68 489.36c-9.0029 5.552-8.8575 26.66 3.182 31.505"/>
   <path d="m314.4 507.69c-4.669 6.1511-3.3081 9.5755 2.8695 13.183"/>
   <path d="m414.9 480.94c-13.388 6.6611-9.9532 35.916 3.7874 39.875"/>
   <path d="m446.05 472.73c-13.582 7.7675-10.953 46.21 6.7249 48.125"/>
   <path d="m482.19 463.15c-16.878 11.063-14.233 48.641 6.3111 57.714"/>
   <path d="m517.82 453.61c-18.258 13.133-12.775 60.664 9.4276 67.248"/>
  </g>
  <use transform="matrix(.96593 .25882 -.25882 .96593 101.59 -80.298)" width="744.09448" height="1052.3622" xlink:href="#a"/>
  <use transform="matrix(.86602 .5 -.5 .86602 219.88 -131.55)" width="744.09448" height="1052.3622" xlink:href="#a"/>
  <use transform="matrix(.70711 .70711 -.70711 .70711 347.37 -150.32)" width="744.09448" height="1052.3622" xlink:href="#a"/>
  <use transform="matrix(.5 .86602 -.86602 .5 475.37 -135.45)" width="744.09448" height="1052.3622" xlink:href="#a"/>
  <use transform="matrix(.25882 .96593 -.96593 .25882 595.17 -87.953)" width="744.09448" height="1052.3622" xlink:href="#a"/>
  <use transform="matrix(0 1 -1 0 698.59 -11.073)" width="744.09448" height="1052.3622" xlink:href="#a"/>
  <use transform="matrix(-.25882 .96593 -.96593 -.25882 778.58 90.085)" width="744.09448" height="1052.3622" xlink:href="#a"/>
  <use transform="matrix(-.5 .86602 -.86602 -.5 829.83 208.37)" width="744.09448" height="1052.3622" xlink:href="#a"/>
  <use transform="matrix(-.70711 .70711 -.70711 -.70711 848.6 335.86)" width="744.09448" height="1052.3622" xlink:href="#a"/>
  <use transform="matrix(-.86602 .5 -.5 -.86602 833.73 463.87)" width="744.09448" height="1052.3622" xlink:href="#a"/>
  <use transform="matrix(-.96593 .25882 -.25882 -.96593 786.24 583.66)" width="744.09448" height="1052.3622" xlink:href="#a"/>
  <use transform="matrix(-1 -8.8525e-8 8.8525e-8 -1 709.26 686.95)" width="744.09448" height="1052.3622" xlink:href="#a"/>
  <use transform="matrix(-.96593 -.25882 .25882 -.96593 608.23 766.95)" width="744.09448" height="1052.3622" xlink:href="#a"/>
  <use transform="matrix(-.86602 -.5 .5 -.86602 489.94 818.2)" width="744.09448" height="1052.3622" xlink:href="#a"/>
  <use transform="matrix(-.70711 -.70711 .70711 -.70711 362.45 836.97)" width="744.09448" height="1052.3622" xlink:href="#a"/>
  <use transform="matrix(-.5 -.86602 .86602 -.5 234.45 822.09)" width="744.09448" height="1052.3622" xlink:href="#a"/>
  <use transform="matrix(-.25882 -.96593 .96593 -.25882 114.65 774.6)" width="744.09448" height="1052.3622" xlink:href="#a"/>
  <use transform="matrix(0 -1 1 0 11.225 697.72)" width="744.09448" height="1052.3622" xlink:href="#a"/>
  <use transform="matrix(.25882 -.96593 .96593 .25882 -68.782 596.56)" width="744.09448" height="1052.3622" xlink:href="#a"/>
  <use transform="matrix(.5 -.86602 .86602 .5 -120.04 478.27)" width="744.09448" height="1052.3622" xlink:href="#a"/>
  <use transform="matrix(.70711 -.70711 .70711 .70711 -138.8 350.78)" width="744.09448" height="1052.3622" xlink:href="#a"/>
  <use transform="matrix(.86602 -.5 .5 .86602 -123.93 222.78)" width="744.09448" height="1052.3622" xlink:href="#a"/>
  <use transform="matrix(.96593 -.25882 .25882 .96593 -76.437 102.99)" width="744.09448" height="1052.3622" xlink:href="#a"/>
 </g>
</svg>
