<?xml version='1.0' encoding='utf-8'?>
<svg xmlns="http://www.w3.org/2000/svg" version="1.1" id="Layer_1" x="0px" y="0px" viewBox="0 0 5000 4975.3" style="enable-background:new 0 0 5000 4975.3;"> <style type="text/css"> .st0{fill:#231F20;} </style> <g> <g> <path d="M4874.1,789.2c-4.6-12-16-21.8-25.3-21.8c-52.7,0-224.3-76-317-140.4c-123.6-85.8-260.3-279.8-292.1-414.4 c-4.8-20.6-17.1-50.2-27.3-65.9l-18.5-28.5l-775.5,6.9c-426.5,3.8-1047.6,9.6-1380.2,12.8s-743.7,5.9-913.6,6 c-283.2,0.1-309.5,1.9-315.9,21.9c-106.9,335.6-339,580.5-599.9,632.8c-22.2,4.5-44.6,14.7-49.8,22.7 c-15.7,24.3-13.8,3360.8,1.9,3373.6c7.4,6,41.8,19.3,76.4,29.5c258.6,76.2,474,291.5,547.6,547.4c16,55.5,26.3,71.8,47.8,75.1l0,0 c15.1,2.3,128.4,3.2,251.8,1.8c123.4-1.3,876.4-2.9,1673.3-3.5l1448.9-1.1l17.8-59.9c85.4-287.7,306-513.1,565.7-578.3 c32.8-8.2,64-18.5,69.4-22.9C4871.4,4173.4,4885.9,819.9,4874.1,789.2z M4212.3,259.1c38,197.6,304.2,458.5,536.6,525.8 c65.4,18.9,65.9,31.4,3.4,77.4c-78.5,57.7-93.2,59.1-177,16.9c-307.9-155.3-554.9-476.6-456.6-593.9c22-26.3,45.7-54.9,52.8-63.6 C4189.5,199.2,4203.2,211.8,4212.3,259.1z M3965.6,4037.1c18.3,57.5,13.8,65.3-38.4,67c-65.8,2.1-73.8-4.3-50.3-40.2 c17.2-26.2,17.3-30,1-30c-10.3,0-27.4,16.8-38,37.4c-26,50.3-76.1,52-94.7,3.1c-16.3-43-48.6-79.4-62.7-70.8 c-5.9,3.6-1.7,20.3,9.3,37c26.7,40.7,14.2,68-31.3,68c-49.3,0-76.2-11.5-76.2-32.5c0-9.6-8.2-17.4-18.3-17.4 c-10.4,0-15.5,7.4-11.8,17.1c16.9,44.1-70.6,33.5-100.6-12.2c-24.6-37.6-50.6-40.6-30.7-3.6c19.4,36.2,0.6,51.1-58.3,46.3 c-44.5-3.6-48.4-7-48.8-41.4c-0.6-49.5-21.4-47.7-36.4,3.1c-17.8,60.6-80.7,58.8-110.2-3.1c-20.9-43.9-57.1-63.7-39.8-21.8 c26.9,65.3,25.7,67.2-38.9,63.1l-60.9-3.9l3-43.6c2.8-41,1.9-42.2-15.6-19.4c-10.2,13.3-18.6,31.7-18.6,40.8 c0,57.5-100.1,44.3-129.3-17.1c-14.9-31.4-25.6-41.3-34.6-32.4c-9,9-8.9,20.5,0.2,37.6c17.8,33.2,7.4,40.4-58,40.4 c-59.2,0-62.5-8-33.4-81c15.2-38.1-39.8,12.4-60.3,55.3c-30.8,64.5-91.4,47.4-118.6-33.5c-17.5-52,3.4-54.1,32.4-3.3l21.2,37.3 l37.7-44.7c62.5-74.2,206.8-72.9,241,2.2c18.6,40.7,33.5,38.3,82.1-13.3c54.6-57.9,144.5-62.7,205.8-11.1 c40.5,34.1,44.9,33.3,98.2-16.9c23.4-22.1,133.3-19.9,156.3,3.1c10.3,10.3,24.7,18.7,32.1,18.7c7.3,0,13.4-8.4,13.4-18.7 s8.4-18.7,18.7-18.7s18.7,8.4,18.7,18.7c0,23.3,11.8,23.2,42.9-0.4c41.2-31.2,146.9-23.9,186.5,12.8l33.6,31.1l26.8-25 c88.7-82.7,246.3-48.2,246.3,53.8c0,46.5-21.3,42-45.9-9.5C3988,4014.9,3951.4,3992.4,3965.6,4037.1z M2430.9,4033.9 c-10.5,0-25.9,15.4-34.1,34.3c-31.7,72.1-111,77.4-139.4,9.4c-10-24-23.2-43.6-29.3-43.6c-21.5,0-26,15.5-11.3,39.1 c18.1,29.3-3.8,47.7-57.2,48c-41,0.2-57.1-29.7-35-65c8.4-13.5,12.1-27.7,8.3-31.5c-9.8-9.8-54.9,33-63.6,60.3 c-15.9,50.2-108,42.3-133.8-11.5c-8.6-18-26.9-34.8-40.6-37.3c-20.1-3.6-21.9-1.4-9.3,11.7c39.9,41.4,19.2,75.1-43.6,71.1 l-59.2-3.8l2.9-48.1c2.5-41.3,0.3-45.9-15.6-32.8c-10.2,8.4-18.5,31.5-18.5,51.2c0,64.1-99.7,53.3-129.4-14 c-23.3-52.8-53.3-70.1-37.9-21.8c18.8,59.1,14.4,65.3-49.3,69.3l-60.7,3.9l16.1-95l-25.2,29.4c-13.9,16.2-25.2,37.2-25.2,46.8 c0,27.7-110.8,23.6-120.7-4.5c-9.7-27.4-41.9-65.5-55.4-65.5c-5.6,0-4.7,14.4,1.9,32c19.8,52.1,15.8,55.3-68.9,55.3 c-78.1,0-108.2-19.2-68.6-43.6c16-9.9,16.2-31.2,0.3-31.2c-6.7,0-20.8,16.8-31.5,37.4c-19.4,37.6-47.7,48.6-62.7,24.4 c-10.4-16.8,23.6-68.5,61.3-93.2c83.4-54.6,238.5-21.7,263.1,55.9c11,34.6,21.7,32.1,55.1-13.1c55.8-75.5,181-91.8,234.3-30.4 c33.4,38.4,60.7,43.3,41.5,7.4c-8.7-16.2-8.8-26.7-0.3-32c6.9-4.3,16,1.1,20.1,11.9c6.6,17.2,12.9,16.3,50.7-7 c56.2-34.7,143.3-25.5,191.1,20.2c39.9,38.3,50.3,39,46.5,3.5c-2-18.4,4.8-29.1,20.6-32.4c18.7-3.9,22.2,0.5,16.8,21.3 c-8.9,34-2.2,33,44.6-6.3c52.8-44.4,149.6-38.1,186.3,12.2c27.4,37.6,49.3,42.9,46.1,11c-4.1-40.3,0.5-53,19.3-53 c18.2,0,24,14.1,19.4,47.7c-1.4,10.7,10.8,6.9,34.6-10.7c20.3-15,61.7-30.1,92.1-33.5l55.2-6.2l1.4,63.7 c1.3,59.1-0.7,63.7-28,63.7c-16.2,0-38.3,3.4-49.1,7.5c-26.2,10-40.5-28.9-21.7-59C2447.2,4038.3,2446.4,4033.9,2430.9,4033.9z M1184,942.2c10.4-8.7,19-28.5,19-44.1c0-28.4,29.7-49.7,51-36.5c30.4,18.8-5.2,88.5-59.5,116.3c-61,31.2-160.2,3.6-198.8-55.3 c-26.4-40.2-13.7-73.6,23.6-62.2c15.3,4.7,57.4,7.8,93.4,7c68.2-1.6,88.2,21.9,50.7,59.4C1142.5,947.6,1161,961.3,1184,942.2z M1530.9,875.7c9.3-24.4,33.7-17.6,33.7,9.5c0,9.1-10.6,29.7-23.6,45.7c-25,30.9-161.4,65.1-189.8,47.5 c-25.5-15.8-60.5-103.8-46.7-117.5c8.3-8.3,17.9-5.1,28.7,9.5c14.6,19.8,17.8,20,32.4,2.5c31.8-38.3,131.3-19.5,126.7,23.9 C1487.9,936.2,1513.2,922.4,1530.9,875.7z M1564.6,954.4c6.9,0,12.5,5.6,12.5,12.5c0,6.9-5.6,12.5-12.5,12.5 c-6.9,0-12.5-5.6-12.5-12.5C1552.1,960,1557.7,954.4,1564.6,954.4z M2535.6,1009.8l1375.1-8.7l-8.4,53.7l-561,6 c-1813.1,19.3-2200.5,18.1-2200.5-6.8C1140.7,1017.3,1092,1018.9,2535.6,1009.8z M1786.7,932.2c10.5,10.5,19,2.5,33.3-31.7 c21.7-51.9,43.8-60.3,43.8-16.6c0,32.1-25,57.7-78.5,80.6c-92.2,39.3-162.3,13.9-188.2-68.2c-11.3-35.8,16.1-52.4,37.7-22.9 c15,20.5,17.2,20.7,24.4,1.9c5.8-15.2,23.6-20.6,68.2-20.6c65,0,85.5,15,60.8,44.7C1776.5,913.3,1776.2,921.7,1786.7,932.2z M1869.6,934.1c24.9-9.6,44.3,5,35.9,26.9c-3.9,10.1-14.2,18.3-23.1,18.3C1859.1,979.3,1848.5,942.2,1869.6,934.1z M2080.7,938.6 c12.4,12.4,44.9-32.1,44.9-61.4c0-14,9.2-22.6,24.2-22.6c66,0,15.4,92-57.2,104c-112.8,18.6-139,12.3-165.7-40.1 c-13.6-26.6-21.2-51.8-16.9-56.1c13.5-13.5,51.1-8.5,58.7,7.8c5.8,12.5,8.7,12.5,14.5,0c12.3-26.4,117.4-20.3,117.4,6.9 c0,12.3-6.6,29.1-14.7,37.2C2077.8,922.4,2075.5,933.3,2080.7,938.6z M2392.7,929.5c9.7,0,24.3-19.9,32.4-44.3 c10-30.3,21.1-43.1,35.1-40.4c32.8,6.3,30.8,40.9-4.7,83c-71.4,84.9-291.5,16.1-236-73.7c11.6-18.8,43.3-13.8,43.3,6.8 c0,20.9,13.9,24.3,31.8,7.8c41.4-37.9,133.5-12.3,94.9,26.3C2369.8,914.7,2371.2,929.5,2392.7,929.5z M2212.9,953.7 c0,15.7-19.5,27-29.4,17c-14-14-8.6-28.8,10.7-28.8C2204.5,941.9,2212.9,947.2,2212.9,953.7z M2509.8,932.3 c8.1-2.7,14.8,4,14.8,14.8c0,10.9-8.9,19.7-19.7,19.7C2482.8,966.9,2486.7,940,2509.8,932.3z M2736.5,888.7 c20.6-44.3,41-52.2,47.5-18.4c2.3,12-12.6,38.7-33.2,59.2c-77.2,77.2-248.8,28.1-219.9-62.8c10.2-32,25.1-31,49.3,3.6l19.7,28.1 l7.4-28.1c6.1-23,16.1-28.1,55.8-28.1c51.7,0,55.2,5.4,36.3,55.3C2681,945.9,2713.5,938.2,2736.5,888.7z M2792.4,934.1 c23.9-9.2,37.2,0.9,25.7,19.5c-10.3,16.8-27.9,17.1-38,0.7C2775.8,947.4,2781.4,938.3,2792.4,934.1z M3038.3,882.9 c9-18.8,26.3-36.1,38.5-38.4c40.4-7.8-4.4,75.3-54.2,100.6c-96.7,49-198.9,6.6-198.9-82.5c0-25.7,44.6-27,54.4-1.6 c4,10.3,13,18.7,20,18.7s12.9-8.4,12.9-18.7c0-13.6,14-18.7,51.4-18.7c50.5,0,51.3,0.7,43.9,37.4 C2997.1,926.4,3016.5,928.4,3038.3,882.9z M3313.1,926.6c8.6-2.8,21-22.9,27.6-44.7c17.3-57.6,63.2-57,51.7,0.6 c-4.4,22.2-15.6,47.9-24.7,57c-63.3,63.3-212.7,27.5-237.9-56.9c-11-36.8,25.1-53,48-21.6c14.7,20.1,16.8,20.2,24,1.6 c5.7-14.8,23.5-20.4,64.3-20.4c60.1,0,63.6,4.5,43.9,56.4C3300.3,923.8,3301.1,930.4,3313.1,926.6z M3128.7,955.3 c-9.5,15.4-39.6,14.8-49.4-0.9c-9.5-15.3,24.8-30.3,43.3-18.9C3129.9,940,3132.7,948.9,3128.7,955.3z M3637.6,880.7 c12.6-33.3,71.4-59.4,71.4-31.7c0,19.7-40.8,81.4-65,98.4c-72.4,50.7-221.7-5-221.7-82.7c0-27.2,35.3-30.2,45.4-3.9 c4,10.3,12.2,18.7,18.3,18.7s11.1-8.4,11.1-18.7c0-13.9,14.7-18.7,57.5-18.7c54.7,0,57.1,1.5,49.8,30.4 C3592.8,918.4,3620.8,925.2,3637.6,880.7z M3733.9,935c0,9.9-5.2,21.2-11.6,25.1c-14.8,9.2-29.7-14.2-19.6-30.6 C3714.2,910.9,3733.9,914.4,3733.9,935z M3423.2,951c0.5,5-5.8,11.3-14,14c-8.2,2.7-12.7-1.7-10-10 C3404.5,939,3421.6,936.1,3423.2,951z M3970.3,879.6c36.5-42.1,52.3-52.6,63-42c18.2,17.9-12.3,81.4-52.8,109.8 c-31.8,22.3-129.2,25.4-163.9,5.2c-71.7-41.7-96.1-110.4-39.1-110.4c17.1,0,31.2,6.7,31.2,15c0,11.6,3.3,11.6,15,0 c21.6-21.6,134.6-19.8,134.6,2.2c0,9.5-8.4,24.2-18.7,32.7c-10.3,8.5-18.5,21.8-18.3,29.6C3921.5,929.4,3943.6,910.5,3970.3,879.6 z M3628.5,1328.4c130.4,0,168.3,12.5,167.8,55.3c-0.2,16.1-310.4,16.8-316.3,0.8C3464,1340.7,3496.5,1328.4,3628.5,1328.4z M3606.1,1231.2c62.1,3.2,71.7,7.1,71.7,28.7c0,25.1-86.2,40.8-127.8,23.2C3498.9,1261.5,3535.6,1227.5,3606.1,1231.2z M3721.5,1253.6c0-13.9,8.3-24.9,18.7-24.9c10.4,0,18.7,11.1,18.7,24.9c0,13.9-8.3,24.9-18.7,24.9 C3729.8,1278.6,3721.5,1267.5,3721.5,1253.6z M3733.9,1916.5c0,51.5,18.3,108.1,70.2,217.3c23.1,48.6,42,92.1,42,96.6 c0,14.5-46.4,8.7-59.2-7.4c-41.6-52.6-104.1-310-101.6-419l1.3-57.8l12.3,43.6c6.7,24,17.4,53.4,23.7,65.3 C3728.8,1866.9,3733.9,1894.6,3733.9,1916.5z M3827.4,1183.7l-185.8,0.7c-203.7,0.7-228.2-5.9-208.9-56.6l12-31.7l382.6,1.7 l0,42.9V1183.7z M3438,2241c123.8-195.1,159.6-466.5,101.6-770.1l-7.3-38.3l91.5,1.3c83.3,1.2,91.2,3.5,88.3,25.8 c-17.1,132.4-20.5,144.7-43.2,156.9c-45.4,24.3-5.4,420.8,59.3,587.6c5.9,15.2,2.4,21.8-11.4,21.8c-13.6,0-22.4-15.9-27.9-50.4 c-10.5-65.7-36.4-57.4-31.5,10.2l3.7,51.5l-85.1,3.7c-163,7.1-84.7,28.8,88.4,24.5c171.2-4.2,193.9,1.6,164.3,42.1 c-28.6,39.1-347.6,35.5-385-4.3C3417.7,2275.7,3417.4,2273.3,3438,2241z M3610,2388.2c-42.1,0-75.5-5.5-75.5-12.5 c0-6.9,30.5-12.5,67.8-12.5c37.3,0,71.3,5.6,75.5,12.5C3682.6,2383.5,3657.2,2388.2,3610,2388.2z M3444.6,2446.6 c29.5-26.7,364.3-34.3,394.9-9c29.9,24.8,24.5,96-8.9,117.9c-41.6,27.3-327.5,36.3-374,11.9 C3415.1,2545.7,3408.5,2479.2,3444.6,2446.6z M3696.2,2638c-10.1,6.4-29.6,10.7-43.3,9.6c-114.4-9.1-132.1-12.8-127.4-26.4 c3.4-10,33.1-13.8,90.3-11.6C3707,2613.1,3725.3,2619.6,3696.2,2638z M3635.3,2674c189.2,2.6,222.1,10.1,208.2,47.5 c-4.1,10.8-433.7,13.5-433.7,2.6C3409.7,2678.5,3442.2,2671.3,3635.3,2674z M3475.5,3588.4c-17.1-44.6,5.4-53.1,145.8-55.3 c75.6-1.1,146.7-2.5,158-3.1c28.9-1.5,51.9,37.6,33.1,56.3C3791.2,3607.6,3483.6,3609.4,3475.5,3588.4z M3771.3,3704.5 c0,18.6-15,23.4-29.1,9.4c-12.4-12.4-10.1-66.5,2.8-66.5C3757.5,3647.4,3771.3,3677.5,3771.3,3704.5z M3711.7,3722.2h-177.2v-90.5 l77.8,8.8c90.7,10.3,80.1,4.7,90.8,47.4L3711.7,3722.2z M3792.4,2834.1c-92.6,149.8-111.6,472.5-38,648.1 c6.7,15.9-207.2,24.2-222.8,8.6c-3.8-3.8,2.2-24.9,13.4-46.8c59.5-116,5.7-534.2-81.5-633.9c-26.3-30.1-3.9-38.6,98.5-37.7 c105.7,1,100.2-3.9,77.9,70.2c-24.3,80.8-24.4,204.7-0.2,214c14.2,5.4,18.1,35.4,18.3,138.9c0.1,73.5,6,137.6,13.1,144.8 c8.8,8.8,12.8-37,12.8-146.1c0-233.6,51.6-432,112.5-432C3828.5,2762.2,3827.6,2777.2,3792.4,2834.1z M3717.6,2779.2 c3.9,3.9-1.9,34.2-12.8,67.4c-10.9,33.2-23.6,85.4-28.2,115.8c-14.2,92.9-32.4,101.9-23.7,11.7 C3666.1,2837.1,3693.3,2754.9,3717.6,2779.2z M3421.6,3780.1c7.3-20.8,26.3-22.8,219.4-23.5l211.4-0.7l3.9,45.5l3.9,45.5h-217.5 C3409,3846.9,3399.2,3843.9,3421.6,3780.1z M2355.4,2291.5c-19-23.4-44.3-40.1-67.3-59.6c-26.4-22.4-52.9-44.8-79.3-67.1 c-42.1-42.1-92.7-78.4-138.2-116.9c-41.5-35.1-80-77-118.2-116.2c-64.8-66.6-127.1-137.3-176.2-216.5 c-61.5-99-95-210.2-75.7-326.8c41.4-250.6,69.9-259.2,869-259.3l574.8-0.1c0,0,52.8,38.3,52.8,38.3 c137.3,99.5,110.5,317,54.8,452.8c-37.8,92-95.6,167-163.8,238c-84.1,87.5-168.2,175-252.2,262.4c-39.4,41-78.8,82-118,123.1 c-32.8,34.3-76.2,68.2-95.4,111.9c-17.4,39.5-38,72.8-37.8,117.6c0.2,47.4,19.8,92.5,41.9,133.5 c11.2,20.7,117.6,129.8,236.6,242.6c337.2,319.6,414.2,416.7,464.2,585.5c18.9,63.8,22.8,133,14,198.8 c-7.7,57.4-27.1,115.4-74.7,152.4c-51.4,40-142.3,38.5-203.6,37.1c-150.4-3.6-299.5-0.2-450.2,1.1c-215.9,1.9-431.9,3.4-647.8,2.7 c-26.4-0.1-44.3-3.4-68.9-10.3c-7.6-2.1-15.4-3.6-23.1-5.1c-11.1-2.2-22.3-4.4-33.1-7.9c-31-10-45.2-25.9-63.5-50.8 c-27.6-37.5-45.9-82.5-50.9-128.8c-6.9-62.9,3.5-127.4,19.7-188.2c17.2-64.7,46.5-129.3,79.6-187.4c19.9-35,49-63.7,75.3-94 c67.1-77.2,136.4-150.5,207.9-223.6c63.4-64.9,126-130.6,186.8-198c50.8-56.3,114.4-117.7,133.2-193.5c12-48.4,3.8-100.1-14-146.7 C2399.9,2355.9,2380,2321.8,2355.4,2291.5z M1216.4,2559c-34.7-91.3,6.8-117.5,194.6-122.9c185.5-5.3,231.5,27.6,178.1,127.4 C1567.3,2604.2,1232.1,2600.1,1216.4,2559z M1527.2,2637.5c0,6.9-5.6,12.5-12.5,12.5c-6.9,0-12.5-5.6-12.5-12.5 c0-6.9,5.6-12.5,12.5-12.5C1521.6,2625.1,1527.2,2630.7,1527.2,2637.5z M1437.3,2654.5c-71.3,19.1-175,1.8-135.5-22.6 c22.9-14.2,154.6-13.4,159.4,0.9C1463.8,2640.5,1453,2650.3,1437.3,2654.5z M1378.3,2375.7c72.5,0,81.8,18.3,14.8,29.4 c-59.5,9.8-71.9,9.8-81.7,0C1293.6,2387.3,1320.1,2375.7,1378.3,2375.7z M1489.8,2394.4c0-3.4,2.8-6.2,6.2-6.2 c3.4,0,6.2,2.8,6.2,6.2c0,3.4-2.8,6.2-6.2,6.2C1492.6,2400.6,1489.8,2397.8,1489.8,2394.4z M1569.9,2255.2 c-56.6-21.7-115.9-236.2-126.2-456.1c-4.4-93.9-12.6-159-20-159c-38,0,20.1,447.7,70.9,545.9c12.2,23.5,14.3,41.3,6.5,53.3 c-18.9,28.8-41.7-11.7-66.9-118.8c-22.3-94.7-44.1-114-44.1-39c0,22.5,8.4,68.5,18.6,102.1c10.2,33.7,18.6,62.6,18.7,64.3 c0.1,1.7-33.2,3.1-73.9,3.1c-73.8,0-106.8,15-66.9,30.4c11.6,4.4,80.9,4.3,154-0.4c142.7-9,170.5,0.4,130.7,44.4 c-37.3,41.2-309.5,34.2-343.3-8.7c-26-33-24.6-60.2,5.4-109.3c67.2-109.8,126.4-568.1,93.4-723.1c-4.6-21.4,2.7-25.8,50.8-31.2 c81.2-9.1,115.7-1.4,104.9,23.5c-48.1,110.5-3,522,74.7,680.9C1600.5,2246.3,1603.4,2268,1569.9,2255.2z M1395.9,1340.9 c102.5,0,163.6,21.7,152.7,54.1c-7.7,23.1-283.9,20.9-292.9-2.4C1242.7,1358.7,1290.7,1340.9,1395.9,1340.9z M1307.9,1244.3 c13.3-13.3,149.9-2,159.6,13.2c7.1,11.2,9.5,11,9.6-0.8c0.1-8.6,5.8-15.6,12.7-15.6c17.4,0,15.6,41.7-2.5,59.8 c-8.2,8.2-18,13.9-21.8,12.6c-3.8-1.3-38.8-4.4-77.9-6.8C1319.7,1302.5,1280.5,1271.8,1307.9,1244.3z M1402.6,1198.1 c-204.7,0.7-199.6,1.7-199.6-39.4c0-40.5,2-40.9,200.4-43.1l179.8-2l3.7,41.9l3.7,41.9L1402.6,1198.1z M1392.3,2687.3 c179.1-6.9,202.8-2.6,213.6,38.8c7,26.8,6.2,27-148.3,21c-113.2-4.4-161.1-1.7-176.8,9.7c-23.6,17.3,30.6,32.3,96.7,26.8 c31.1-2.6,31.2-2.5,26.7,94c-3,64.9,0.1,96.6,9.4,96.6c7.6,0,13.8-13.8,13.8-30.6c0-56.6,26.9-156.5,42.1-156.5 c11.3,0,9.5,31.8-7.1,127.8c-25.6,147.5-42.4,389.4-30.3,437.7c18.6,74.1,31.2,24.8,30.7-119.7c-0.8-196.1,44.5-435.4,85.3-451.1 c36.6-14.1,44.7,12.3,19.3,63.1c-55.2,110.5-88.9,454.8-56.4,577.4c8.3,31.2,15.3,63.8,15.6,72.4c0.4,11.4-29.9,15.6-111.7,15.6 c-121.1,0-121.3-0.1-93.5-66.7c62.5-149.6,7.6-520.7-94.2-636.6C1151,2720.1,1185.3,2695.2,1392.3,2687.3z M1365.1,3610 c-122.7-5.8-131.1-7.9-134.8-33.4c-4.8-33.8,13.7-36.6,212.7-31.3c144.1,3.8,146.5,4.3,146.5,33 C1589.5,3614.2,1555.1,3619,1365.1,3610z M1539.6,3691c0,34.8-30.2,43-42.3,11.4c-12.6-33-8.7-42.6,17.4-42.6 C1533,3659.9,1539.6,3668.2,1539.6,3691z M1466.5,3734.7h-86c-99.6,0-100.1-0.3-92.8-49.8c9.2-62.7,167.4-48.2,174.9,16 L1466.5,3734.7z M1203,3772.8l184.7,0.4c101.6,0.2,189.9-0.6,196.4-1.8c33-6.4,42.8,3.8,42.8,44.3v43.6h-203.6 c-220.5,0-220.3,0-220.3-51.6V3772.8z M1281.5,980.6c-9,9-15.9,9.2-21.2,0.6c-8.9-14.3,15-33.6,26.8-21.7 C1291.4,963.8,1288.8,973.3,1281.5,980.6z M1365.1,4021.4c0-13.7,7.5-24.9,16.6-24.9c23.5,0,32.6,12,24.8,32.4 C1396.3,4055.4,1365.1,4049.8,1365.1,4021.4z M1150,3952c-42.4-43.3-10.8-56.1,130.9-53.3c77.1,1.6,705.5-1.5,1396.4-6.9 l1256.1-9.7v25.3c0,13.9-4.4,28-9.8,31.4C3906.9,3949.1,1160,3962.2,1150,3952z M3800.8,4002.7c-4,10.3-12.2,18.7-18.3,18.7 c-6.1,0-11.1-8.4-11.1-18.7s8.2-18.7,18.3-18.7C3800.8,3984,3805.1,3991.3,3800.8,4002.7z M3241.4,3996.5 c-4.2,6.9-13.3,12.5-20.2,12.5c-6.9,0-9-5.6-4.8-12.5c4.2-6.9,13.3-12.5,20.2-12.5C3243.5,3984,3245.7,3989.6,3241.4,3996.5z M2955.4,4020.3c-4.6,7.5-13.3,13.6-19.4,13.6c-19.3,0-28.3-26.6-13.9-41C2939.3,3975.7,2968.2,3999.6,2955.4,4020.3z M2643,4011 c0,8-7.5,17.1-16.8,20.1c-10.5,3.5-15.2-2.2-12.5-15.2C2618.6,3992.6,2643,3988.5,2643,4011z M3790,804.8 c-171.4,0.9-510.9,3.9-754.3,6.5c-1458.1,15.9-2099.1,18-2087.9,6.9c17.7-17.6,3086.7-42.3,3129-25.2 C4090.6,798.6,3963.3,803.8,3790,804.8z M968,4153.1c10.8-9.4,3140-15.9,3140-6.5c0,5.8-4.2,13.1-9.4,16.2 c-5.1,3.1-708.5,9.7-1563.1,14.6C1033.6,4186,932,4184.4,968,4153.1z M3998.9,755.8c-196.5,1.2-1047,8.3-2146,18.1h0 c-496.3,4.4-909.6,10.8-918.4,14.1c-18.7,7.2-38.2-43.2-22.6-58.4c13.5-13.1,604.4-22.2,2070.8-31.9l1162.6-7.7v64.9L3998.9,755.8 z M2172.3,4208.5c1439.3-1,1938.3-5,1955.8-15.9c26.5-16.4,48,12.9,35.4,48.4l-12,34.1l-523.6,3.4c-288,1.8-1018.7,6.3-1623.9,9.9 l-1100.3,6.6v-85.7L2172.3,4208.5z M890.7,194.3c7.8-4.8,242.5-9.6,521.7-10.7s732-4.6,1006.2-7.9c801.1-9.6,1726.6-11,1734.9-2.8 c4.2,4.2-8.5,27.1-28.3,50.8c-19.8,23.8-44.4,54.6-54.6,68.7c-18.4,25.1-31,25.6-879,32.7C1822,336.5,998.5,340,982.3,334.5 C954.7,325,875.4,203.7,890.7,194.3z M267.4,817.3c165.7,0,488.3-317.4,543.4-534.6c13.6-53.7,55.5-90.4,55.5-48.7 c0,9.3,16.6,36.4,36.9,60.1c46.7,54.7,46.6,70.2-1.2,165.1C804.4,652.8,612.7,836,422.5,917.6C391.2,931,364,941.9,362,941.9 c-2,0-32.4-22.9-67.6-51C231.2,840.6,222.7,817.3,267.4,817.3z M190.7,4111.8c-2.1-5.1-1-737.3,2.4-1627l6.2-1617.7l144.2,102.3 L341,4020.9l-39.7,28c-21.8,15.4-50.5,37.9-63.8,50.1C211.6,4122.8,196.9,4126.8,190.7,4111.8z M810.1,4722.7 c-41.7-208.2-306.3-471.6-535-532.4c-64.3-17.1-67.9-35.4-13.6-69c24.5-15.1,52.8-35.8,63-46c56.6-56.6,342,131.8,484.7,320.1 c123.8,163.3,139.3,227.3,74.4,306.5C830.9,4766.1,819.4,4769.4,810.1,4722.7z M4131.4,4787.5c-8.2,8.1-3266.5,14.8-3271.5,6.7 c-2.6-4.2,7.8-21.3,23-38c15.3-16.7,40.6-48.6,56.3-70.9l28.6-40.6l3081.9,6.3l19.7,32.4c10.8,17.8,30.3,47.5,43.2,65.8 C4125.7,4767.7,4134.1,4784.8,4131.4,4787.5z M4728.2,4182.2c-215.5,61.4-443.5,283.5-514.1,500.9c-31.1,95.9-35.4,96.8-92.4,19.7 c-45.7-61.8-49.7-72.8-38-104.1c14.3-38,109.4-201.3,129.9-222.8c7-7.4,29.5-34.7,50.1-60.8c49.4-62.5,205.1-180.6,303.9-230.6 l79-39.9l67.2,44.6C4795,4143.1,4798,4162.3,4728.2,4182.2z M4838.2,888c-3.9,10.1-7.1,738.9-7.2,1619.5 c-0.2,1799.6,9.4,1639.1-93.4,1562.2c-71.4-53.5-68.3,112.3-55.7-2984.3l0.6-137.1l69.1-46.9 C4818.5,855.8,4852.6,850.5,4838.2,888z"/> <path d="M1418,3050.9c14.3-14.3,0.4-43-15.8-32.9c-6.1,3.8-7.8,15.4-3.7,26C1403.2,3056.5,1410,3058.9,1418,3050.9z"/> <path d="M4956.1,642.7c-307.1,0-623.7-314.7-623.7-619.8V0H691.2v15.7h9.4c-8.9,1.9-13.1,4.1-13.9,6.7 C684.4,31,676,79.8,668,130.9C623.8,416,378.1,650.2,96.5,675.6l-90.4,8.1v1760.6c0,828.4-2.6,1546.8-6.1,1757.2v116.1 c4.9,2.9,13.2,3,26.2,3c321,0,640.7,296.4,640.7,593.9v60.8h3517.7c86.4-1,134.5-1.9,135.3-2.7c3.4-3.1,12.7-47.3,20.6-98.2 c21.6-138.4,104.4-298.8,207-394.8c100.8-94.3,235.9-143.8,370.6-163.8c0,0,57.1-8.5,81.9-12.2V642.7H4956.1z M4936.7,4221.4 c-3.7,12.1-39.5,27.1-96.3,40.3c-266,62.2-477,271.2-545.9,540.7c-13.6,53.3-29,101.2-34.2,106.3h0 c-14.8,14.8-3506.4,18.7-3518.2,4c-5.5-6.9-12.9-32.1-16.5-56.1c-40.9-272.8-273.1-518.7-541.7-574c-39.5-8.1-81.8-20-94-26.5 C67.3,4244.4,56.6,792.8,79.1,758.7c4.4-6.7,43.9-19.2,87.7-27.7c153.7-29.8,274.7-102.9,392.6-237.2 C647.6,393.5,703,270.6,735.5,103.5l6.7-34.3l171.2-0.4c94.2-0.2,300.2-2.5,457.9-5.2s875.8-6.7,1595.7-9l1309-4.2l14.3,74.8 c56.2,294.4,359.4,578.4,618.7,579.6c18.9,0.1,35,7.2,35.8,15.7C4949.5,769.3,4941.6,4205.5,4936.7,4221.4z"/> <ellipse cx="1390" cy="1958" rx="12.5" ry="43.6"/> <path d="M1427.4,1490.5c-6.9,0-12.5,14.4-12.5,31.9c0,18.1,5.4,28.6,12.5,24.2c6.9-4.2,12.5-18.6,12.5-31.9 C1439.9,1501.4,1434.3,1490.5,1427.4,1490.5z"/> <path d="M3776.8,2538.1c17.6-6.7,32-21,32-31.7c0-20.4-55.2-16.7-122.4,8.2c-15.9,5.9-52.3,10.8-81,10.9 c-28.7,0.1-60.6,5.6-70.9,12.3l0,0C3509.1,2554.2,3733.7,2554.5,3776.8,2538.1z"/> <path d="M1483.5,2505.5c-13.7,3-35.1,5.9-47.5,6.4c-12.4,0.5-19.1,6.5-14.8,13.4c4.7,7.6-14.2,12.5-48.4,12.5 c-30.9,0-59.6,5.6-63.8,12.5c-11.4,18.5,180.7,15.3,218.2-3.7c17.1-8.7,31.2-24,31.2-34.1 C1558.3,2494.7,1540.6,2493,1483.5,2505.5z"/> </g> <g> <circle class="st0" cx="2247.2" cy="1967.5" r="18.7"/> <circle class="st0" cx="2751.7" cy="1946" r="18.7"/> <circle class="st0" cx="2474.5" cy="3050.6" r="18.7"/> <circle class="st0" cx="2929.3" cy="3640" r="18.7"/> <circle class="st0" cx="2731.1" cy="3637.4" r="18.7"/> <circle class="st0" cx="2714.3" cy="1975.2" r="18.7"/> <circle class="st0" cx="2358.1" cy="3752.4" r="18.7"/> <circle class="st0" cx="2095" cy="3636.7" r="18.7"/> <circle class="st0" cx="1987.4" cy="3755.1" r="18.7"/> <circle class="st0" cx="2452.7" cy="1991.5" r="18.7"/> <circle class="st0" cx="2778.1" cy="2137.1" r="18.7"/> <circle class="st0" cx="2410.8" cy="1869.4" r="18.7"/> <circle class="st0" cx="2707.6" cy="3446.2" r="18.7"/> <circle class="st0" cx="2498.5" cy="2786.5" r="18.7"/> <circle class="st0" cx="2027.6" cy="1951.4" r="18.7"/> <circle class="st0" cx="2368" cy="3467.1" r="18.7"/> <circle class="st0" cx="2944.1" cy="1960.5" r="18.7"/> <circle class="st0" cx="2160.6" cy="3754.9" r="18.7"/> <circle class="st0" cx="2352.6" cy="3369.9" r="18.7"/> <circle class="st0" cx="2249.6" cy="2031.3" r="18.7"/> <circle class="st0" cx="2739.1" cy="2134.8" r="18.7"/> <circle class="st0" cx="2441.6" cy="3077.2" r="18.7"/> <circle class="st0" cx="2016.8" cy="1833.5" r="18.7"/> <circle class="st0" cx="2974.5" cy="1937.5" r="18.7"/> <circle class="st0" cx="2395.1" cy="3347.2" r="18.7"/> <circle class="st0" cx="2039.5" cy="1866" r="18.7"/> <circle class="st0" cx="2799" cy="3520.9" r="18.7"/> <circle class="st0" cx="2600.5" cy="3739.6" r="18.7"/> <circle class="st0" cx="3106.9" cy="3773.8" r="18.7"/> <circle class="st0" cx="2651.4" cy="2033.1" r="18.7"/> <circle class="st0" cx="2339.9" cy="3489.1" r="18.7"/> <circle class="st0" cx="2556" cy="3005.5" r="18.7"/> <circle class="st0" cx="2308.4" cy="1898.7" r="18.7"/> <circle class="st0" cx="2562.7" cy="3191.4" r="18.7"/> <circle class="st0" cx="2650.3" cy="3337.2" r="18.7"/> <circle class="st0" cx="2477.4" cy="2503.6" r="18.7"/> <circle class="st0" cx="2485" cy="2121.1" r="18.7"/> <circle class="st0" cx="2465.5" cy="3381.7" r="18.7"/> <circle class="st0" cx="2288.4" cy="3626.3" r="18.7"/> <circle class="st0" cx="1955.2" cy="1884" r="18.7"/> <circle class="st0" cx="2763.7" cy="3543.3" r="18.7"/> <circle class="st0" cx="2676.7" cy="1901.9" r="18.7"/> <circle class="st0" cx="1987.9" cy="3706.2" r="18.7"/> <circle class="st0" cx="2344.2" cy="1901.8" r="18.7"/> <circle class="st0" cx="2179.6" cy="2020.1" r="18.7"/> <circle class="st0" cx="2783.9" cy="1904.2" r="18.7"/> <circle class="st0" cx="2408.6" cy="3602.5" r="18.7"/> <circle class="st0" cx="2795" cy="1867.7" r="18.7"/> <circle class="st0" cx="2576.4" cy="2226.5" r="18.7"/> <circle class="st0" cx="2650.8" cy="2129.8" r="18.7"/> <circle class="st0" cx="2252.8" cy="1860" r="18.7"/> <circle class="st0" cx="2673.3" cy="1859" r="18.7"/> <circle class="st0" cx="2452.9" cy="3299.7" r="18.7"/> <circle class="st0" cx="2977.9" cy="1874.3" r="18.7"/> <circle class="st0" cx="2677.8" cy="3738.9" r="18.7"/> <circle class="st0" cx="2343.9" cy="1941" r="18.7"/> <circle class="st0" cx="2828.7" cy="3651.6" r="18.7"/> <circle class="st0" cx="2563.1" cy="1974.6" r="18.7"/> <circle class="st0" cx="2605.9" cy="3399.9" r="18.7"/> <circle class="st0" cx="2139.8" cy="1966.2" r="18.7"/> <circle class="st0" cx="2863.9" cy="3686.9" r="18.7"/> <circle class="st0" cx="2535.1" cy="2361.5" r="18.7"/> <circle class="st0" cx="2647.7" cy="3226.1" r="18.7"/> <circle class="st0" cx="1976.2" cy="1844.9" r="18.7"/> <circle class="st0" cx="2105.8" cy="3674.8" r="18.7"/> <circle class="st0" cx="2586" cy="3099.7" r="18.7"/> <circle class="st0" cx="3071.7" cy="3784.4" r="18.7"/> <circle class="st0" cx="2699.8" cy="1937.9" r="18.7"/> <circle class="st0" cx="2690.8" cy="3700.4" r="18.7"/> <circle class="st0" cx="2211.8" cy="3712.9" r="18.7"/> <circle class="st0" cx="2528.3" cy="1956.5" r="18.7"/> <circle class="st0" cx="2498.6" cy="2883.1" r="18.7"/> <circle class="st0" cx="2627" cy="3313.6" r="18.7"/> <circle class="st0" cx="2563" cy="2042.8" r="18.7"/> <circle class="st0" cx="1992.7" cy="1918.7" r="18.7"/> <circle class="st0" cx="3216" cy="3739.5" r="18.7"/> <circle class="st0" cx="2587.5" cy="3473.9" r="18.7"/> <circle class="st0" cx="2762" cy="3681.1" r="18.7"/> <circle class="st0" cx="2540.9" cy="1920.1" r="18.7"/> <circle class="st0" cx="2487.9" cy="3282.3" r="18.7"/> <circle class="st0" cx="2607.6" cy="3365" r="18.7"/> <circle class="st0" cx="2389.3" cy="2195.9" r="18.7"/> <circle class="st0" cx="2216.5" cy="2129.8" r="18.7"/> <circle class="st0" cx="2502.9" cy="1987.7" r="18.7"/> <circle class="st0" cx="2296.5" cy="1931.1" r="18.7"/> <circle class="st0" cx="2299" cy="3513.1" r="18.7"/> <circle class="st0" cx="2503.7" cy="3643.7" r="18.7"/> <circle class="st0" cx="2943.8" cy="3761.2" r="18.7"/> <circle class="st0" cx="2881.4" cy="1888.6" r="18.7"/> <circle class="st0" cx="2636.9" cy="1991.5" r="18.7"/> <circle class="st0" cx="2394.4" cy="1794.2" r="18.7"/> <circle class="st0" cx="2815.4" cy="1964.1" r="18.7"/> <circle class="st0" cx="2314.9" cy="2121.9" r="18.7"/> <circle class="st0" cx="2477.3" cy="3326.1" r="18.7"/> <circle class="st0" cx="2827.2" cy="1822.3" r="18.7"/> <circle class="st0" cx="3053.7" cy="3757.5" r="18.7"/> <circle class="st0" cx="2259.5" cy="3589" r="18.7"/> <circle class="st0" cx="2535.4" cy="3034" r="18.7"/> <circle class="st0" cx="2348.5" cy="3782.3" r="18.7"/> <circle class="st0" cx="2343.2" cy="2095.4" r="18.7"/> <circle class="st0" cx="2836.7" cy="3606.9" r="18.7"/> <circle class="st0" cx="2971.4" cy="3785.8" r="18.7"/> <circle class="st0" cx="1915.3" cy="3781.8" r="18.7"/> <circle class="st0" cx="3240.2" cy="3670.7" r="18.7"/> <circle class="st0" cx="2825" cy="3759.2" r="18.7"/> <circle class="st0" cx="2453" cy="1855.1" r="18.7"/> <circle class="st0" cx="2021" cy="3722.7" r="18.7"/> <circle class="st0" cx="2635.2" cy="3755.4" r="18.7"/> <circle class="st0" cx="2389" cy="2155.2" r="18.7"/> <circle class="st0" cx="2248.8" cy="3524.8" r="18.7"/> <circle class="st0" cx="2464.6" cy="2279.7" r="18.7"/> <circle class="st0" cx="2304.5" cy="2082.7" r="18.7"/> <circle class="st0" cx="2469.2" cy="2674.8" r="18.7"/> <circle class="st0" cx="2912.6" cy="1798.7" r="18.7"/> <circle class="st0" cx="2306.9" cy="3475.4" r="18.7"/> <circle class="st0" cx="2214.3" cy="2089.4" r="18.7"/> <circle class="st0" cx="2669.1" cy="3411.2" r="18.7"/> <circle class="st0" cx="2111.4" cy="2003.6" r="18.7"/> <circle class="st0" cx="1912" cy="1794.1" r="18.7"/> <circle class="st0" cx="2718.8" cy="3366.9" r="18.7"/> <circle class="st0" cx="2212.9" cy="3501.5" r="18.7"/> <circle class="st0" cx="2530.5" cy="2664.7" r="18.7"/> <circle class="st0" cx="2476.9" cy="3619.4" r="18.7"/> <circle class="st0" cx="2791.2" cy="3585.6" r="18.7"/> <circle class="st0" cx="2403.9" cy="2012.7" r="18.7"/> <circle class="st0" cx="2573.6" cy="3345.9" r="18.7"/> <circle class="st0" cx="2445.3" cy="3580.3" r="18.7"/> <circle class="st0" cx="2431.9" cy="3434.2" r="18.7"/> <circle class="st0" cx="2432.9" cy="3333" r="18.7"/> <circle class="st0" cx="2971.5" cy="1905.1" r="18.7"/> <circle class="st0" cx="2608.6" cy="3785.4" r="18.7"/> <circle class="st0" cx="3164.7" cy="3676.6" r="18.7"/> <circle class="st0" cx="2470.7" cy="3153.5" r="18.7"/> <circle class="st0" cx="2156.1" cy="3701.6" r="18.7"/> <circle class="st0" cx="1988.4" cy="1802.1" r="18.7"/> <circle class="st0" cx="2539" cy="3699.3" r="18.7"/> <circle class="st0" cx="2292.4" cy="2190.9" r="18.7"/> <circle class="st0" cx="2773.8" cy="3716.3" r="18.7"/> <circle class="st0" cx="2448.9" cy="1933.9" r="18.7"/> <circle class="st0" cx="2798.3" cy="3783.2" r="18.7"/> <circle class="st0" cx="2223.6" cy="1841.2" r="18.7"/> <circle class="st0" cx="2465.6" cy="2358.6" r="18.7"/> <circle class="st0" cx="2292.6" cy="2050" r="18.7"/> <circle class="st0" cx="2863.6" cy="3522" r="18.7"/> <circle class="st0" cx="2780.6" cy="3397.6" r="18.7"/> <circle class="st0" cx="2427.6" cy="3153.5" r="18.7"/> <circle class="st0" cx="2771.2" cy="2082.4" r="18.7"/> <circle class="st0" cx="2348.6" cy="2050.4" r="18.7"/> <circle class="st0" cx="2472.7" cy="3418.9" r="18.7"/> <circle class="st0" cx="2418.5" cy="2235.2" r="18.7"/> <circle class="st0" cx="2878.2" cy="3549.6" r="18.7"/> <circle class="st0" cx="2025" cy="1909.1" r="18.7"/> <circle class="st0" cx="2810.3" cy="3683.3" r="18.7"/> <circle class="st0" cx="2362.7" cy="3722.1" r="18.7"/> <circle class="st0" cx="2183.7" cy="1819.2" r="18.7"/> <circle class="st0" cx="2665.6" cy="1823.4" r="18.7"/> <circle class="st0" cx="2056.4" cy="1919.7" r="18.7"/> <circle class="st0" cx="2408.1" cy="2074.4" r="18.7"/> <circle class="st0" cx="2949.8" cy="3677.1" r="18.7"/> <circle class="st0" cx="2448.5" cy="2103.2" r="18.7"/> <circle class="st0" cx="2540.4" cy="2616.7" r="18.7"/> <circle class="st0" cx="2431.9" cy="2024.4" r="18.7"/> <circle class="st0" cx="2738.1" cy="1800" r="18.7"/> <circle class="st0" cx="2067.2" cy="3589" r="18.7"/> <circle class="st0" cx="2521.7" cy="3428.5" r="18.7"/> <circle class="st0" cx="2921.8" cy="1914.3" r="18.7"/> <circle class="st0" cx="2452.9" cy="3466.2" r="18.7"/> <circle class="st0" cx="2604.3" cy="3293.9" r="18.7"/> <circle class="st0" cx="2401.5" cy="3391.3" r="18.7"/> <circle class="st0" cx="2939.4" cy="3724.8" r="18.7"/> <circle class="st0" cx="2376.9" cy="3687" r="18.7"/> <circle class="st0" cx="2500" cy="3681.3" r="18.7"/> <circle class="st0" cx="2571.7" cy="2075.5" r="18.7"/> <circle class="st0" cx="2797.3" cy="1942.1" r="18.7"/> <circle class="st0" cx="2497.6" cy="3354.6" r="18.7"/> <circle class="st0" cx="2477.1" cy="2951.3" r="18.7"/> <circle class="st0" cx="2903.2" cy="3720.7" r="18.7"/> <circle class="st0" cx="2748.9" cy="1862" r="18.7"/> <circle class="st0" cx="2014.8" cy="3784.9" r="18.7"/> <circle class="st0" cx="3203.7" cy="3709.9" r="18.7"/> <circle class="st0" cx="3095.4" cy="3634.6" r="18.7"/> <circle class="st0" cx="2230.4" cy="3556.2" r="18.7"/> <circle class="st0" cx="2266.8" cy="2004.7" r="18.7"/> <circle class="st0" cx="2549.1" cy="2296.7" r="18.7"/> <circle class="st0" cx="2584.8" cy="3506.8" r="18.7"/> <circle class="st0" cx="2375.2" cy="2108.6" r="18.7"/> <circle class="st0" cx="2580.1" cy="2184.6" r="18.7"/> <circle class="st0" cx="2592.5" cy="2004.2" r="18.7"/> <circle class="st0" cx="2395.9" cy="3431.9" r="18.7"/> <circle class="st0" cx="2713.3" cy="3776.8" r="18.7"/> <circle class="st0" cx="2002.6" cy="3663.7" r="18.7"/> <circle class="st0" cx="2440.8" cy="3268.2" r="18.7"/> <circle class="st0" cx="2245.9" cy="2065.6" r="18.7"/> <circle class="st0" cx="2859.4" cy="3729.5" r="18.7"/> <circle class="st0" cx="2824" cy="3489.2" r="18.7"/> <circle class="st0" cx="2120.5" cy="3749" r="18.7"/> <circle class="st0" cx="2664.9" cy="3656.5" r="18.7"/> <circle class="st0" cx="2516.5" cy="3136.5" r="18.7"/> <circle class="st0" cx="2239.6" cy="3619.8" r="18.7"/> <circle class="st0" cx="2151.4" cy="3550.9" r="18.7"/> <circle class="st0" cx="2776.2" cy="2049.9" r="18.7"/> <circle class="st0" cx="2088.4" cy="1872" r="18.7"/> <circle class="st0" cx="2504.5" cy="2158.1" r="18.7"/> <circle class="st0" cx="2175.5" cy="2087.4" r="18.7"/> <circle class="st0" cx="2494.9" cy="3588.3" r="18.7"/> <circle class="st0" cx="2340.7" cy="2187.6" r="18.7"/> <circle class="st0" cx="2636.8" cy="1872.7" r="18.7"/> <circle class="st0" cx="2148.5" cy="2056.3" r="18.7"/> <circle class="st0" cx="2500.2" cy="1926" r="18.7"/> <circle class="st0" cx="2856.5" cy="3485.9" r="18.7"/> <circle class="st0" cx="2531.6" cy="2848.9" r="18.7"/> <circle class="st0" cx="2473.1" cy="2629.3" r="18.7"/> <circle class="st0" cx="2786.2" cy="3484" r="18.7"/> <circle class="st0" cx="2090.9" cy="1962.4" r="18.7"/> <circle class="st0" cx="2546.7" cy="1856.6" r="18.7"/> <circle class="st0" cx="2498.7" cy="2834.9" r="18.7"/> <circle class="st0" cx="2119.7" cy="1830.5" r="18.7"/> <circle class="st0" cx="2140.5" cy="3625" r="18.7"/> <circle class="st0" cx="2538.3" cy="3081.2" r="18.7"/> <circle class="st0" cx="2997.7" cy="3750" r="18.7"/> <circle class="st0" cx="2539.9" cy="2903.3" r="18.7"/> <circle class="st0" cx="2725.6" cy="2068.3" r="18.7"/> <circle class="st0" cx="2538.8" cy="3665.7" r="18.7"/> <circle class="st0" cx="2701.6" cy="3664.7" r="18.7"/> <circle class="st0" cx="2480.4" cy="2534.3" r="18.7"/> <circle class="st0" cx="2388.5" cy="3779.3" r="18.7"/> <circle class="st0" cx="2179.1" cy="3521.6" r="18.7"/> <circle class="st0" cx="2599.5" cy="3181.3" r="18.7"/> <circle class="st0" cx="3181.4" cy="3759.2" r="18.7"/> <circle class="st0" cx="2645.8" cy="2271.2" r="18.7"/> <circle class="st0" cx="2202.6" cy="1898.6" r="18.7"/> <circle class="st0" cx="1899" cy="1824.1" r="18.7"/> <circle class="st0" cx="2623.8" cy="1838.8" r="18.7"/> <circle class="st0" cx="2828.1" cy="1793.8" r="18.7"/> <circle class="st0" cx="2565.8" cy="3426.7" r="18.7"/> <circle class="st0" cx="2109.8" cy="3595.6" r="18.7"/> <circle class="st0" cx="2064.6" cy="3706.5" r="18.7"/> <circle class="st0" cx="2341.9" cy="3625.1" r="18.7"/> <circle class="st0" cx="2446.9" cy="3688.1" r="18.7"/> <circle class="st0" cx="2542.7" cy="2262.6" r="18.7"/> <circle class="st0" cx="2453.8" cy="2979.1" r="18.7"/> <circle class="st0" cx="2261.2" cy="2134.6" r="18.7"/> <circle class="st0" cx="2503.1" cy="2091" r="18.7"/> <circle class="st0" cx="2590.2" cy="3653.3" r="18.7"/> <circle class="st0" cx="2547.6" cy="2576.5" r="18.7"/> <circle class="st0" cx="2205.8" cy="3596.1" r="18.7"/> <circle class="st0" cx="2572" cy="3556" r="18.7"/> <circle class="st0" cx="2512.6" cy="2448.9" r="18.7"/> <circle class="st0" cx="3136.6" cy="3650.2" r="18.7"/> <circle class="st0" cx="2426.6" cy="2154.8" r="18.7"/> <circle class="st0" cx="2037.5" cy="3680.3" r="18.7"/> <circle class="st0" cx="2203.5" cy="2046.3" r="18.7"/> <circle class="st0" cx="2578.9" cy="1924" r="18.7"/> <circle class="st0" cx="2382.6" cy="1834.4" r="18.7"/> <circle class="st0" cx="2150.7" cy="2004.9" r="18.7"/> <circle class="st0" cx="2864.7" cy="3644.5" r="18.7"/> <circle class="st0" cx="2352.7" cy="3327.3" r="18.7"/> <circle class="st0" cx="2083" cy="1919.3" r="18.7"/> <circle class="st0" cx="2380.5" cy="1898" r="18.7"/> <circle class="st0" cx="2647.9" cy="1930.5" r="18.7"/> <circle class="st0" cx="2421.2" cy="3774.5" r="18.7"/> <circle class="st0" cx="2704.7" cy="3333.8" r="18.7"/> <circle class="st0" cx="2427.1" cy="2357.9" r="18.7"/> <circle class="st0" cx="2520.7" cy="2942.7" r="18.7"/> <circle class="st0" cx="3061.1" cy="3693.8" r="18.7"/> <circle class="st0" cx="2410.6" cy="1919.3" r="18.7"/> <circle class="st0" cx="2382.4" cy="1952.6" r="18.7"/> <circle class="st0" cx="2556.6" cy="2405.6" r="18.7"/> <circle class="st0" cx="2854.2" cy="1982.7" r="18.7"/> <circle class="st0" cx="2890.5" cy="3754.1" r="18.7"/> <circle class="st0" cx="2442.2" cy="2316.6" r="18.7"/> <circle class="st0" cx="2434.2" cy="3237.3" r="18.7"/> <circle class="st0" cx="1909.1" cy="3658.1" r="18.7"/> <circle class="st0" cx="2315.2" cy="3597" r="18.7"/> <circle class="st0" cx="2244.2" cy="3774.9" r="18.7"/> <circle class="st0" cx="2242.2" cy="3701.8" r="18.7"/> <circle class="st0" cx="2336" cy="3570.6" r="18.7"/> <circle class="st0" cx="3020.4" cy="1811.3" r="18.7"/> <circle class="st0" cx="2507.6" cy="2559.8" r="18.7"/> <circle class="st0" cx="2213.3" cy="3773.2" r="18.7"/> <circle class="st0" cx="2754.7" cy="3781.1" r="18.7"/> <circle class="st0" cx="2499" cy="2481.4" r="18.7"/> <circle class="st0" cx="2606.6" cy="3439.4" r="18.7"/> <circle class="st0" cx="2617" cy="3700.1" r="18.7"/> <circle class="st0" cx="2776.5" cy="3650.1" r="18.7"/> <circle class="st0" cx="2357.8" cy="1864.8" r="18.7"/> <circle class="st0" cx="2671.7" cy="3454.8" r="18.7"/> <circle class="st0" cx="1891" cy="3750.2" r="18.7"/> <circle class="st0" cx="2405.1" cy="3520.1" r="18.7"/> <circle class="st0" cx="2556.7" cy="3119.5" r="18.7"/> <circle class="st0" cx="2732.7" cy="3695.2" r="18.7"/> <circle class="st0" cx="2283.8" cy="3415.7" r="18.7"/> <circle class="st0" cx="2642.8" cy="3385.5" r="18.7"/> <circle class="st0" cx="2344.8" cy="3667" r="18.7"/> <circle class="st0" cx="2502.4" cy="2610.4" r="18.7"/> <circle class="st0" cx="2669.5" cy="1964.2" r="18.7"/> <circle class="st0" cx="2493.6" cy="2369.8" r="18.7"/> <circle class="st0" cx="2124.1" cy="3784" r="18.7"/> <circle class="st0" cx="2669.8" cy="3781.2" r="18.7"/> <circle class="st0" cx="2079.1" cy="3736.9" r="18.7"/> <circle class="st0" cx="2912.9" cy="3784.3" r="18.7"/> <circle class="st0" cx="2420.3" cy="3185.9" r="18.7"/> <circle class="st0" cx="3008.7" cy="3700.1" r="18.7"/> <circle class="st0" cx="2938.2" cy="3602.9" r="18.7"/> <circle class="st0" cx="2579.3" cy="1881.1" r="18.7"/> <circle class="st0" cx="2947.4" cy="1804.6" r="18.7"/> <circle class="st0" cx="2319.7" cy="2021.7" r="18.7"/> <circle class="st0" cx="3050.9" cy="1859.5" r="18.7"/> <circle class="st0" cx="2187.2" cy="3564.8" r="18.7"/> <circle class="st0" cx="2043.2" cy="3618.3" r="18.7"/> <circle class="st0" cx="2539.8" cy="3463.2" r="18.7"/> <circle class="st0" cx="2466.9" cy="2791.7" r="18.7"/> <circle class="st0" cx="3090.7" cy="3727.6" r="18.7"/> <circle class="st0" cx="2403.4" cy="2281.5" r="18.7"/> <circle class="st0" cx="3052.4" cy="1801.9" r="18.7"/> <circle class="st0" cx="1930.3" cy="3744.6" r="18.7"/> <circle class="st0" cx="2114.4" cy="1895.5" r="18.7"/> <circle class="st0" cx="2530.8" cy="3785.9" r="18.7"/> <circle class="st0" cx="2513.2" cy="2404.7" r="18.7"/> <circle class="st0" cx="2246" cy="1802" r="18.7"/> <circle class="st0" cx="1958.3" cy="3671.5" r="18.7"/> <circle class="st0" cx="2704.1" cy="3485.6" r="18.7"/> <circle class="st0" cx="2043.5" cy="3757.7" r="18.7"/> <circle class="st0" cx="2253.3" cy="1894.8" r="18.7"/> <circle class="st0" cx="2909.1" cy="3577.8" r="18.7"/> <circle class="st0" cx="2524.4" cy="3746.9" r="18.7"/> <circle class="st0" cx="2517.9" cy="2987" r="18.7"/> <circle class="st0" cx="2713.8" cy="3406" r="18.7"/> <circle class="st0" cx="2721.5" cy="3523.2" r="18.7"/> <circle class="st0" cx="2493.6" cy="2191" r="18.7"/> <circle class="st0" cx="2497.6" cy="3177.1" r="18.7"/> <circle class="st0" cx="2782" cy="1799.6" r="18.7"/> <circle class="st0" cx="2276.8" cy="3769.6" r="18.7"/> <circle class="st0" cx="2915.7" cy="1842" r="18.7"/> <circle class="st0" cx="2479.3" cy="2022.5" r="18.7"/> <circle class="st0" cx="2665.5" cy="3260.2" r="18.7"/> <circle class="st0" cx="2202.9" cy="1970.6" r="18.7"/> <circle class="st0" cx="2873.6" cy="1847.6" r="18.7"/> <circle class="st0" cx="2749.8" cy="3497.1" r="18.7"/> <circle class="st0" cx="2316.1" cy="3542.7" r="18.7"/> <circle class="st0" cx="2767.8" cy="3746.5" r="18.7"/> <circle class="st0" cx="2535.3" cy="2101.6" r="18.7"/> <circle class="st0" cx="2177.4" cy="1958" r="18.7"/> <circle class="st0" cx="2165.2" cy="3602.6" r="18.7"/> <circle class="st0" cx="2907.6" cy="1947.3" r="18.7"/> <circle class="st0" cx="2310.2" cy="2155.3" r="18.7"/> <circle class="st0" cx="2340.5" cy="1798.3" r="18.7"/> <circle class="st0" cx="2571" cy="3305.9" r="18.7"/> <circle class="st0" cx="2493.7" cy="3740.6" r="18.7"/> <circle class="st0" cx="2695.4" cy="2156.9" r="18.7"/> <circle class="st0" cx="2859" cy="3783.8" r="18.7"/> <circle class="st0" cx="2698.1" cy="2117.4" r="18.7"/> <circle class="st0" cx="2499.7" cy="2233.9" r="18.7"/> <circle class="st0" cx="2247" cy="3654.8" r="18.7"/> <circle class="st0" cx="2261.9" cy="3732.7" r="18.7"/> <circle class="st0" cx="2261.8" cy="1932.5" r="18.7"/> <circle class="st0" cx="2490.4" cy="3451.5" r="18.7"/> <circle class="st0" cx="2753.3" cy="3587.6" r="18.7"/> <circle class="st0" cx="2074.7" cy="1807.4" r="18.7"/> <circle class="st0" cx="2473.3" cy="2420.6" r="18.7"/> <circle class="st0" cx="2529.9" cy="2788.3" r="18.7"/> <circle class="st0" cx="2499.6" cy="2672.2" r="18.7"/> <circle class="st0" cx="2758.4" cy="2018.1" r="18.7"/> <circle class="st0" cx="2332.7" cy="1838.9" r="18.7"/> <circle class="st0" cx="2996.1" cy="3600.4" r="18.7"/> <circle class="st0" cx="2813.8" cy="3548.5" r="18.7"/> <circle class="st0" cx="2310" cy="3781" r="18.7"/> <circle class="st0" cx="2061.2" cy="3654.7" r="18.7"/> <circle class="st0" cx="2336.1" cy="3442.5" r="18.7"/> <circle class="st0" cx="2513.4" cy="3393.3" r="18.7"/> <circle class="st0" cx="2405.1" cy="2317.6" r="18.7"/> <circle class="st0" cx="2524.4" cy="3492.3" r="18.7"/> <circle class="st0" cx="2739" cy="2171.3" r="18.7"/> <circle class="st0" cx="2537.9" cy="2532.8" r="18.7"/> <circle class="st0" cx="2536.6" cy="2144.6" r="18.7"/> <circle class="st0" cx="2913.4" cy="1991.2" r="18.7"/> <circle class="st0" cx="2638.4" cy="2169.1" r="18.7"/> <circle class="st0" cx="2164.9" cy="1918.7" r="18.7"/> <circle class="st0" cx="2909.2" cy="3680.1" r="18.7"/> <circle class="st0" cx="3159.9" cy="3712.7" r="18.7"/> <circle class="st0" cx="2983.5" cy="1802.7" r="18.7"/> <circle class="st0" cx="2541.4" cy="1821.3" r="18.7"/> <circle class="st0" cx="2315.1" cy="3704.3" r="18.7"/> <circle class="st0" cx="2789.1" cy="3621.7" r="18.7"/> <circle class="st0" cx="3255.1" cy="3696.9" r="18.7"/> <circle class="st0" cx="2525.4" cy="3556.5" r="18.7"/> <circle class="st0" cx="2748.6" cy="3458.4" r="18.7"/> <circle class="st0" cx="2189.6" cy="3740" r="18.7"/> <circle class="st0" cx="2817.3" cy="3448.2" r="18.7"/> <circle class="st0" cx="2974.3" cy="3655.8" r="18.7"/> <circle class="st0" cx="2117.9" cy="3709.1" r="18.7"/> <circle class="st0" cx="2481.7" cy="3493.3" r="18.7"/> <circle class="st0" cx="2543.4" cy="2188.2" r="18.7"/> <circle class="st0" cx="2531.9" cy="3296.5" r="18.7"/> <circle class="st0" cx="2363" cy="3407" r="18.7"/> <circle class="st0" cx="2404.2" cy="3717.9" r="18.7"/> <circle class="st0" cx="2334.9" cy="2225.7" r="18.7"/> <circle class="st0" cx="2711.2" cy="1813.1" r="18.7"/> <circle class="st0" cx="1953.8" cy="1804.5" r="18.7"/> <circle class="st0" cx="2081.2" cy="2011.9" r="18.7"/> <circle class="st0" cx="2860.8" cy="2048.3" r="18.7"/> <circle class="st0" cx="2433.6" cy="3619.9" r="18.7"/> <circle class="st0" cx="2405.6" cy="3477.6" r="18.7"/> <circle class="st0" cx="2539.3" cy="2009.8" r="18.7"/> <circle class="st0" cx="2279.6" cy="3558.7" r="18.7"/> <circle class="st0" cx="2914.8" cy="3539.8" r="18.7"/> <circle class="st0" cx="2703.2" cy="2194" r="18.7"/> <circle class="st0" cx="2837" cy="1854.5" r="18.7"/> <circle class="st0" cx="2448.9" cy="2056.7" r="18.7"/> <circle class="st0" cx="2317.1" cy="3403.3" r="18.7"/> <circle class="st0" cx="2464.8" cy="2229.2" r="18.7"/> <circle class="st0" cx="2495.8" cy="3525.4" r="18.7"/> <circle class="st0" cx="3023.6" cy="1889" r="18.7"/> <circle class="st0" cx="1996.3" cy="1876.8" r="18.7"/> <circle class="st0" cx="2368.8" cy="2270.6" r="18.7"/> <circle class="st0" cx="2486.1" cy="1828" r="18.7"/> <circle class="st0" cx="2513.7" cy="3254.2" r="18.7"/> <circle class="st0" cx="2633.3" cy="3463.1" r="18.7"/> <circle class="st0" cx="2557.2" cy="3729.8" r="18.7"/> <circle class="st0" cx="2748.2" cy="3408" r="18.7"/> <circle class="st0" cx="2716.2" cy="1890" r="18.7"/> <circle class="st0" cx="1929" cy="1851.4" r="18.7"/> <circle class="st0" cx="2471.5" cy="2581.5" r="18.7"/> <circle class="st0" cx="2572.5" cy="2363.1" r="18.7"/> <circle class="st0" cx="2616.9" cy="1905.1" r="18.7"/> <circle class="st0" cx="2552.7" cy="3382.1" r="18.7"/> <circle class="st0" cx="2594.1" cy="3221.9" r="18.7"/> <circle class="st0" cx="2927.4" cy="1879.7" r="18.7"/> <circle class="st0" cx="2714.6" cy="3556" r="18.7"/> <circle class="st0" cx="2177.2" cy="3787.6" r="18.7"/> <circle class="st0" cx="2721.5" cy="3737" r="18.7"/> <circle class="st0" cx="2514.4" cy="1799.7" r="18.7"/> <circle class="st0" cx="3131.9" cy="3746.7" r="18.7"/> <circle class="st0" cx="2532.3" cy="3601.6" r="18.7"/> <circle class="st0" cx="2612.6" cy="2133.8" r="18.7"/> <circle class="st0" cx="2480.7" cy="3785.3" r="18.7"/> <circle class="st0" cx="2823.4" cy="3714.8" r="18.7"/> <circle class="st0" cx="3197.4" cy="3662.9" r="18.7"/> <circle class="st0" cx="2623.2" cy="1957" r="18.7"/> <circle class="st0" cx="2365.7" cy="3290.9" r="18.7"/> <circle class="st0" cx="2297.7" cy="1863.6" r="18.7"/> <circle class="st0" cx="2680.2" cy="2226.2" r="18.7"/> <circle class="st0" cx="2778.7" cy="3438.8" r="18.7"/> <circle class="st0" cx="2547" cy="3519.5" r="18.7"/> <circle class="st0" cx="2612.3" cy="2205.6" r="18.7"/> <circle class="st0" cx="3007.8" cy="1849.9" r="18.7"/> <circle class="st0" cx="2963" cy="3578.6" r="18.7"/> <circle class="st0" cx="2264.6" cy="3494.7" r="18.7"/> <circle class="st0" cx="2283.6" cy="1827" r="18.7"/> <circle class="st0" cx="2451.2" cy="3022.8" r="18.7"/> <circle class="st0" cx="2671.6" cy="1794" r="18.7"/> <circle class="st0" cx="2292.4" cy="1981.3" r="18.7"/> <circle class="st0" cx="2209.9" cy="1798.3" r="18.7"/> <circle class="st0" cx="3035.1" cy="3726.1" r="18.7"/> <circle class="st0" cx="2076.4" cy="3782.2" r="18.7"/> <circle class="st0" cx="2709.4" cy="3300.3" r="18.7"/> <circle class="st0" cx="2623.8" cy="3519.3" r="18.7"/> <circle class="st0" cx="2443.5" cy="2395.5" r="18.7"/> <circle class="st0" cx="2584.8" cy="1841.7" r="18.7"/> <circle class="st0" cx="2007.1" cy="3622.7" r="18.7"/> <circle class="st0" cx="2376.8" cy="2230.2" r="18.7"/> <circle class="st0" cx="2200.3" cy="3673.5" r="18.7"/> <circle class="st0" cx="2435.7" cy="3729.3" r="18.7"/> <circle class="st0" cx="2461.1" cy="2453.1" r="18.7"/> <circle class="st0" cx="2425.3" cy="1818.8" r="18.7"/> <circle class="st0" cx="2477.5" cy="1958.6" r="18.7"/> <circle class="st0" cx="2383.4" cy="3644.9" r="18.7"/> <circle class="st0" cx="2858" cy="1918" r="18.7"/> <circle class="st0" cx="2803.8" cy="2101.8" r="18.7"/> <circle class="st0" cx="2618.3" cy="1802.2" r="18.7"/> <circle class="st0" cx="2651.2" cy="3497" r="18.7"/> <circle class="st0" cx="2465.7" cy="2856.5" r="18.7"/> <circle class="st0" cx="2118.2" cy="2045.4" r="18.7"/> <circle class="st0" cx="2896.4" cy="3627.6" r="18.7"/> <circle class="st0" cx="2202.1" cy="3636.1" r="18.7"/> <circle class="st0" cx="2457.1" cy="3651.5" r="18.7"/> <circle class="st0" cx="1963.3" cy="3781.7" r="18.7"/> <circle class="st0" cx="2553.8" cy="2955.8" r="18.7"/> <circle class="st0" cx="2573.1" cy="2108.8" r="18.7"/> <circle class="st0" cx="2594.9" cy="3143.6" r="18.7"/> <circle class="st0" cx="2472.5" cy="2716.3" r="18.7"/> <circle class="st0" cx="2308.5" cy="3660.9" r="18.7"/> <circle class="st0" cx="2477.6" cy="3232.5" r="18.7"/> <circle class="st0" cx="2258.8" cy="2169.2" r="18.7"/> <circle class="st0" cx="2319.5" cy="1971.9" r="18.7"/> <circle class="st0" cx="2719.1" cy="3603.9" r="18.7"/> <circle class="st0" cx="2676.7" cy="3366.6" r="18.7"/> <circle class="st0" cx="2877.4" cy="1805.1" r="18.7"/> <circle class="st0" cx="2521.8" cy="2707.9" r="18.7"/> <circle class="st0" cx="2594.6" cy="1962.1" r="18.7"/> <circle class="st0" cx="2478.2" cy="3707.9" r="18.7"/> <circle class="st0" cx="2443.3" cy="3513" r="18.7"/> <circle class="st0" cx="2462.9" cy="2153.3" r="18.7"/> <circle class="st0" cx="2569" cy="3774.7" r="18.7"/> <circle class="st0" cx="2189.8" cy="1867.1" r="18.7"/> <circle class="st0" cx="2674.8" cy="3522.4" r="18.7"/> <circle class="st0" cx="2890.2" cy="2019.6" r="18.7"/> <circle class="st0" cx="2532.4" cy="3338.6" r="18.7"/> <circle class="st0" cx="2484.5" cy="2745.1" r="18.7"/> <circle class="st0" cx="2580.3" cy="2148.2" r="18.7"/> <circle class="st0" cx="2546.9" cy="3162.8" r="18.7"/> <circle class="st0" cx="2709.8" cy="1851.1" r="18.7"/> <circle class="st0" cx="2117.8" cy="3562" r="18.7"/> <circle class="st0" cx="2433.8" cy="3379" r="18.7"/> <circle class="st0" cx="2213.3" cy="2003.9" r="18.7"/> <circle class="st0" cx="2601.4" cy="3616.8" r="18.7"/> <circle class="st0" cx="2520.8" cy="2047.8" r="18.7"/> <circle class="st0" cx="2583.2" cy="3695.9" r="18.7"/> <circle class="st0" cx="2155.5" cy="1798.7" r="18.7"/> <circle class="st0" cx="2630.8" cy="3609.3" r="18.7"/> <circle class="st0" cx="2531.1" cy="2741.8" r="18.7"/> <circle class="st0" cx="2529.5" cy="2327.6" r="18.7"/> <circle class="st0" cx="2842.1" cy="2008.4" r="18.7"/> <circle class="st0" cx="2217.6" cy="1927" r="18.7"/> <circle class="st0" cx="2960.6" cy="1847.6" r="18.7"/> <circle class="st0" cx="2841.9" cy="3567.1" r="18.7"/> <circle class="st0" cx="3119.9" cy="3696.7" r="18.7"/> <circle class="st0" cx="2826.9" cy="2072" r="18.7"/> <circle class="st0" cx="2618.3" cy="3555.6" r="18.7"/> <circle class="st0" cx="2815.4" cy="2033.5" r="18.7"/> <circle class="st0" cx="2752" cy="3358.8" r="18.7"/> <circle class="st0" cx="1925.9" cy="3691.1" r="18.7"/> <circle class="st0" cx="2355.6" cy="1983.4" r="18.7"/> <circle class="st0" cx="2314.7" cy="3358.5" r="18.7"/> <circle class="st0" cx="2411.7" cy="3558.2" r="18.7"/> <circle class="st0" cx="2771" cy="1833.7" r="18.7"/> <circle class="st0" cx="2411.7" cy="3669.2" r="18.7"/> <circle class="st0" cx="2275.7" cy="3684.8" r="18.7"/> <circle class="st0" cx="3075.6" cy="1830.2" r="18.7"/> <circle class="st0" cx="2744.4" cy="1912.7" r="18.7"/> <circle class="st0" cx="2471" cy="3553.3" r="18.7"/> <circle class="st0" cx="2238.9" cy="3463.9" r="18.7"/> <circle class="st0" cx="2477.5" cy="1901.5" r="18.7"/> <circle class="st0" cx="2494.8" cy="1862.7" r="18.7"/> <circle class="st0" cx="2402.4" cy="3297.9" r="18.7"/> <circle class="st0" cx="2501.7" cy="2278.1" r="18.7"/> <circle class="st0" cx="2441.5" cy="1890.2" r="18.7"/> <circle class="st0" cx="2592.8" cy="2260.5" r="18.7"/> <circle class="st0" cx="2521.1" cy="1885.5" r="18.7"/> <circle class="st0" cx="2420.1" cy="1966.9" r="18.7"/> <circle class="st0" cx="2831.3" cy="1901.4" r="18.7"/> <circle class="st0" cx="1953.6" cy="3718.9" r="18.7"/> <circle class="st0" cx="2652" cy="3566.3" r="18.7"/> <circle class="st0" cx="2674.3" cy="3295" r="18.7"/> <circle class="st0" cx="3026" cy="3662.9" r="18.7"/> <circle class="st0" cx="2544.6" cy="2500.1" r="18.7"/> <circle class="st0" cx="2457.3" cy="3754.5" r="18.7"/> <circle class="st0" cx="2683.7" cy="3578.3" r="18.7"/> <circle class="st0" cx="2372.9" cy="2009.5" r="18.7"/> <circle class="st0" cx="2878.5" cy="3597.1" r="18.7"/> <circle class="st0" cx="2386.9" cy="3253.4" r="18.7"/> <circle class="st0" cx="2577.5" cy="3588.7" r="18.7"/> <circle class="st0" cx="2680.8" cy="2003.2" r="18.7"/> <circle class="st0" cx="2718" cy="2020" r="18.7"/> <circle class="st0" cx="2383.3" cy="2055" r="18.7"/> <circle class="st0" cx="2485.4" cy="2062.3" r="18.7"/> <circle class="st0" cx="2450.4" cy="2916.8" r="18.7"/> <circle class="st0" cx="2572.4" cy="1799.6" r="18.7"/> <circle class="st0" cx="2672.5" cy="3618.2" r="18.7"/> <circle class="st0" cx="2994.6" cy="3632.3" r="18.7"/> <circle class="st0" cx="2752.5" cy="1977.3" r="18.7"/> <circle class="st0" cx="2741.2" cy="2101.3" r="18.7"/> <circle class="st0" cx="2265.9" cy="2097.8" r="18.7"/> <circle class="st0" cx="3061" cy="3645.2" r="18.7"/> <circle class="st0" cx="2868.8" cy="1952.5" r="18.7"/> <circle class="st0" cx="2488.5" cy="2318.6" r="18.7"/> <circle class="st0" cx="2458.6" cy="1797" r="18.7"/> <circle class="st0" cx="2124.6" cy="1929.8" r="18.7"/> <circle class="st0" cx="2311.5" cy="3739.5" r="18.7"/> <circle class="st0" cx="2490.5" cy="3005.2" r="18.7"/> <circle class="st0" cx="2477.3" cy="3097.3" r="18.7"/> <circle class="st0" cx="2605.4" cy="2042.1" r="18.7"/> <circle class="st0" cx="2643.6" cy="2065.2" r="18.7"/> <circle class="st0" cx="2792.7" cy="1994.3" r="18.7"/> <circle class="st0" cx="1962.9" cy="3634.7" r="18.7"/> <circle class="st0" cx="2157.3" cy="1850.6" r="18.7"/> <circle class="st0" cx="2400.5" cy="3217.2" r="18.7"/> <circle class="st0" cx="2571.2" cy="3057.3" r="18.7"/> <circle class="st0" cx="2604.9" cy="2298.1" r="18.7"/> <circle class="st0" cx="2506.1" cy="3053.9" r="18.7"/> <circle class="st0" cx="1891.7" cy="3700.1" r="18.7"/> <circle class="st0" cx="2052.2" cy="1977.7" r="18.7"/> <circle class="st0" cx="2374.4" cy="3598" r="18.7"/> <circle class="st0" cx="2632.4" cy="3662" r="18.7"/> <circle class="st0" cx="2293.8" cy="1798.7" r="18.7"/> <circle class="st0" cx="2438.6" cy="2195.4" r="18.7"/> <circle class="st0" cx="2614.7" cy="3257.2" r="18.7"/> <circle class="st0" cx="2657.2" cy="2197.9" r="18.7"/> <circle class="st0" cx="2542.4" cy="3233.1" r="18.7"/> <circle class="st0" cx="2275.3" cy="3453.3" r="18.7"/> <circle class="st0" cx="2613.5" cy="2089.1" r="18.7"/> <circle class="st0" cx="2582.8" cy="2323.8" r="18.7"/> <circle class="st0" cx="2568.5" cy="3259.9" r="18.7"/> <circle class="st0" cx="2368.7" cy="3552.9" r="18.7"/> <circle class="st0" cx="2415.3" cy="2112.1" r="18.7"/> <circle class="st0" cx="2635.4" cy="3190.3" r="18.7"/> <circle class="st0" cx="2689.8" cy="2057.6" r="18.7"/> <circle class="st0" cx="2667.8" cy="2095" r="18.7"/> <circle class="st0" cx="2362.9" cy="3515.5" r="18.7"/> <circle class="st0" cx="3021.5" cy="3784.8" r="18.7"/> <circle class="st0" cx="2551.7" cy="2454" r="18.7"/> <circle class="st0" cx="2652.1" cy="3703" r="18.7"/> <circle class="st0" cx="2141" cy="1877.4" r="18.7"/> <circle class="st0" cx="3038.7" cy="3615.3" r="18.7"/> <circle class="st0" cx="2511.7" cy="3103.3" r="18.7"/> <circle class="st0" cx="2516.5" cy="3204.5" r="18.7"/> <circle class="st0" cx="2033.3" cy="1799" r="18.7"/> <circle class="st0" cx="2109.1" cy="1796.1" r="18.7"/> <circle class="st0" cx="2439" cy="2268.7" r="18.7"/> <circle class="st0" cx="3089.6" cy="3676.9" r="18.7"/> <circle class="st0" cx="2633.6" cy="2240.5" r="18.7"/> <circle class="st0" cx="2975" cy="3710.4" r="18.7"/> <circle class="st0" cx="2531.6" cy="2224.5" r="18.7"/> <circle class="st0" cx="2555.3" cy="3634.7" r="18.7"/> <circle class="st0" cx="3152" cy="3784.4" r="18.7"/> <circle class="st0" cx="2458.2" cy="3194.6" r="18.7"/> <circle class="st0" cx="2068.6" cy="1840.6" r="18.7"/> <circle class="st0" cx="2356.8" cy="2146.1" r="18.7"/> <circle class="st0" cx="2155.8" cy="3662.9" r="18.7"/> <circle class="st0" cx="2445.8" cy="3116" r="18.7"/> <circle class="st0" cx="2488.2" cy="2916.4" r="18.7"/> </g> </g> </svg>